if (_typeface_js && _typeface_js.loadFace) _typeface_js.loadFace({"glyphs":{"ҷ":{"x_min":41.671875,"x_max":790.28125,"ha":765,"o":"m 790 161 l 679 161 l 679 737 l 459 737 l 459 415 b 336 368 429 388 380 368 b 261 462 288 368 261 392 l 261 737 l 41 737 l 41 435 b 252 206 41 296 108 206 b 459 277 333 206 408 234 l 459 0 l 612 0 l 637 -229 l 790 -229 l 790 161 "},"₅":{"x_min":45.203125,"x_max":509.09375,"ha":556,"o":"m 460 188 l 478 300 l 85 300 l 85 -23 l 195 -23 b 263 -2 217 -9 239 -2 b 339 -87 309 -2 339 -23 b 249 -179 339 -148 306 -179 b 136 -122 202 -179 166 -156 l 45 -205 b 259 -301 91 -259 157 -301 b 509 -87 410 -301 509 -216 b 331 105 509 36 431 105 b 235 84 297 105 268 98 l 235 188 l 460 188 "},"ӱ":{"x_min":-8.4375,"x_max":727.671875,"ha":719,"o":"m 198 1109 b 86 1000 136 1109 86 1061 b 198 890 86 938 136 890 b 311 1000 262 890 311 938 b 198 1109 311 1061 262 1109 m 520 1109 b 408 1000 458 1109 408 1061 b 520 890 408 938 458 890 b 633 1000 584 890 633 938 b 520 1109 633 1061 584 1109 m 727 737 l 501 737 l 356 140 l 224 737 l -8 737 l 216 0 l 291 0 b 54 -154 251 -94 198 -136 l 77 -308 b 492 -1 309 -295 434 -187 l 727 737 "},"̂":{"x_min":54,"x_max":580,"ha":0,"o":"m 317 990 l 502 873 l 580 963 l 384 1143 l 251 1143 l 54 963 l 133 873 l 317 990 "},"Á":{"x_min":-18,"x_max":839,"ha":819,"o":"m 268 1043 l 601 1163 l 516 1327 l 212 1154 l 268 1043 m 547 206 l 597 0 l 839 0 l 548 962 l 272 962 l -18 0 l 218 0 l 266 206 l 547 206 m 508 372 l 305 372 l 407 797 l 508 372 "},"ĥ":{"x_min":86,"x_max":722.109375,"ha":801,"o":"m 216 1116 l 401 1233 l 586 1116 l 663 1207 l 467 1386 l 334 1386 l 137 1207 l 216 1116 m 517 761 b 305 658 431 761 365 726 l 305 1053 l 86 1030 l 86 0 l 305 0 l 305 505 b 433 599 344 565 384 599 b 502 501 474 599 502 579 l 502 0 l 722 0 l 722 538 b 517 761 722 679 645 761 "},"Κ":{"x_min":90.28125,"x_max":895.828125,"ha":879,"o":"m 318 0 l 318 962 l 90 962 l 90 0 l 318 0 m 563 530 l 870 962 l 630 962 l 325 513 l 631 0 l 895 0 l 563 530 "},"»":{"x_min":50,"x_max":818.015625,"ha":868,"o":"m 448 463 l 186 772 l 50 681 l 229 395 l 50 108 l 186 18 l 448 324 l 448 463 m 818 463 l 555 772 l 419 681 l 598 395 l 419 108 l 555 18 l 818 324 l 818 463 "},"∆":{"x_min":-18.015625,"x_max":850,"ha":832,"o":"m 850 0 l 554 962 l 279 962 l -18 0 l 850 0 m 255 166 l 413 794 l 570 166 l 255 166 "},"ў":{"x_min":-8,"x_max":728,"ha":719,"o":"m 360 877 b 600 1091 505 877 589 966 l 479 1113 b 360 1030 461 1054 423 1030 b 241 1113 296 1030 258 1054 l 121 1091 b 360 877 132 966 214 877 m 728 737 l 501 737 l 357 140 l 225 737 l -8 737 l 216 0 l 291 0 b 54 -154 251 -94 198 -136 l 78 -308 b 493 -1 310 -295 434 -187 l 728 737 "},"ţ":{"x_min":2.703125,"x_max":547.515625,"ha":536,"o":"m 384 -22 b 547 34 440 -16 501 2 l 473 175 b 395 150 444 156 420 150 b 325 245 349 150 325 175 l 325 584 l 471 584 l 494 737 l 325 737 l 325 922 l 106 897 l 106 737 l 2 737 l 2 584 l 106 584 l 106 243 b 259 -11 106 104 156 18 l 242 -155 b 370 -202 331 -155 370 -169 b 305 -244 370 -233 343 -244 b 216 -220 270 -244 244 -234 l 166 -322 b 321 -363 201 -345 256 -363 b 528 -204 447 -363 528 -298 b 384 -66 528 -129 483 -77 l 384 -22 "},"«":{"x_min":49.890625,"x_max":822,"ha":872,"o":"m 448 681 l 313 772 l 49 463 l 49 324 l 313 18 l 448 108 l 269 395 l 448 681 m 822 681 l 685 772 l 423 463 l 423 324 l 685 18 l 822 108 l 642 395 l 822 681 "},"":{"x_min":58.46875,"x_max":1656.40625,"ha":0,"o":"m 93 662 l 297 714 b 58 505 239 671 112 574 l 62 495 b 257 567 118 517 193 544 b 93 408 225 549 137 483 l 97 397 b 265 475 155 425 265 476 b 132 301 207 422 158 361 l 136 290 l 298 374 b 194 219 264 342 218 291 l 200 209 l 304 282 b 248 181 283 258 258 216 l 254 170 b 362 216 279 183 315 201 b 291 160 333 197 307 180 l 294 151 b 341 148 308 149 341 148 l 269 109 b 466 -64 269 109 345 6 b 811 -157 601 -144 741 -157 b 898 -151 851 -157 889 -152 b 884 -98 898 -146 891 -115 b 914 -4 893 -86 908 -34 b 1047 202 936 106 944 148 b 1147 240 1069 213 1108 240 b 1310 206 1197 240 1267 215 b 1384 197 1339 201 1364 197 b 1516 267 1417 197 1486 243 b 1548 262 1518 265 1532 262 b 1574 266 1556 262 1566 262 b 1656 437 1599 278 1656 418 b 1643 516 1656 453 1648 472 b 1634 615 1641 543 1638 602 b 1349 756 1613 672 1489 697 b 1224 839 1265 792 1224 839 b 1228 871 1224 839 1228 853 b 1078 1010 1228 909 1194 1010 b 962 991 1025 1010 976 995 b 722 1053 936 991 791 1053 b 282 840 552 1053 400 934 b 91 673 191 769 123 705 l 93 662 m 427 791 b 714 978 445 825 552 978 b 879 946 777 978 848 957 l 880 941 b 848 892 868 931 851 913 l 857 891 b 1087 951 923 914 1017 951 b 1150 910 1125 951 1142 924 l 1143 910 b 1090 921 1132 917 1114 921 b 825 842 1019 921 864 857 l 822 835 l 929 817 b 989 734 929 817 944 760 l 1005 734 b 978 796 985 757 978 779 b 1060 862 978 850 1032 862 b 1082 859 1072 862 1080 860 l 1079 853 b 1018 801 1062 849 1018 837 b 1217 714 1018 755 1087 714 l 1219 721 l 1158 795 l 1164 796 b 1370 681 1218 750 1281 711 b 1555 600 1463 647 1536 624 b 1514 533 1555 575 1514 559 b 1557 459 1514 512 1541 479 l 1566 459 b 1563 491 1564 473 1563 483 b 1574 517 1563 512 1568 517 b 1593 455 1586 517 1593 480 b 1581 395 1593 422 1581 395 b 1404 425 1581 395 1484 404 b 987 682 1297 451 1108 583 l 918 712 l 914 707 l 987 624 b 1012 577 996 616 1012 592 b 987 510 1012 552 992 516 l 961 555 l 954 630 l 947 630 b 928 520 941 613 928 566 b 1039 368 928 412 1025 375 b 1111 356 1055 364 1093 357 l 1112 361 b 1057 439 1089 382 1057 405 b 1058 448 1057 441 1057 444 l 1062 448 b 1208 354 1083 414 1126 383 b 1427 277 1374 294 1379 317 b 1361 250 1427 277 1388 252 b 1168 322 1333 255 1217 296 b 962 275 1156 317 998 276 b 759 390 866 287 794 350 l 745 395 b 833 241 745 332 823 247 l 887 219 l 887 212 b 797 105 857 194 797 159 l 805 103 b 893 145 827 123 875 144 b 894 142 893 144 894 144 l 871 106 b 861 47 871 90 868 66 b 743 103 836 47 768 84 l 737 99 b 833 -19 747 69 795 8 b 812 -58 825 -37 812 -58 b 727 -2 812 -58 754 -22 l 722 -8 b 780 -100 736 -37 764 -82 l 780 -102 b 414 34 695 -102 527 -59 l 502 87 l 498 94 l 379 67 l 370 74 b 533 167 415 95 514 138 l 527 173 b 432 167 500 169 432 167 b 427 188 432 167 427 170 b 465 292 427 227 465 252 b 387 420 465 326 408 386 b 348 552 370 448 348 499 b 351 579 348 560 350 570 l 354 581 l 368 559 l 375 560 b 384 614 376 573 380 600 l 387 614 b 429 541 394 595 404 559 l 434 546 b 425 615 427 568 425 592 b 511 797 425 689 457 758 l 509 804 b 430 786 482 801 458 795 l 427 791 m 580 781 b 639 821 580 781 609 811 b 691 734 639 768 672 748 l 700 734 b 695 770 697 746 695 759 b 714 855 695 816 712 852 l 784 891 l 791 901 b 736 907 791 901 769 907 b 575 786 612 907 584 820 l 580 781 m 673 655 b 783 664 673 655 722 664 b 886 651 827 664 886 651 l 890 655 l 852 724 l 852 730 b 908 739 861 731 890 735 l 909 745 b 800 814 864 793 800 814 l 798 809 l 836 761 l 836 759 b 743 746 807 759 743 746 l 741 741 l 784 717 l 784 713 b 665 660 739 704 690 682 l 673 655 m 1168 697 l 1112 702 l 1039 730 l 1014 728 b 1121 679 1051 697 1083 679 b 1161 686 1133 679 1147 681 l 1168 697 "},"í":{"x_min":-12.5,"x_max":376.390625,"ha":392,"o":"m 376 995 l 290 1159 l -12 976 l 48 863 l 376 995 m 305 0 l 305 737 l 86 737 l 86 0 l 305 0 "},"ῧ":{"x_min":78.921875,"x_max":725.953125,"ha":785,"o":"m 469 1140 b 645 1303 546 1140 609 1209 l 535 1357 b 463 1296 513 1317 494 1296 b 302 1359 417 1296 388 1359 b 123 1194 219 1359 158 1283 l 233 1141 b 306 1202 255 1180 273 1202 b 469 1140 352 1202 380 1140 m 226 1109 b 113 999 163 1109 113 1060 b 226 890 113 938 163 890 b 338 999 290 890 338 938 b 226 1109 338 1060 290 1109 m 548 1109 b 435 999 485 1109 435 1060 b 548 890 435 938 485 890 b 660 999 612 890 660 938 b 548 1109 660 1060 612 1109 m 469 737 b 505 362 491 608 505 476 b 381 137 505 191 441 137 b 298 254 331 137 298 169 l 298 737 l 78 737 l 78 241 b 365 -23 78 58 210 -23 b 725 344 542 -23 725 81 b 685 737 725 498 706 625 l 469 737 "},"ң":{"x_min":86.109375,"x_max":838.890625,"ha":847,"o":"m 838 161 l 727 161 l 727 737 l 508 737 l 508 455 l 305 455 l 305 737 l 86 737 l 86 0 l 305 0 l 305 293 l 508 293 l 508 0 l 662 0 l 687 -230 l 838 -230 l 838 161 "},"ņ":{"x_min":86.03125,"x_max":722.0625,"ha":801,"o":"m 517 761 b 292 649 426 761 355 723 l 277 737 l 86 737 l 86 0 l 305 0 l 305 504 b 433 599 344 565 384 599 b 502 501 476 599 502 579 l 502 0 l 722 0 l 722 538 b 517 761 722 679 645 761 m 402 -94 b 292 -201 340 -94 292 -143 b 338 -291 292 -241 312 -270 l 301 -451 l 410 -451 l 474 -318 b 512 -201 501 -265 512 -237 b 402 -94 512 -140 465 -94 "},"µ":{"x_min":85.6875,"x_max":745.40625,"ha":808,"o":"m 745 0 b 712 252 728 58 712 141 l 712 737 l 492 737 l 492 234 b 374 147 457 172 414 147 b 305 231 335 147 305 166 l 305 737 l 85 737 l 85 -306 l 294 -285 l 294 -157 b 238 47 294 -59 270 -11 b 362 -11 270 0 316 -11 b 512 94 423 -11 473 30 b 544 -23 520 44 525 15 l 745 0 "},"ỳ":{"x_min":-8,"x_max":728,"ha":719,"o":"m 568 976 l 265 1159 l 179 995 l 507 863 l 568 976 m 728 737 l 501 737 l 357 140 l 225 737 l -8 737 l 216 0 l 291 0 b 54 -154 251 -94 198 -136 l 78 -308 b 493 -1 310 -295 434 -187 l 728 737 "},"Ҫ":{"x_min":45.71875,"x_max":787.390625,"ha":799,"o":"m 684 233 b 497 152 629 190 573 152 b 284 483 369 152 284 251 b 492 818 284 719 370 818 b 665 748 559 818 613 793 l 776 880 b 479 986 697 947 609 986 b 45 483 231 986 45 805 b 413 -19 45 184 190 11 b 511 -163 488 -66 511 -116 b 433 -234 511 -205 486 -234 b 347 -212 394 -234 367 -223 l 304 -322 b 455 -356 344 -343 394 -356 b 661 -184 576 -356 661 -293 b 548 -19 661 -113 619 -59 b 787 100 652 -4 734 45 l 684 233 "},"қ":{"x_min":86.46875,"x_max":773.96875,"ha":761,"o":"m 773 161 l 679 161 l 553 395 l 748 737 l 537 737 l 378 450 l 305 450 l 305 737 l 86 737 l 86 0 l 305 0 l 305 316 l 372 316 l 533 0 l 596 0 l 621 -230 l 773 -230 l 773 161 "},"Ι":{"x_min":90.28125,"x_max":318.0625,"ha":408,"o":"m 318 0 l 318 962 l 90 962 l 90 0 l 318 0 "},"Ύ":{"x_min":-291.671875,"x_max":834.71875,"ha":825,"o":"m -29 962 l -238 1005 l -291 672 l -150 648 l -29 962 m 526 361 l 834 962 l 594 962 l 416 538 l 238 962 l -9 962 l 298 359 l 298 0 l 526 0 l 526 361 "},"ѕ":{"x_min":7.9375,"x_max":644.046875,"ha":671,"o":"m 345 761 b 44 536 159 761 44 662 b 262 305 44 422 116 347 b 417 201 395 268 417 252 b 309 133 417 158 377 133 b 116 206 238 133 170 162 l 7 86 b 316 -23 80 20 188 -23 b 644 219 499 -23 644 66 b 416 454 644 351 562 412 b 264 548 284 493 264 509 b 360 604 264 581 294 604 b 535 545 417 604 478 583 l 616 670 b 345 761 548 726 452 761 "},"Ш":{"x_min":90.28125,"x_max":1173.609375,"ha":1263,"o":"m 1173 0 l 1173 962 l 950 962 l 950 177 l 737 177 l 737 962 l 525 962 l 525 177 l 312 177 l 312 962 l 90 962 l 90 0 l 1173 0 "},"M":{"x_min":45.828125,"x_max":1045.828125,"ha":1101,"o":"m 1045 0 l 973 962 l 684 962 l 550 310 l 405 962 l 118 962 l 45 0 l 268 0 l 284 374 b 280 769 290 508 290 628 l 438 101 l 654 101 l 802 769 b 805 376 795 650 798 511 l 822 0 l 1045 0 "},"Ψ":{"x_min":26.390625,"x_max":983.328125,"ha":1011,"o":"m 983 962 l 765 962 l 765 591 b 609 411 765 488 718 430 l 609 962 l 401 962 l 401 409 b 245 591 288 429 245 486 l 245 962 l 26 962 l 26 595 b 391 252 26 402 147 281 l 391 0 l 619 0 l 619 252 b 983 597 859 283 983 406 l 983 962 "},"ũ":{"x_min":78.890625,"x_max":708.109375,"ha":794,"o":"m 478 882 b 655 1045 556 882 619 951 l 545 1099 b 473 1038 523 1059 503 1038 b 312 1101 427 1038 398 1101 b 133 936 228 1101 167 1025 l 242 883 b 316 944 265 922 283 944 b 478 882 362 944 390 882 m 708 0 l 708 737 l 488 737 l 488 225 b 369 138 456 169 415 138 b 298 236 323 138 298 161 l 298 737 l 78 737 l 78 208 b 284 -23 78 65 146 -23 b 508 93 381 -23 453 15 l 517 0 l 708 0 "},"ŭ":{"x_min":78.84375,"x_max":708.15625,"ha":794,"o":"m 392 877 b 633 1118 538 877 622 984 l 512 1138 b 392 1030 494 1072 456 1030 b 274 1138 328 1030 291 1072 l 153 1118 b 392 877 164 984 246 877 m 708 0 l 708 737 l 488 737 l 488 225 b 369 138 456 169 415 138 b 298 236 323 138 298 161 l 298 737 l 78 737 l 78 208 b 284 -23 78 65 146 -23 b 508 93 381 -23 453 15 l 517 0 l 708 0 "},"₍":{"x_min":143.0625,"x_max":408.328125,"ha":551,"o":"m 311 439 b 143 -18 223 316 143 190 b 311 -475 143 -226 223 -352 l 408 -409 b 298 -18 337 -299 298 -184 b 408 373 298 148 337 263 l 311 439 "},"―":{"x_min":29.171875,"x_max":693.0625,"ha":722,"o":"m 29 519 l 29 350 l 693 350 l 693 519 l 29 519 "},"{":{"x_min":12.859375,"x_max":414.25,"ha":450,"o":"m 414 1166 b 103 937 164 1166 103 1088 l 103 688 b 12 575 103 608 85 575 l 12 395 b 103 283 85 395 103 363 l 103 34 b 414 -194 103 -115 164 -194 l 414 -41 b 308 41 332 -41 308 -18 l 308 300 b 164 484 308 422 254 465 b 308 672 255 508 308 548 l 308 930 b 414 1013 308 990 330 1013 l 414 1166 "},"¼":{"x_min":54.21875,"x_max":1309.5625,"ha":1346,"o":"m 1022 991 l 894 1054 l 323 -55 l 451 -118 l 1022 991 m 254 377 l 416 377 l 416 962 l 268 962 l 54 838 l 127 730 l 254 809 l 254 377 m 1309 116 l 1309 236 l 1245 236 l 1245 368 l 1120 368 l 1092 236 l 991 236 l 1130 548 l 992 598 l 824 225 l 824 116 l 1090 116 l 1090 0 l 1245 0 l 1245 116 l 1309 116 "},"ὶ":{"x_min":8.328125,"x_max":397.21875,"ha":383,"o":"m 397 976 l 94 1159 l 8 995 l 336 863 l 397 976 m 298 737 l 79 737 l 79 220 b 294 -24 79 69 152 0 l 358 134 b 298 248 313 155 298 181 l 298 737 "},"ι":{"x_min":79.171875,"x_max":358.328125,"ha":383,"o":"m 298 737 l 79 737 l 79 220 b 294 -24 79 69 152 0 l 358 134 b 298 248 313 155 298 181 l 298 737 "},"Ĳ":{"x_min":90.28125,"x_max":763.890625,"ha":849,"o":"m 318 0 l 318 962 l 90 962 l 90 0 l 318 0 m 763 962 l 536 962 l 536 154 b 393 -73 536 40 518 -25 l 454 -234 b 763 145 616 -181 763 -97 l 763 962 "},"Ê":{"x_min":90.03125,"x_max":680.296875,"ha":731,"o":"m 387 1165 l 571 1048 l 649 1138 l 453 1318 l 320 1318 l 123 1138 l 202 1048 l 387 1165 m 656 800 l 680 962 l 90 962 l 90 0 l 680 0 l 680 163 l 317 163 l 317 409 l 613 409 l 613 569 l 317 569 l 317 800 l 656 800 "},"Ά":{"x_min":-81.984375,"x_max":839,"ha":819,"o":"m 59 648 l 180 962 l -29 1005 l -81 672 l 59 648 m 547 206 l 597 0 l 839 0 l 548 962 l 272 962 l -18 0 l 218 0 l 266 206 l 547 206 m 508 372 l 305 372 l 406 797 l 508 372 "},")":{"x_min":16.671875,"x_max":425,"ha":451,"o":"m 16 1098 b 204 485 144 913 204 742 b 16 -126 204 229 144 58 l 156 -221 b 425 485 295 -27 425 154 b 156 1192 425 817 295 999 l 16 1098 "},"ε":{"x_min":44.0625,"x_max":663.5,"ha":667,"o":"m 370 761 b 71 562 191 761 71 687 b 241 393 71 479 127 415 b 44 202 113 377 44 316 b 366 -23 44 54 178 -23 b 663 65 487 -23 591 9 l 570 188 b 394 133 503 151 453 133 b 273 222 312 133 273 168 b 388 308 273 277 305 308 l 469 308 l 491 450 l 398 450 b 294 531 330 450 294 483 b 394 609 294 581 332 609 b 551 563 455 609 499 593 l 641 677 b 370 761 564 737 478 761 "},"э":{"x_min":15.328125,"x_max":630.609375,"ha":675,"o":"m 284 761 b 25 675 176 761 93 730 l 118 554 b 272 602 169 587 216 602 b 405 438 352 602 395 552 l 144 438 l 144 312 l 407 312 b 258 136 395 181 336 136 b 112 186 202 136 162 151 l 15 59 b 266 -23 84 6 165 -23 b 630 365 502 -23 630 131 b 284 761 630 604 497 761 "},"Ӷ":{"x_min":90.28125,"x_max":706.953125,"ha":708,"o":"m 318 783 l 681 783 l 706 962 l 90 962 l 90 0 l 245 0 l 270 -230 l 429 -230 l 429 173 l 318 173 l 318 783 "},"Ὸ":{"x_min":46.109375,"x_max":914.15625,"ha":960,"o":"m 666 1154 l 361 1327 l 278 1163 l 611 1043 l 666 1154 m 479 986 b 46 481 208 986 46 795 b 479 -23 46 161 208 -23 b 914 481 751 -23 914 166 b 479 986 914 802 751 986 m 479 819 b 675 481 608 819 675 725 b 479 143 675 237 609 143 b 284 481 354 143 284 237 b 479 819 284 725 351 819 "},"ӫ":{"x_min":44,"x_max":767,"ha":811,"o":"m 242 890 b 355 1000 306 890 355 938 b 242 1109 355 1061 306 1109 b 130 1000 180 1109 130 1061 b 242 890 130 938 180 890 m 565 890 b 678 1000 629 890 678 938 b 565 1109 678 1061 629 1109 b 452 1000 502 1109 452 1061 b 565 890 452 938 502 890 m 405 761 b 44 369 180 761 44 605 b 405 -23 44 120 181 -23 b 767 368 630 -23 767 131 b 405 761 767 616 630 761 m 405 600 b 542 436 484 600 529 551 l 269 436 b 405 600 280 548 324 600 m 405 137 b 267 313 321 137 277 190 l 542 313 b 405 137 532 191 487 137 "},"ш":{"x_min":86.109375,"x_max":1000,"ha":1086,"o":"m 1000 0 l 1000 737 l 790 737 l 790 161 l 636 161 l 636 737 l 448 737 l 448 161 l 295 161 l 295 737 l 86 737 l 86 0 l 1000 0 "},"Я":{"x_min":-2.140625,"x_max":750.625,"ha":839,"o":"m 750 962 l 429 962 b 35 654 167 962 35 858 b 204 387 35 519 95 434 l -2 0 l 247 0 l 408 347 l 521 347 l 521 0 l 750 0 l 750 962 m 521 505 l 418 505 b 272 648 333 505 272 552 b 442 802 272 748 327 802 l 521 802 l 521 505 "},"a":{"x_min":35.984375,"x_max":722.09375,"ha":761,"o":"m 672 499 b 366 760 672 670 580 760 b 88 706 283 760 181 741 l 138 562 b 331 601 212 587 284 601 b 456 487 422 601 456 574 l 456 455 l 381 455 b 35 206 158 455 35 367 b 276 -23 35 71 129 -23 b 498 87 363 -23 445 5 b 676 -19 531 13 588 -12 l 722 123 b 672 213 687 135 672 156 l 672 499 m 340 132 b 254 226 285 132 254 167 b 402 334 254 299 302 334 l 456 334 l 456 203 b 340 132 430 159 391 132 "},"Ę":{"x_min":90.265625,"x_max":680.546875,"ha":731,"o":"m 318 163 l 318 409 l 613 409 l 613 569 l 318 569 l 318 800 l 656 800 l 680 962 l 90 962 l 90 0 l 416 0 b 302 -179 344 -43 302 -101 b 506 -341 302 -279 388 -341 b 604 -330 544 -341 575 -337 l 619 -194 b 534 -205 587 -201 562 -205 b 461 -141 484 -205 461 -183 b 624 0 461 -102 488 -51 l 680 0 l 680 163 l 318 163 "},"Ӣ":{"x_min":90.328125,"x_max":831.671875,"ha":921,"o":"m 248 1081 l 671 1081 l 671 1234 l 248 1234 l 248 1081 m 831 0 l 831 962 l 562 962 l 280 226 b 313 596 295 319 313 420 l 313 962 l 90 962 l 90 0 l 363 0 l 640 739 b 608 359 624 653 608 527 l 608 0 l 831 0 "},"Z":{"x_min":24.96875,"x_max":718,"ha":756,"o":"m 711 790 l 711 962 l 68 962 l 68 786 l 451 786 l 24 170 l 24 0 l 695 0 l 718 181 l 293 181 l 711 790 "},"⁸":{"x_min":32.203125,"x_max":524.046875,"ha":556,"o":"m 403 759 b 501 893 472 796 501 847 b 278 1044 501 986 412 1044 b 55 884 144 1044 55 975 b 144 744 55 833 78 783 b 32 603 73 715 32 669 b 275 429 32 509 118 429 b 524 604 437 429 524 512 b 403 759 524 668 489 719 m 279 939 b 342 883 321 939 342 916 b 297 803 342 855 335 829 l 275 811 b 214 882 230 826 214 851 b 279 939 214 922 239 939 m 279 543 b 196 611 228 543 196 569 b 244 698 196 647 211 678 l 280 686 b 361 607 339 665 361 647 b 279 543 361 572 336 543 "},"ԧ":{"x_min":86.109375,"x_max":831.953125,"ha":836,"o":"m 831 161 l 722 161 l 722 455 b 518 678 722 596 645 678 b 305 580 431 678 363 644 l 305 1053 l 86 1030 l 86 0 l 305 0 l 305 421 b 433 516 344 482 384 516 b 502 418 476 516 502 496 l 502 0 l 654 0 l 680 -230 l 831 -230 l 831 161 "},"k":{"x_min":86.109375,"x_max":779.171875,"ha":767,"o":"m 305 0 l 305 1054 l 86 1030 l 86 0 l 305 0 m 537 413 l 761 737 l 537 737 l 312 402 l 531 0 l 779 0 l 537 413 "},"Ά":{"x_min":-18,"x_max":839,"ha":819,"o":"m 254 1043 l 587 1163 l 502 1327 l 198 1154 l 254 1043 m 547 206 l 597 0 l 839 0 l 548 962 l 272 962 l -18 0 l 218 0 l 266 206 l 547 206 m 508 372 l 305 372 l 407 797 l 508 372 "},"ί":{"x_min":-19.4375,"x_max":369.4375,"ha":383,"o":"m 369 995 l 283 1159 l -19 976 l 41 863 l 369 995 m 298 737 l 79 737 l 79 220 b 294 -24 79 69 152 0 l 358 134 b 298 248 313 155 298 181 l 298 737 "},"Ù":{"x_min":76.171875,"x_max":827.8125,"ha":904,"o":"m 637 1154 l 331 1327 l 248 1163 l 581 1043 l 637 1154 m 827 962 l 600 962 l 600 329 b 451 145 600 205 555 145 b 303 329 348 145 303 205 l 303 962 l 76 962 l 76 319 b 451 -23 76 116 199 -23 b 827 319 702 -23 827 125 l 827 962 "},"Ҷ":{"x_min":29.171875,"x_max":880.5625,"ha":890,"o":"m 880 173 l 766 173 l 766 962 l 541 962 l 541 505 b 393 451 506 472 462 451 b 254 615 297 451 254 501 l 254 962 l 29 962 l 29 612 b 327 281 29 409 140 281 b 541 355 413 281 477 305 l 541 0 l 697 0 l 722 -230 l 880 -230 l 880 173 "},"Ů":{"x_min":76.390625,"x_max":827.78125,"ha":904,"o":"m 451 1379 b 258 1197 331 1379 258 1295 b 451 1015 258 1098 331 1015 b 644 1197 570 1015 644 1098 b 451 1379 644 1295 570 1379 m 451 1266 b 513 1197 488 1266 513 1243 b 451 1127 513 1151 487 1127 b 388 1197 413 1127 388 1151 b 451 1266 388 1243 413 1266 m 827 962 l 600 962 l 600 329 b 451 145 600 205 555 145 b 304 329 348 145 304 205 l 304 962 l 76 962 l 76 319 b 451 -23 76 116 200 -23 b 827 319 702 -23 827 125 l 827 962 "},"¢":{"x_min":44.4375,"x_max":658.328125,"ha":665,"o":"m 558 204 b 420 150 509 166 473 150 b 275 363 333 150 275 200 b 423 593 275 529 329 593 b 562 538 473 593 516 576 l 658 670 b 480 755 605 715 548 743 l 480 959 l 323 959 l 323 752 b 44 362 150 716 44 566 b 322 -15 44 161 148 19 l 322 -223 l 480 -223 l 480 -18 b 658 63 550 -5 606 23 l 558 204 "},"В":{"x_min":90.0625,"x_max":819.234375,"ha":857,"o":"m 602 509 b 778 716 691 530 778 594 b 362 962 778 897 620 962 l 90 962 l 90 0 l 399 0 b 819 280 641 0 819 61 b 602 509 819 436 709 488 m 317 801 l 384 801 b 547 694 494 801 547 775 b 402 577 547 613 497 577 l 317 577 l 317 801 m 317 165 l 317 426 l 417 426 b 584 293 516 426 584 390 b 401 165 584 187 508 165 l 317 165 "},"І":{"x_min":90.28125,"x_max":318.0625,"ha":408,"o":"m 318 0 l 318 962 l 90 962 l 90 0 l 318 0 "},"ē":{"x_min":44.390625,"x_max":729.03125,"ha":769,"o":"m 604 909 l 604 1062 l 180 1062 l 180 909 l 604 909 m 729 383 b 388 761 729 622 599 761 b 44 365 165 761 44 586 b 415 -23 44 134 169 -23 b 702 79 534 -23 629 20 l 612 201 b 436 136 548 156 495 136 b 268 304 345 136 283 172 l 724 304 b 729 383 727 326 729 359 m 513 436 l 268 436 b 394 615 277 568 322 615 b 513 445 481 615 512 545 l 513 436 "},"ᾰ":{"x_min":47.078125,"x_max":798.46875,"ha":835,"o":"m 390 877 b 630 1118 535 877 619 984 l 509 1138 b 390 1030 491 1072 454 1030 b 272 1138 326 1030 288 1072 l 151 1118 b 390 877 162 984 244 877 m 349 761 b 47 362 158 761 47 594 b 327 -24 47 109 158 -24 b 556 156 441 -24 510 39 l 566 106 b 727 -24 584 26 642 -12 l 798 139 b 720 215 756 148 733 167 l 684 360 l 780 737 l 592 737 l 569 569 b 349 761 542 694 472 761 m 377 601 b 515 377 447 601 484 548 b 374 135 481 184 433 135 b 267 362 313 135 267 196 b 377 601 267 526 313 601 "},"β":{"x_min":86.484375,"x_max":807.3125,"ha":843,"o":"m 536 562 b 729 798 660 589 729 670 b 411 1053 729 945 607 1053 b 86 757 221 1053 86 945 l 86 -308 l 297 -277 l 297 38 b 485 -23 351 1 412 -23 b 807 287 676 -23 807 101 b 536 562 807 499 654 549 m 435 144 b 297 177 373 144 333 155 l 297 759 b 408 898 297 853 337 898 b 517 771 473 898 517 859 b 401 625 517 675 471 625 l 368 625 l 354 477 l 408 477 b 586 305 510 477 586 434 b 435 144 586 189 512 144 "},"Ό":{"x_min":46.109375,"x_max":914.171875,"ha":960,"o":"m 673 1163 l 589 1327 l 285 1154 l 340 1043 l 673 1163 m 479 986 b 46 481 208 986 46 795 b 479 -23 46 161 208 -23 b 914 481 751 -23 914 166 b 479 986 914 802 751 986 m 479 819 b 675 481 608 819 675 725 b 479 143 675 237 610 143 b 285 481 354 143 285 237 b 479 819 285 725 351 819 "},"⬇":{"x_min":83.328125,"x_max":916.671875,"ha":1000,"o":"m 387 1041 b 318 972 345 1041 318 1013 l 318 283 l 83 283 l 500 -130 l 916 283 l 681 283 l 681 972 b 612 1041 681 1013 654 1041 l 387 1041 "},"≠":{"x_min":67,"x_max":653,"ha":721,"o":"m 472 520 l 653 520 l 653 691 l 575 691 l 643 806 l 532 868 l 426 691 l 67 691 l 67 520 l 323 520 l 251 400 l 67 400 l 67 229 l 150 229 l 78 109 l 190 47 l 298 229 l 653 229 l 653 400 l 400 400 l 472 520 "},"Ғ":{"x_min":-5.5625,"x_max":719.453125,"ha":721,"o":"m 330 783 l 695 783 l 719 962 l 102 962 l 102 590 l -5 590 l -5 454 l 102 454 l 102 0 l 330 0 l 330 454 l 527 454 l 527 590 l 330 590 l 330 783 "},"¥":{"x_min":-9.71875,"x_max":800,"ha":789,"o":"m 554 488 l 800 938 l 573 938 l 400 548 l 223 938 l -9 938 l 236 488 l 102 488 l 102 375 l 286 375 l 286 275 l 102 275 l 102 161 l 286 161 l 286 0 l 505 0 l 505 161 l 690 161 l 690 275 l 505 275 l 505 375 l 690 375 l 690 488 l 554 488 "},"Ĥ":{"x_min":90.109375,"x_max":834.890625,"ha":925,"o":"m 462 1165 l 647 1048 l 725 1138 l 529 1318 l 395 1318 l 198 1138 l 277 1048 l 462 1165 m 607 412 l 607 0 l 834 0 l 834 962 l 607 962 l 607 590 l 317 590 l 317 962 l 90 962 l 90 0 l 317 0 l 317 412 l 607 412 "},"U":{"x_min":76.390625,"x_max":827.78125,"ha":904,"o":"m 827 962 l 600 962 l 600 329 b 451 145 600 205 555 145 b 304 329 348 145 304 205 l 304 962 l 76 962 l 76 319 b 451 -23 76 116 200 -23 b 827 319 702 -23 827 125 l 827 962 "},"Ñ":{"x_min":90.125,"x_max":832.09375,"ha":921,"o":"m 551 1057 b 727 1220 629 1057 691 1126 l 618 1274 b 545 1213 595 1234 576 1213 b 384 1276 500 1213 470 1276 b 205 1111 301 1276 240 1200 l 315 1058 b 388 1119 337 1097 355 1119 b 551 1057 434 1119 462 1057 m 832 0 l 832 962 l 627 962 l 627 573 b 658 215 627 419 646 292 l 373 962 l 90 962 l 90 0 l 292 0 l 292 352 b 263 745 292 530 274 658 l 541 0 l 832 0 "},"F":{"x_min":90.28125,"x_max":663.890625,"ha":676,"o":"m 640 800 l 663 962 l 90 962 l 90 0 l 318 0 l 318 381 l 598 381 l 598 544 l 318 544 l 318 800 l 640 800 "},"Ӹ":{"x_min":90.28125,"x_max":1091.671875,"ha":1181,"o":"m 427 1065 b 540 1175 491 1065 540 1113 b 427 1284 540 1236 491 1284 b 315 1175 365 1284 315 1236 b 427 1065 315 1113 365 1065 m 750 1284 b 637 1175 687 1284 637 1236 b 750 1065 637 1113 687 1065 b 862 1175 813 1065 862 1113 b 750 1284 862 1236 813 1284 m 318 634 l 318 962 l 90 962 l 90 0 l 411 0 b 788 326 630 0 788 101 b 405 634 788 534 647 634 l 318 634 m 1091 962 l 863 962 l 863 0 l 1091 0 l 1091 962 m 318 165 l 318 476 l 386 476 b 551 323 498 476 551 426 b 391 165 551 211 493 165 l 318 165 "},"Ԝ":{"x_min":13,"x_max":1163,"ha":1176,"o":"m 1001 0 l 1163 962 l 946 962 l 833 172 l 708 962 l 469 962 l 336 172 l 240 962 l 13 962 l 171 0 l 460 0 l 586 734 l 706 0 l 1001 0 "},"Ќ":{"x_min":90.125,"x_max":873.46875,"ha":865,"o":"m 622 1163 l 537 1327 l 233 1154 l 288 1043 l 622 1163 m 609 526 l 847 962 l 623 962 l 423 584 l 317 584 l 317 962 l 90 962 l 90 0 l 317 0 l 317 418 l 417 418 l 624 0 l 873 0 l 609 526 "},"∕":{"x_min":-232,"x_max":467,"ha":235,"o":"m 467 991 l 339 1054 l -232 -55 l -104 -118 l 467 991 "},"‏":{"x_min":-177.78125,"x_max":11.109375,"ha":0,"o":"m -83 1129 l -101 1141 l -177 1041 l -101 941 l -83 954 l -143 1030 l -11 1030 l -11 -208 l 11 -208 l 11 1052 l -143 1052 l -83 1129 "},"Ᾰ":{"x_min":-18,"x_max":839,"ha":819,"o":"m 395 1043 b 636 1268 541 1043 625 1150 l 515 1288 b 395 1194 497 1236 459 1194 b 277 1288 332 1194 294 1236 l 157 1268 b 395 1043 168 1150 250 1043 m 547 206 l 597 0 l 839 0 l 548 962 l 272 962 l -18 0 l 218 0 l 266 206 l 547 206 m 508 372 l 305 372 l 407 797 l 508 372 "},"å":{"x_min":35.984375,"x_max":722.09375,"ha":761,"o":"m 376 839 b 569 1021 495 839 569 923 b 376 1203 569 1120 495 1203 b 183 1021 256 1203 183 1120 b 376 839 183 923 256 839 m 376 1091 b 438 1021 413 1091 438 1067 b 376 952 438 976 412 952 b 313 1021 338 952 313 976 b 376 1091 313 1067 338 1091 m 672 499 b 366 760 672 670 580 760 b 88 706 283 760 181 741 l 138 562 b 331 601 212 587 284 601 b 456 487 422 601 456 574 l 456 455 l 381 455 b 35 206 158 455 35 367 b 276 -23 35 71 129 -23 b 498 87 363 -23 445 5 b 676 -19 531 13 588 -12 l 722 123 b 672 213 687 135 672 156 l 672 499 m 340 132 b 254 226 285 132 254 167 b 402 334 254 299 302 334 l 456 334 l 456 203 b 340 132 430 159 391 132 "},"Ϋ":{"x_min":-9.71875,"x_max":834.71875,"ha":825,"o":"m 251 1284 b 138 1175 188 1284 138 1236 b 251 1065 138 1113 188 1065 b 363 1175 315 1065 363 1113 b 251 1284 363 1236 315 1284 m 573 1284 b 461 1175 511 1284 461 1236 b 573 1065 461 1113 511 1065 b 686 1175 637 1065 686 1113 b 573 1284 686 1236 637 1284 m 526 361 l 834 962 l 594 962 l 416 538 l 238 962 l -9 962 l 298 359 l 298 0 l 526 0 l 526 361 "},"0":{"x_min":52.78125,"x_max":761.109375,"ha":813,"o":"m 406 958 b 52 468 176 958 52 783 b 406 -23 52 154 176 -23 b 761 468 637 -23 761 154 b 406 958 761 783 637 958 m 406 795 b 536 468 497 795 536 723 b 406 138 536 213 497 138 b 277 468 315 138 277 219 b 406 795 277 716 315 795 "},"ō":{"x_min":44.4375,"x_max":766.671875,"ha":811,"o":"m 193 909 l 616 909 l 616 1062 l 193 1062 l 193 909 m 405 761 b 44 369 180 761 44 605 b 405 -23 44 120 181 -23 b 766 368 630 -23 766 131 b 405 761 766 616 630 761 m 405 600 b 538 368 494 600 538 531 b 405 137 538 208 494 137 b 272 369 316 137 272 205 b 405 600 272 529 316 600 "},"”":{"x_min":43.125,"x_max":569.78125,"ha":622,"o":"m 168 1063 b 50 952 101 1063 50 1015 b 101 856 50 908 69 879 l 43 638 l 155 638 l 244 822 b 284 951 273 881 284 915 b 168 1063 284 1015 234 1063 m 453 1063 b 335 952 387 1063 335 1015 b 386 856 335 908 354 879 l 329 638 l 442 638 l 529 822 b 569 951 558 881 569 915 b 453 1063 569 1015 519 1063 "},"Ῠ":{"x_min":-9.71875,"x_max":834.71875,"ha":825,"o":"m 412 1043 b 652 1268 558 1043 641 1150 l 531 1288 b 412 1194 513 1236 476 1194 b 294 1288 348 1194 311 1236 l 173 1268 b 412 1043 184 1150 266 1043 m 526 361 l 834 962 l 594 962 l 416 538 l 238 962 l -9 962 l 298 359 l 298 0 l 526 0 l 526 361 "},"Ӕ":{"x_min":-32,"x_max":1127.984375,"ha":1174,"o":"m 1127 163 l 808 163 l 758 406 l 1064 406 l 1064 566 l 725 566 l 677 800 l 1052 800 l 1076 962 l 345 962 l -32 0 l 212 0 l 281 206 l 580 206 l 616 0 l 1127 0 l 1127 163 m 552 372 l 337 372 l 479 795 l 552 372 "},"ö":{"x_min":44.4375,"x_max":766.671875,"ha":811,"o":"m 244 1109 b 131 1000 181 1109 131 1061 b 244 890 131 938 181 890 b 356 1000 308 890 356 938 b 244 1109 356 1061 308 1109 m 566 1109 b 454 1000 504 1109 454 1061 b 566 890 454 938 504 890 b 679 1000 630 890 679 938 b 566 1109 679 1061 630 1109 m 405 761 b 44 369 180 761 44 605 b 405 -23 44 120 181 -23 b 766 368 630 -23 766 131 b 405 761 766 616 630 761 m 405 600 b 538 368 494 600 538 531 b 405 137 538 208 494 137 b 272 369 316 137 272 205 b 405 600 272 529 316 600 "},"ć":{"x_min":44.296875,"x_max":658.1875,"ha":665,"o":"m 584 995 l 498 1159 l 195 976 l 256 863 l 584 995 m 405 761 b 44 362 184 761 44 597 b 409 -23 44 129 183 -23 b 658 63 510 -23 590 9 l 558 204 b 420 150 509 166 473 150 b 274 363 333 150 274 200 b 423 593 274 529 329 593 b 562 538 473 593 516 576 l 658 670 b 405 761 587 730 508 761 "},"þ":{"x_min":86.109375,"x_max":777.78125,"ha":829,"o":"m 498 761 b 305 668 436 761 363 736 l 305 1054 l 86 1030 l 86 -308 l 305 -283 l 305 52 b 484 -23 351 1 412 -23 b 777 370 666 -23 777 142 b 498 761 777 609 693 761 m 418 137 b 305 202 372 137 336 157 l 305 513 b 429 599 337 567 380 599 b 550 367 505 599 550 551 b 418 137 550 202 500 137 "},"]":{"x_min":34.71875,"x_max":402.78125,"ha":450,"o":"m 402 -170 l 402 1143 l 34 1143 l 34 979 l 194 979 l 194 -6 l 34 -6 l 34 -170 l 402 -170 "},"А":{"x_min":-18,"x_max":839,"ha":819,"o":"m 547 206 l 597 0 l 839 0 l 548 962 l 272 962 l -18 0 l 218 0 l 266 206 l 547 206 m 508 372 l 305 372 l 407 797 l 508 372 "},"Ы":{"x_min":90.28125,"x_max":1091.671875,"ha":1181,"o":"m 318 634 l 318 962 l 90 962 l 90 0 l 411 0 b 788 326 630 0 788 101 b 405 634 788 534 647 634 l 318 634 m 1091 962 l 863 962 l 863 0 l 1091 0 l 1091 962 m 318 165 l 318 476 l 386 476 b 551 323 498 476 551 426 b 391 165 551 211 493 165 l 318 165 "},"ẁ":{"x_min":6,"x_max":1034,"ha":1040,"o":"m 729 976 l 426 1159 l 340 995 l 668 863 l 729 976 m 881 0 l 1034 737 l 824 737 l 735 164 l 633 737 l 419 737 l 304 164 l 228 737 l 6 737 l 162 0 l 422 0 l 520 541 l 618 0 l 881 0 "},"ĭ":{"x_min":-44.4375,"x_max":434.71875,"ha":392,"o":"m 194 877 b 434 1118 340 877 423 984 l 313 1138 b 194 1030 295 1072 258 1030 b 76 1138 130 1030 93 1072 l -44 1118 b 194 877 -33 984 48 877 m 305 0 l 305 737 l 86 737 l 86 0 l 305 0 "},"8":{"x_min":40.828125,"x_max":765.75,"ha":807,"o":"m 579 504 b 729 716 683 559 729 636 b 404 958 729 869 590 958 b 78 705 215 958 78 856 b 215 483 78 619 115 541 b 40 250 107 436 40 361 b 399 -23 40 100 172 -23 b 765 254 632 -23 765 102 b 579 504 765 361 707 443 m 406 809 b 517 705 479 809 517 766 b 433 559 517 647 500 602 l 404 570 b 290 702 328 602 290 637 b 406 809 290 773 336 809 m 406 133 b 261 261 317 133 261 183 b 356 423 261 331 292 387 l 401 406 b 546 255 507 368 546 331 b 406 133 546 187 499 133 "},"Ӝ":{"x_min":-9.71875,"x_max":1268.0625,"ha":1257,"o":"m 466 1284 b 354 1175 404 1284 354 1236 b 466 1065 354 1113 404 1065 b 579 1175 530 1065 579 1113 b 466 1284 579 1236 530 1284 m 788 1284 b 676 1175 726 1284 676 1236 b 788 1065 676 1113 726 1065 b 901 1175 852 1065 901 1113 b 788 1284 901 1236 852 1284 m 1001 526 l 1241 962 l 1019 962 l 815 581 l 733 581 l 733 962 l 523 962 l 523 581 l 441 581 l 240 962 l 15 962 l 255 526 l -9 0 l 231 0 l 436 420 l 523 420 l 523 0 l 733 0 l 733 420 l 818 420 l 1020 0 l 1268 0 l 1001 526 "},"R":{"x_min":90.671875,"x_max":861.5,"ha":857,"o":"m 407 368 l 604 0 l 861 0 l 617 409 b 801 669 742 466 801 543 b 405 962 801 869 667 962 l 90 962 l 90 0 l 318 0 l 318 368 l 407 368 m 318 525 l 318 802 l 400 802 b 567 669 512 802 567 762 b 414 525 567 568 514 525 l 318 525 "},"Ż":{"x_min":25.046875,"x_max":718.109375,"ha":756,"o":"m 383 1301 b 254 1176 307 1301 254 1247 b 383 1051 254 1105 307 1051 b 513 1176 459 1051 513 1105 b 383 1301 513 1247 459 1301 m 711 790 l 711 962 l 68 962 l 68 786 l 451 786 l 25 170 l 25 0 l 695 0 l 718 181 l 293 181 l 711 790 "},"Ң":{"x_min":90.28125,"x_max":945.828125,"ha":957,"o":"m 945 173 l 834 173 l 834 962 l 606 962 l 606 590 l 318 590 l 318 962 l 90 962 l 90 0 l 318 0 l 318 412 l 606 412 l 606 0 l 762 0 l 788 -230 l 945 -230 l 945 173 "},"⅙":{"x_min":54.21875,"x_max":1305.90625,"ha":1346,"o":"m 1022 991 l 894 1054 l 323 -55 l 451 -117 l 1022 991 m 254 378 l 416 378 l 416 962 l 268 962 l 54 838 l 127 730 l 254 809 l 254 378 m 1128 394 b 1003 344 1085 394 1041 380 b 1115 485 1010 439 1053 485 b 1196 462 1147 485 1171 476 l 1255 558 b 1111 598 1221 582 1171 598 b 829 264 936 598 829 465 b 1072 -16 829 96 904 -16 b 1305 200 1221 -16 1305 86 b 1128 394 1305 323 1232 394 m 1075 98 b 1004 258 1022 98 1005 140 b 1076 289 1028 279 1053 289 b 1139 198 1119 289 1139 267 b 1075 98 1139 139 1119 98 "},"ħ":{"x_min":4.171875,"x_max":726.390625,"ha":806,"o":"m 520 761 b 308 658 434 761 368 726 l 308 827 l 484 827 l 502 955 l 308 955 l 308 1053 l 88 1030 l 88 955 l 4 955 l 4 827 l 88 827 l 88 0 l 308 0 l 308 505 b 436 599 347 565 388 599 b 506 501 477 599 506 579 l 506 0 l 726 0 l 726 538 b 520 761 726 679 648 761 "},"õ":{"x_min":44.09375,"x_max":766.90625,"ha":811,"o":"m 490 882 b 666 1045 568 882 630 951 l 557 1099 b 484 1038 534 1059 515 1038 b 323 1101 438 1038 409 1101 b 144 936 240 1101 178 1025 l 253 883 b 327 944 276 922 294 944 b 490 882 373 944 401 882 m 405 761 b 44 369 180 761 44 605 b 405 -23 44 120 181 -23 b 766 368 630 -23 766 132 b 405 761 766 616 630 761 m 405 600 b 538 368 494 600 538 532 b 405 137 538 208 494 137 b 272 369 316 137 272 205 b 405 600 272 529 316 600 "},"ҭ":{"x_min":2.78125,"x_max":663.890625,"ha":656,"o":"m 437 575 l 637 575 l 663 737 l 2 737 l 2 575 l 218 575 l 218 0 l 372 0 l 397 -230 l 550 -230 l 550 161 l 437 161 l 437 575 "},"ғ":{"x_min":12.5,"x_max":622.21875,"ha":617,"o":"m 320 570 l 597 570 l 622 737 l 101 737 l 101 426 l 12 426 l 12 302 l 101 302 l 101 0 l 320 0 l 320 302 l 470 302 l 470 426 l 320 426 l 320 570 "},"˙":{"x_min":41.671875,"x_max":301.390625,"ha":343,"o":"m 170 1126 b 41 1001 94 1126 41 1072 b 170 876 41 930 94 876 b 301 1001 247 876 301 930 b 170 1126 301 1072 247 1126 "},"ê":{"x_min":44.390625,"x_max":729.03125,"ha":769,"o":"m 206 861 l 393 988 l 577 861 l 655 951 l 459 1141 l 324 1141 l 129 951 l 206 861 m 729 383 b 388 761 729 622 599 761 b 44 365 165 761 44 586 b 415 -23 44 134 169 -23 b 702 79 534 -23 629 20 l 612 201 b 436 136 548 156 495 136 b 268 304 345 136 283 172 l 724 304 b 729 383 727 326 729 359 m 513 436 l 268 436 b 394 615 277 568 322 615 b 513 445 481 615 512 545 l 513 436 "},"„":{"x_min":43.125,"x_max":569.78125,"ha":622,"o":"m 168 197 b 50 86 101 197 50 150 b 101 -9 50 43 69 12 l 43 -226 l 155 -226 l 244 -44 b 284 84 273 16 284 48 b 168 197 284 150 234 197 m 453 197 b 335 86 387 197 335 150 b 386 -9 335 43 354 12 l 329 -226 l 442 -226 l 529 -44 b 569 84 558 16 569 48 b 453 197 569 150 519 197 "},"ΐ":{"x_min":-92.828125,"x_max":469.875,"ha":383,"o":"m 392 1213 l 311 1379 l 1 1211 l 57 1100 l 392 1213 m 19 1069 b -92 959 -45 1069 -92 1020 b 19 850 -92 898 -45 850 b 130 959 80 850 130 898 b 19 1069 130 1020 80 1069 m 357 1069 b 246 959 294 1069 246 1020 b 357 850 246 898 294 850 b 469 959 419 850 469 898 b 357 1069 469 1020 419 1069 m 298 737 l 79 737 l 79 220 b 294 -24 79 69 153 0 l 358 134 b 298 248 314 155 298 181 l 298 737 "},"ӷ":{"x_min":86.109375,"x_max":608.328125,"ha":601,"o":"m 305 570 l 581 570 l 608 737 l 86 737 l 86 0 l 238 0 l 263 -230 l 416 -230 l 416 161 l 305 161 l 305 570 "},"ч":{"x_min":41.671875,"x_max":679.171875,"ha":765,"o":"m 679 737 l 459 737 l 459 415 b 336 368 429 388 380 368 b 261 462 288 368 261 392 l 261 737 l 41 737 l 41 435 b 252 206 41 296 108 206 b 459 277 333 206 408 234 l 459 0 l 679 0 l 679 737 "},"δ":{"x_min":44.921875,"x_max":756.921875,"ha":801,"o":"m 469 719 b 330 834 347 769 330 790 b 432 901 330 872 358 901 b 583 852 490 901 534 883 l 683 969 b 416 1054 620 1016 533 1054 b 119 841 210 1054 119 954 b 257 641 119 766 143 705 b 44 334 121 577 44 475 b 400 -23 44 111 180 -23 b 756 344 619 -23 756 123 b 469 719 756 543 665 640 m 400 137 b 271 343 311 137 271 204 b 369 588 271 452 294 526 b 529 345 502 527 529 479 b 400 137 529 202 484 137 "},"Â":{"x_min":-18,"x_max":839,"ha":819,"o":"m 226 1048 l 411 1165 l 595 1048 l 673 1138 l 477 1318 l 344 1318 l 147 1138 l 226 1048 m 547 206 l 597 0 l 839 0 l 548 962 l 272 962 l -18 0 l 218 0 l 266 206 l 547 206 m 508 372 l 305 372 l 407 797 l 508 372 "},"Į":{"x_min":-43.546875,"x_max":318.953125,"ha":408,"o":"m 318 962 l 91 962 l 91 11 b -43 -179 6 -33 -43 -93 b 160 -341 -43 -279 42 -341 b 257 -330 198 -341 228 -337 l 273 -194 b 188 -205 241 -201 216 -205 b 114 -141 138 -205 114 -183 b 278 0 114 -102 142 -51 l 318 0 l 318 962 "},"ҫ":{"x_min":44.34375,"x_max":658.328125,"ha":665,"o":"m 558 204 b 420 150 509 166 473 150 b 274 363 333 150 274 200 b 423 593 274 529 329 593 b 562 538 473 593 516 576 l 658 670 b 405 761 587 730 508 761 b 44 362 184 761 44 597 b 322 -15 44 161 148 19 b 424 -163 401 -65 424 -116 b 347 -234 424 -205 399 -234 b 261 -212 308 -234 281 -223 l 217 -322 b 369 -356 258 -343 308 -356 b 575 -184 490 -356 575 -293 b 463 -20 575 -113 534 -61 b 658 63 540 -9 602 19 l 558 204 "},"ω":{"x_min":51.390625,"x_max":1023.609375,"ha":1075,"o":"m 736 737 b 809 355 779 605 809 481 b 716 137 809 186 769 137 b 638 259 670 137 638 162 l 638 519 l 436 493 l 436 259 b 359 137 436 155 404 137 b 266 361 300 137 266 195 b 337 737 266 481 295 605 l 137 737 b 51 336 90 631 51 500 b 323 -23 51 84 165 -23 b 537 143 443 -23 506 23 b 748 -23 562 25 633 -23 b 1023 336 906 -23 1023 87 b 936 737 1023 500 983 631 l 736 737 "},"Ţ":{"x_min":12.40625,"x_max":748.59375,"ha":750,"o":"m 488 787 l 726 787 l 748 962 l 12 962 l 12 787 l 261 787 l 261 0 l 366 0 l 348 -155 b 476 -201 437 -155 476 -169 b 406 -244 476 -233 448 -244 b 322 -220 374 -244 349 -234 l 272 -322 b 426 -363 305 -344 362 -363 b 634 -204 552 -363 634 -298 b 488 -66 634 -129 587 -77 l 488 787 "},"₎":{"x_min":143.0625,"x_max":408.328125,"ha":551,"o":"m 143 373 b 252 -18 212 263 252 148 b 143 -409 252 -184 212 -300 l 240 -475 b 408 -18 327 -352 408 -226 b 240 438 408 190 327 316 l 143 373 "},"₄":{"x_min":34.828125,"x_max":519.5625,"ha":556,"o":"m 519 -168 l 519 -48 l 455 -48 l 455 83 l 330 83 l 302 -48 l 201 -48 l 340 263 l 202 313 l 34 -59 l 34 -168 l 300 -168 l 300 -284 l 455 -284 l 455 -168 l 519 -168 "},"´":{"x_min":42,"x_max":431,"ha":472,"o":"m 431 996 l 344 1160 l 42 976 l 103 864 l 431 996 "},"Ĉ":{"x_min":46.09375,"x_max":787.75,"ha":799,"o":"m 491 1165 l 676 1048 l 754 1138 l 558 1318 l 425 1318 l 228 1138 l 307 1048 l 491 1165 m 479 986 b 46 483 232 986 46 805 b 486 -23 46 154 222 -23 b 787 100 619 -23 725 36 l 684 233 b 497 152 629 190 573 152 b 284 483 369 152 284 251 b 493 818 284 719 371 818 b 665 748 559 818 614 793 l 776 880 b 479 986 697 947 609 986 "},"ώ":{"x_min":51.390625,"x_max":1023.609375,"ha":1075,"o":"m 718 995 l 631 1159 l 329 976 l 390 863 l 718 995 m 736 737 b 809 355 779 605 809 481 b 716 137 809 186 769 137 b 638 259 670 137 638 162 l 638 519 l 436 493 l 436 259 b 359 137 436 155 404 137 b 266 361 300 137 266 195 b 337 737 266 481 295 605 l 137 737 b 51 336 90 631 51 500 b 323 -23 51 84 165 -23 b 537 143 443 -23 506 23 b 748 -23 562 25 633 -23 b 1023 336 906 -23 1023 87 b 936 737 1023 500 983 631 l 736 737 "},"И":{"x_min":90.328125,"x_max":831.671875,"ha":921,"o":"m 831 0 l 831 962 l 562 962 l 280 226 b 313 596 295 319 313 420 l 313 962 l 90 962 l 90 0 l 363 0 l 640 739 b 608 359 624 653 608 527 l 608 0 l 831 0 "},"Љ":{"x_min":2.78125,"x_max":1272.21875,"ha":1294,"o":"m 801 634 l 801 962 l 201 962 l 143 474 b 2 135 115 245 104 176 l 56 -24 b 356 463 265 21 320 151 l 393 790 l 573 790 l 573 0 l 894 0 b 1272 326 1113 0 1272 101 b 888 634 1272 534 1130 634 l 801 634 m 801 164 l 801 476 l 869 476 b 1034 323 981 476 1034 426 b 876 164 1034 210 976 164 l 801 164 "},"р":{"x_min":86.109375,"x_max":777.78125,"ha":829,"o":"m 498 761 b 290 655 430 761 351 731 l 279 737 l 86 737 l 86 -308 l 305 -284 l 305 52 b 484 -23 351 1 412 -23 b 777 370 666 -23 777 142 b 498 761 777 609 693 761 m 418 137 b 305 202 372 137 336 157 l 305 513 b 429 599 337 567 380 599 b 550 367 505 599 550 551 b 418 137 550 202 500 137 "},"Ω":{"x_min":46.09375,"x_max":913.734375,"ha":960,"o":"m 479 986 b 46 523 208 986 46 788 b 229 165 46 348 108 231 l 75 165 l 75 0 l 426 0 l 426 155 b 284 523 311 208 284 308 b 479 819 284 720 351 819 b 674 525 608 819 674 720 b 531 155 674 315 651 206 l 531 0 l 883 0 l 883 165 l 726 165 b 913 525 852 236 913 351 b 479 986 913 791 752 986 "},"т":{"x_min":2.78125,"x_max":663.890625,"ha":656,"o":"m 637 575 l 663 737 l 2 737 l 2 575 l 218 575 l 218 0 l 437 0 l 437 575 l 637 575 "},"П":{"x_min":90.28125,"x_max":831.953125,"ha":922,"o":"m 831 0 l 831 962 l 90 962 l 90 0 l 318 0 l 318 787 l 604 787 l 604 0 l 831 0 "},"Ö":{"x_min":45.828125,"x_max":913.890625,"ha":960,"o":"m 319 1284 b 206 1175 256 1284 206 1236 b 319 1065 206 1113 256 1065 b 431 1175 383 1065 431 1113 b 319 1284 431 1236 383 1284 m 641 1284 b 529 1175 579 1284 529 1236 b 641 1065 529 1113 579 1065 b 754 1175 705 1065 754 1113 b 641 1284 754 1236 705 1284 m 479 986 b 45 481 208 986 45 795 b 479 -23 45 161 208 -23 b 913 481 751 -23 913 166 b 479 986 913 802 751 986 m 479 819 b 675 481 608 819 675 725 b 479 143 675 237 609 143 b 284 481 354 143 284 237 b 479 819 284 725 351 819 "},"z":{"x_min":17.75,"x_max":612,"ha":638,"o":"m 605 583 l 605 737 l 46 737 l 46 572 l 352 572 l 17 155 l 17 0 l 592 0 l 612 166 l 271 166 l 605 583 "},"™":{"x_min":40.359375,"x_max":1185.9375,"ha":1258,"o":"m 512 836 l 533 962 l 40 962 l 40 836 l 198 836 l 198 411 l 359 411 l 359 836 l 512 836 m 1185 411 l 1166 962 l 951 962 l 870 615 l 779 962 l 572 962 l 552 411 l 701 411 l 707 636 b 698 836 708 709 705 765 l 701 836 l 809 468 l 934 468 l 1031 837 l 1035 837 b 1026 636 1026 762 1023 719 l 1031 411 l 1185 411 "},"Θ":{"x_min":45.828125,"x_max":913.890625,"ha":960,"o":"m 479 986 b 45 481 208 986 45 795 b 479 -23 45 161 208 -23 b 913 481 751 -23 913 166 b 479 986 913 802 751 986 m 479 819 b 687 481 618 819 687 725 b 479 143 687 237 618 143 b 272 481 344 143 272 237 b 479 819 272 725 343 819 m 619 423 l 619 554 l 338 554 l 338 423 l 619 423 "},"Ř":{"x_min":90.671875,"x_max":861.578125,"ha":857,"o":"m 360 1041 l 493 1041 l 689 1220 l 611 1311 l 426 1194 l 242 1311 l 162 1220 l 360 1041 m 407 368 l 604 0 l 861 0 l 617 409 b 801 669 742 466 801 543 b 405 962 801 869 667 962 l 90 962 l 90 0 l 318 0 l 318 368 l 407 368 m 318 525 l 318 802 l 400 802 b 567 669 512 802 567 762 b 414 525 567 568 514 525 l 318 525 "},"Ň":{"x_min":90.125,"x_max":832.078125,"ha":921,"o":"m 730 1220 l 652 1311 l 468 1194 l 283 1311 l 204 1220 l 401 1041 l 534 1041 l 730 1220 m 832 0 l 832 962 l 627 962 l 627 573 b 658 215 627 419 646 292 l 373 962 l 90 962 l 90 0 l 292 0 l 292 352 b 263 745 292 530 274 658 l 541 0 l 832 0 "},"₊":{"x_min":80.5625,"x_max":476.390625,"ha":556,"o":"m 348 56 l 348 177 l 206 177 l 206 56 l 80 56 l 80 -65 l 206 -65 l 206 -184 l 348 -184 l 348 -65 l 476 -65 l 476 56 l 348 56 "},"É":{"x_min":90.09375,"x_max":680.375,"ha":731,"o":"m 578 1163 l 494 1327 l 190 1154 l 245 1043 l 578 1163 m 656 800 l 680 962 l 90 962 l 90 0 l 680 0 l 680 163 l 317 163 l 317 409 l 613 409 l 613 569 l 317 569 l 317 800 l 656 800 "},"ұ":{"x_min":-8.328125,"x_max":720.828125,"ha":713,"o":"m 500 115 l 720 737 l 495 737 l 361 191 l 231 737 l -8 737 l 212 115 l 115 115 l 115 -6 l 250 -6 l 250 -308 l 462 -284 l 462 -6 l 597 -6 l 597 115 l 500 115 "},"и":{"x_min":86.234375,"x_max":734.296875,"ha":821,"o":"m 734 0 l 734 737 l 508 737 l 266 210 b 295 471 280 264 295 365 l 295 737 l 86 737 l 86 0 l 309 0 l 555 526 b 526 262 541 472 526 376 l 526 0 l 734 0 "},"³":{"x_min":46.5,"x_max":510.390625,"ha":556,"o":"m 275 1044 b 57 961 189 1044 115 1015 l 139 875 b 256 923 174 906 213 923 b 329 866 300 923 329 904 b 250 806 329 827 302 806 l 214 806 l 196 695 l 247 695 b 340 623 310 695 340 675 b 254 554 340 576 304 554 b 136 608 209 554 172 569 l 46 522 b 267 429 95 465 165 429 b 510 608 427 429 510 513 b 360 754 510 704 446 748 b 489 897 447 776 489 826 b 275 1044 489 980 415 1044 "},"Ӫ":{"x_min":45.828125,"x_max":913.890625,"ha":960,"o":"m 318 1065 b 430 1175 381 1065 430 1113 b 318 1284 430 1236 381 1284 b 205 1175 255 1284 205 1236 b 318 1065 205 1113 255 1065 m 640 1065 b 752 1175 704 1065 752 1113 b 640 1284 752 1236 704 1284 b 527 1175 577 1284 527 1236 b 640 1065 527 1113 577 1065 m 479 986 b 45 481 208 986 45 795 b 479 -23 45 161 208 -23 b 913 481 751 -23 913 166 b 479 986 913 802 751 986 m 479 819 b 679 551 595 819 665 743 l 280 551 b 479 819 294 743 365 819 m 479 143 b 279 423 363 143 290 222 l 679 423 b 479 143 668 222 598 143 "},"[":{"x_min":47.21875,"x_max":415.28125,"ha":450,"o":"m 415 979 l 415 1143 l 47 1143 l 47 -170 l 415 -170 l 415 -8 l 255 -8 l 255 979 l 415 979 "},"⇪":{"x_min":83.328125,"x_max":916.671875,"ha":1000,"o":"m 318 741 l 318 354 l 681 354 l 681 741 l 916 741 l 500 1155 l 83 741 l 318 741 m 616 804 l 616 412 l 383 412 l 383 804 l 234 804 l 500 1066 l 765 804 l 616 804 m 681 215 l 318 215 l 318 52 b 387 -16 318 11 345 -16 l 612 -16 b 681 52 654 -16 681 11 l 681 215 m 383 44 l 383 156 l 616 156 l 616 44 l 383 44 "},"Ҝ":{"x_min":90.28125,"x_max":880.5625,"ha":876,"o":"m 880 0 l 641 526 l 854 962 l 630 962 l 463 577 l 441 577 l 441 795 l 355 795 l 355 577 l 308 577 l 308 962 l 90 962 l 90 0 l 308 0 l 308 426 l 355 426 l 355 204 l 441 204 l 441 426 l 466 426 l 631 0 l 880 0 "},"ζ":{"x_min":29.015625,"x_max":616.890625,"ha":582,"o":"m 589 1030 l 67 1030 l 44 872 l 237 872 b 425 899 300 872 387 883 b 29 354 159 736 29 517 b 265 36 29 178 101 108 b 377 -63 358 -3 377 -21 b 269 -177 377 -113 333 -142 l 351 -308 b 603 -41 522 -235 603 -157 b 419 167 603 73 530 119 b 257 357 300 215 257 257 b 616 914 257 508 329 672 l 589 1030 "},"∏":{"x_min":43.0625,"x_max":798.609375,"ha":840,"o":"m 706 772 l 798 772 l 798 939 l 43 939 l 43 772 l 136 772 l 136 -308 l 344 -284 l 344 772 l 500 772 l 500 -308 l 706 -284 l 706 772 "},"Έ":{"x_min":-201.390625,"x_max":680.5625,"ha":731,"o":"m 61 962 l -148 1005 l -201 672 l -59 648 l 61 962 m 656 800 l 680 962 l 90 962 l 90 0 l 680 0 l 680 163 l 318 163 l 318 409 l 613 409 l 613 569 l 318 569 l 318 800 l 656 800 "},"Ρ":{"x_min":90.28125,"x_max":802.78125,"ha":833,"o":"m 90 962 l 90 0 l 318 0 l 318 320 l 422 320 b 802 648 644 320 802 425 b 401 962 802 859 650 962 l 90 962 m 318 484 l 318 800 l 398 800 b 568 648 511 800 568 751 b 402 484 568 527 505 484 l 318 484 "},"ğ":{"x_min":7.25,"x_max":764.734375,"ha":765,"o":"m 381 877 b 621 1118 527 877 610 984 l 500 1138 b 381 1030 482 1072 445 1030 b 262 1138 317 1030 279 1072 l 141 1118 b 381 877 153 984 235 877 m 713 857 b 365 761 624 804 529 757 b 41 491 172 761 41 658 b 173 280 41 396 79 330 b 86 139 121 247 86 193 b 313 -6 86 59 151 -6 l 420 -6 b 525 -78 493 -6 525 -35 b 365 -162 525 -126 495 -162 b 204 -70 232 -162 204 -134 l 7 -70 b 360 -308 7 -216 80 -308 b 746 -63 613 -308 746 -215 b 464 150 746 59 636 150 l 353 150 b 272 194 282 150 272 172 b 296 236 272 211 281 228 b 381 228 322 230 350 228 b 691 475 572 228 691 332 b 552 665 691 570 645 625 b 764 694 645 665 713 673 l 713 857 m 371 616 b 482 497 445 616 482 579 b 371 369 482 412 443 369 b 260 494 304 369 260 414 b 371 616 260 570 303 616 "},"Ӏ":{"x_min":90.28125,"x_max":318.0625,"ha":408,"o":"m 318 0 l 318 962 l 90 962 l 90 0 l 318 0 "},"ª":{"x_min":65,"x_max":638.609375,"ha":694,"o":"m 396 733 l 345 733 b 65 543 163 733 65 666 b 259 367 65 440 140 367 b 437 447 327 367 395 389 b 587 371 470 396 519 376 l 627 498 b 590 562 601 507 590 523 l 590 759 b 334 962 590 894 515 962 b 106 919 267 962 181 947 l 151 794 b 303 823 209 812 269 823 b 396 748 373 823 396 807 l 396 733 m 321 505 b 265 558 283 505 265 526 b 365 629 265 605 296 629 l 396 629 l 396 542 b 321 505 378 521 353 505 m 638 169 l 70 169 l 70 0 l 638 0 l 638 169 "},"ї":{"x_min":-77.78125,"x_max":469.4375,"ha":392,"o":"m 34 1109 b -77 1000 -27 1109 -77 1061 b 34 890 -77 938 -27 890 b 147 1000 98 890 147 938 b 34 1109 147 1061 98 1109 m 356 1109 b 244 1000 294 1109 244 1061 b 356 890 244 938 294 890 b 469 1000 420 890 469 938 b 356 1109 469 1061 420 1109 m 305 0 l 305 737 l 86 737 l 86 0 l 305 0 "},"T":{"x_min":12.5,"x_max":748.609375,"ha":750,"o":"m 726 787 l 748 962 l 12 962 l 12 787 l 261 787 l 261 0 l 488 0 l 488 787 l 726 787 "},"š":{"x_min":7.921875,"x_max":644.046875,"ha":671,"o":"m 607 1038 l 530 1129 l 345 1002 l 160 1129 l 81 1038 l 278 848 l 412 848 l 607 1038 m 345 761 b 44 536 159 761 44 662 b 262 305 44 422 116 347 b 417 201 395 268 417 252 b 309 133 417 158 377 133 b 116 206 238 133 170 162 l 7 86 b 316 -23 80 20 188 -23 b 644 219 499 -23 644 66 b 416 454 644 351 562 412 b 264 548 284 493 264 509 b 360 604 264 581 294 604 b 535 545 417 604 478 583 l 616 670 b 345 761 548 726 452 761 "},"є":{"x_min":44.4375,"x_max":659.71875,"ha":675,"o":"m 422 136 b 266 312 336 136 272 184 l 531 312 l 531 438 l 266 438 b 420 602 273 552 330 602 b 565 548 470 602 515 587 l 659 670 b 406 761 590 730 508 761 b 44 363 186 761 44 598 b 415 -23 44 129 183 -23 b 659 63 511 -23 590 8 l 566 191 b 422 136 513 151 472 136 "},"Þ":{"x_min":90.28125,"x_max":802.78125,"ha":833,"o":"m 318 812 l 318 962 l 90 962 l 90 0 l 318 0 l 318 158 l 422 158 b 802 494 644 158 802 263 b 401 812 802 708 650 812 l 318 812 m 318 323 l 318 650 l 398 650 b 568 494 511 650 568 601 b 402 323 568 366 505 323 l 318 323 "},"j":{"x_min":-65.28125,"x_max":325,"ha":390,"o":"m 194 1126 b 65 1001 118 1126 65 1072 b 194 876 65 930 118 876 b 325 1001 270 876 325 930 b 194 1126 325 1072 270 1126 m 304 737 l 84 737 l 84 69 b -65 -147 84 -65 29 -104 l 8 -307 b 304 83 180 -244 304 -157 l 304 737 "},"Σ":{"x_min":28.890625,"x_max":669.15625,"ha":699,"o":"m 669 797 l 669 962 l 28 962 l 28 797 l 295 472 l 28 165 l 28 0 l 669 0 l 669 169 l 278 169 l 513 429 l 513 519 l 280 797 l 669 797 "},"1":{"x_min":18.0625,"x_max":530.5625,"ha":644,"o":"m 530 0 l 530 938 l 334 938 l 18 747 l 113 601 l 315 725 l 315 0 l 530 0 "},"Ү":{"x_min":-9.71875,"x_max":834.71875,"ha":825,"o":"m 526 361 l 834 962 l 594 962 l 416 538 l 238 962 l -9 962 l 298 359 l 298 0 l 526 0 l 526 361 "},"ĉ":{"x_min":44.1875,"x_max":666.40625,"ha":665,"o":"m 140 951 l 217 861 l 403 988 l 588 861 l 666 951 l 470 1141 l 335 1141 l 140 951 m 405 761 b 44 362 184 761 44 597 b 409 -23 44 129 183 -23 b 658 63 510 -23 590 9 l 558 204 b 420 150 509 166 473 150 b 274 363 333 150 274 200 b 423 593 274 529 328 593 b 562 538 473 593 516 576 l 658 670 b 405 761 587 730 508 761 "},"ī":{"x_min":-16.671875,"x_max":406.9375,"ha":392,"o":"m -16 909 l 406 909 l 406 1062 l -16 1062 l -16 909 m 305 0 l 305 737 l 86 737 l 86 0 l 305 0 "},"⏎":{"x_min":41.671875,"x_max":1236.109375,"ha":1389,"o":"m 876 608 l 455 608 l 455 850 l 41 434 l 455 20 l 455 262 l 1166 262 b 1236 331 1208 262 1236 290 l 1236 972 b 1166 1041 1236 1013 1208 1041 l 945 1041 b 876 972 904 1041 876 1013 l 876 608 m 938 980 l 1172 980 l 1172 323 l 393 323 l 393 169 l 130 434 l 393 700 l 393 545 l 938 545 l 938 980 "},"ӹ":{"x_min":86.109375,"x_max":970.828125,"ha":1057,"o":"m 366 890 b 479 1000 430 890 479 938 b 366 1109 479 1061 430 1109 b 254 1000 304 1109 254 1061 b 366 890 254 938 304 890 m 801 1000 b 688 1109 801 1061 752 1109 b 576 1000 626 1109 576 1061 b 688 890 576 938 626 890 b 801 1000 752 890 801 938 m 305 508 l 305 737 l 86 737 l 86 0 l 376 0 b 688 252 555 0 688 83 b 344 508 688 418 587 508 l 305 508 m 970 737 l 751 737 l 751 0 l 970 0 l 970 737 m 305 144 l 305 368 l 340 368 b 465 256 433 368 465 329 b 352 144 465 180 425 144 l 305 144 "},"О":{"x_min":45.828125,"x_max":913.890625,"ha":960,"o":"m 479 986 b 45 481 208 986 45 795 b 479 -23 45 161 208 -23 b 913 481 751 -23 913 166 b 479 986 913 802 751 986 m 479 819 b 675 481 608 819 675 725 b 479 143 675 237 609 143 b 284 481 354 143 284 237 b 479 819 284 725 351 819 "},"ξ":{"x_min":38.65625,"x_max":651,"ha":625,"o":"m 387 1054 b 92 822 217 1054 92 958 b 266 617 92 712 158 647 b 38 362 137 592 38 515 b 308 39 38 167 151 110 b 426 -63 406 -3 426 -21 b 317 -177 426 -113 381 -142 l 399 -308 b 651 -41 570 -235 651 -158 b 459 171 651 72 584 118 b 266 376 313 233 266 269 b 424 532 266 469 330 532 l 494 532 l 516 679 l 430 679 b 315 793 356 679 315 721 b 419 898 315 858 349 898 b 555 851 474 898 512 880 l 651 971 b 387 1054 580 1026 501 1054 "},"Ď":{"x_min":90.0625,"x_max":858.078125,"ha":904,"o":"m 673 1220 l 595 1311 l 410 1194 l 226 1311 l 147 1220 l 344 1041 l 477 1041 l 673 1220 m 90 962 l 90 0 l 378 0 b 858 486 624 0 858 98 b 358 962 858 883 615 962 l 90 962 m 317 797 l 390 797 b 621 486 523 797 621 744 b 392 165 621 230 530 165 l 317 165 l 317 797 "},"&":{"x_min":83.765625,"x_max":1026.296875,"ha":1097,"o":"m 434 986 b 137 755 233 986 137 874 b 271 517 137 666 175 611 b 83 245 146 436 83 361 b 426 -24 83 83 221 -24 b 730 80 543 -24 643 9 l 838 -24 l 1026 63 l 858 212 b 986 470 906 280 949 365 l 802 524 b 736 324 784 447 762 380 l 548 501 b 731 763 655 572 731 647 b 434 986 731 890 622 986 m 437 844 b 522 758 490 844 522 811 b 427 616 522 699 491 658 b 348 755 369 674 348 706 b 437 844 348 808 382 844 m 620 184 b 463 131 574 149 524 131 b 312 258 372 131 312 181 b 395 399 312 313 339 358 l 620 184 "},"G":{"x_min":46.484375,"x_max":834,"ha":896,"o":"m 506 986 b 46 481 250 986 46 808 b 484 -23 46 152 193 -23 b 834 77 610 -23 735 13 l 834 554 l 465 554 l 488 393 l 613 393 l 613 175 b 482 143 572 152 529 143 b 282 481 349 143 282 229 b 517 820 282 720 382 820 b 710 744 595 820 647 797 l 828 868 b 506 986 749 937 645 986 "},"ΰ":{"x_min":79.671875,"x_max":726.875,"ha":785,"o":"m 547 1287 l 363 1319 l 322 1043 l 446 1022 l 547 1287 m 203 1061 b 92 954 142 1061 92 1013 b 203 847 92 894 142 847 b 313 954 264 847 313 894 b 203 1061 313 1013 264 1061 m 572 1061 b 463 954 513 1061 463 1013 b 572 847 463 894 513 847 b 683 954 636 847 683 894 b 572 1061 683 1013 636 1061 m 469 737 b 506 362 492 608 506 476 b 382 137 506 191 442 137 b 299 254 332 137 299 169 l 299 737 l 79 737 l 79 241 b 365 -23 79 58 211 -23 b 726 344 543 -23 726 81 b 686 737 726 498 707 625 l 469 737 "},"`":{"x_min":42,"x_max":431,"ha":472,"o":"m 431 976 l 128 1159 l 42 995 l 369 863 l 431 976 "},"ŏ":{"x_min":44.125,"x_max":766.875,"ha":811,"o":"m 404 877 b 644 1118 550 877 633 984 l 523 1138 b 404 1030 505 1072 468 1030 b 285 1138 340 1030 302 1072 l 164 1118 b 404 877 176 984 258 877 m 405 761 b 44 369 180 761 44 605 b 405 -23 44 120 181 -23 b 766 368 630 -23 766 131 b 405 761 766 616 630 761 m 405 600 b 538 368 494 600 538 531 b 405 137 538 208 494 137 b 272 369 316 137 272 205 b 405 600 272 529 316 600 "},"ý":{"x_min":-8,"x_max":728,"ha":719,"o":"m 540 995 l 454 1159 l 151 976 l 212 863 l 540 995 m 728 737 l 501 737 l 357 140 l 225 737 l -8 737 l 216 0 l 291 0 b 54 -154 251 -94 198 -136 l 78 -308 b 493 -1 310 -295 434 -187 l 728 737 "},"º":{"x_min":51.390625,"x_max":644.4375,"ha":694,"o":"m 347 962 b 51 665 163 962 51 845 b 348 366 51 473 165 366 b 644 663 533 366 644 484 b 347 962 644 855 530 962 m 347 820 b 441 663 411 820 441 777 b 348 508 441 555 411 508 b 254 665 284 508 254 552 b 347 820 254 773 284 820 m 54 169 l 54 0 l 640 0 l 640 169 l 54 169 "},"∞":{"x_min":45.828125,"x_max":1201.390625,"ha":1247,"o":"m 901 753 b 633 590 790 753 711 703 b 354 753 572 683 479 753 b 45 439 134 753 45 601 b 347 123 45 277 136 123 b 612 282 456 123 537 173 b 893 123 676 191 770 123 b 1201 437 1112 123 1201 275 b 901 753 1201 599 1111 753 m 375 290 b 262 439 304 290 262 346 b 376 587 262 532 305 587 b 548 444 465 587 518 514 b 375 290 498 350 451 290 m 870 289 b 697 428 784 289 731 358 b 872 586 751 525 795 586 b 984 437 943 586 984 530 b 870 289 984 344 941 289 "},"ź":{"x_min":17.9375,"x_max":612,"ha":638,"o":"m 503 995 l 417 1159 l 115 976 l 176 863 l 503 995 m 605 583 l 605 737 l 47 737 l 47 572 l 352 572 l 17 155 l 17 0 l 592 0 l 612 166 l 271 166 l 605 583 "},"я":{"x_min":5.65625,"x_max":687.59375,"ha":774,"o":"m 687 737 l 405 737 b 61 497 182 737 61 655 b 175 308 61 409 104 345 l 5 0 l 240 0 l 373 256 l 468 256 l 468 0 l 687 0 l 687 737 m 468 387 l 400 387 b 284 495 319 387 284 429 b 404 597 284 558 323 597 l 468 597 l 468 387 "},"Ί":{"x_min":5.5625,"x_max":394.4375,"ha":408,"o":"m 394 1163 l 309 1327 l 5 1154 l 61 1043 l 394 1163 m 318 0 l 318 962 l 90 962 l 90 0 l 318 0 "},"ӛ":{"x_min":40.015625,"x_max":730.296875,"ha":775,"o":"m 224 890 b 337 1000 288 890 337 938 b 224 1109 337 1061 288 1109 b 112 1000 162 1109 112 1061 b 224 890 112 938 162 890 m 546 890 b 659 1000 610 890 659 938 b 546 1109 659 1061 610 1109 b 434 1000 484 1109 434 1061 b 546 890 434 938 484 890 m 376 761 b 90 666 252 761 162 725 l 181 544 b 367 605 245 588 301 605 b 517 433 458 605 509 552 l 44 433 b 40 354 41 409 40 377 b 381 -23 40 115 174 -23 b 730 369 606 -23 730 145 b 376 761 730 601 620 761 m 381 131 b 246 291 295 131 248 193 l 246 301 l 517 301 b 381 131 509 176 462 131 "},"Ё":{"x_min":90.28125,"x_max":680.5625,"ha":731,"o":"m 225 1284 b 112 1175 162 1284 112 1236 b 225 1065 112 1113 162 1065 b 337 1175 288 1065 337 1113 b 225 1284 337 1236 288 1284 m 547 1284 b 434 1175 484 1284 434 1236 b 547 1065 434 1113 484 1065 b 659 1175 611 1065 659 1113 b 547 1284 659 1236 611 1284 m 656 800 l 680 962 l 90 962 l 90 0 l 680 0 l 680 163 l 318 163 l 318 409 l 613 409 l 613 569 l 318 569 l 318 800 l 656 800 "},"ń":{"x_min":86.15625,"x_max":722.265625,"ha":801,"o":"m 261 863 l 588 995 l 502 1159 l 200 976 l 261 863 m 518 761 b 293 649 426 761 355 723 l 277 737 l 86 737 l 86 0 l 305 0 l 305 504 b 433 599 344 565 384 599 b 502 501 476 599 502 579 l 502 0 l 722 0 l 722 538 b 518 761 722 679 645 761 "},"Г":{"x_min":90.28125,"x_max":706.953125,"ha":708,"o":"m 681 783 l 706 962 l 90 962 l 90 0 l 318 0 l 318 783 l 681 783 "},"Ь":{"x_min":90.28125,"x_max":802.78125,"ha":825,"o":"m 318 634 l 318 962 l 90 962 l 90 0 l 425 0 b 802 326 644 0 802 101 b 420 634 802 534 661 634 l 318 634 m 318 165 l 318 476 l 401 476 b 565 323 512 476 565 426 b 405 165 565 211 506 165 l 318 165 "},"⌧":{"x_min":138.875,"x_max":1583.125,"ha":1722,"o":"m 1513 -16 b 1583 52 1555 -16 1583 11 l 1583 920 b 1513 989 1583 962 1555 989 l 208 989 b 138 920 166 989 138 962 l 138 52 b 208 -16 138 11 166 -16 l 1513 -16 m 647 186 l 554 279 l 767 492 l 554 705 l 647 801 l 861 585 l 1074 801 l 1167 705 l 954 492 l 1167 279 l 1074 186 l 861 399 l 647 186 "},"¤":{"x_min":23.78125,"x_max":754.390625,"ha":778,"o":"m 696 475 b 650 639 696 536 679 591 l 754 744 l 658 841 l 550 733 b 389 775 504 759 450 775 b 229 733 329 775 275 759 l 121 841 l 23 744 l 130 637 b 84 475 101 590 84 534 b 130 311 84 414 101 358 l 23 205 l 121 108 l 229 215 b 389 173 275 189 329 173 b 550 214 450 173 504 189 l 658 108 l 754 205 l 650 310 b 696 475 679 357 696 412 m 390 321 b 254 475 301 321 254 378 b 390 627 254 570 301 627 b 523 475 479 627 523 570 b 390 321 523 378 479 321 "},"Ĝ":{"x_min":45.90625,"x_max":834,"ha":896,"o":"m 489 1165 l 674 1048 l 752 1138 l 555 1318 l 422 1318 l 225 1138 l 304 1048 l 489 1165 m 505 986 b 45 481 250 986 45 808 b 483 -23 45 152 193 -23 b 834 77 610 -23 735 13 l 834 554 l 465 554 l 487 393 l 612 393 l 612 175 b 482 143 572 152 529 143 b 282 481 348 143 282 229 b 517 820 282 720 382 820 b 710 744 594 820 647 797 l 828 868 b 505 986 749 937 644 986 "},"p":{"x_min":86.109375,"x_max":777.78125,"ha":829,"o":"m 498 761 b 290 655 430 761 351 731 l 279 737 l 86 737 l 86 -308 l 305 -284 l 305 52 b 484 -23 351 1 412 -23 b 777 370 666 -23 777 142 b 498 761 777 609 693 761 m 418 137 b 305 202 372 137 336 157 l 305 513 b 429 599 337 567 380 599 b 550 367 505 599 550 551 b 418 137 550 202 500 137 "},"ӓ":{"x_min":35.984375,"x_max":722.09375,"ha":761,"o":"m 213 889 b 326 999 277 889 326 938 b 213 1109 326 1060 277 1109 b 101 999 151 1109 101 1060 b 213 889 101 938 151 889 m 535 889 b 648 999 599 889 648 938 b 535 1109 648 1060 599 1109 b 423 999 473 1109 423 1060 b 535 889 423 938 473 889 m 672 499 b 366 760 672 670 580 760 b 88 706 283 760 181 741 l 138 562 b 331 601 212 587 284 601 b 456 487 422 601 456 574 l 456 455 l 381 455 b 35 206 158 455 35 367 b 276 -23 35 71 129 -23 b 498 87 363 -23 445 5 b 676 -19 531 13 588 -12 l 722 123 b 672 213 687 135 672 156 l 672 499 m 340 132 b 254 226 285 132 254 167 b 402 334 254 299 302 334 l 456 334 l 456 203 b 340 132 430 159 391 132 "},"Ю":{"x_min":90.28125,"x_max":1247.21875,"ha":1293,"o":"m 827 986 b 423 587 595 986 461 841 l 318 587 l 318 962 l 90 962 l 90 0 l 318 0 l 318 409 l 419 409 b 827 -23 441 137 580 -23 b 1247 481 1093 -23 1247 166 b 827 986 1247 802 1093 986 m 827 143 b 645 479 711 143 645 237 b 827 819 645 725 709 819 b 1009 481 947 819 1009 725 b 827 143 1009 237 948 143 "},"ο":{"x_min":44.4375,"x_max":766.671875,"ha":811,"o":"m 405 761 b 44 369 180 761 44 605 b 405 -23 44 120 181 -23 b 766 368 630 -23 766 131 b 405 761 766 616 630 761 m 405 600 b 538 368 494 600 538 531 b 405 137 538 208 494 137 b 272 369 316 137 272 205 b 405 600 272 529 316 600 "},"S":{"x_min":12.796875,"x_max":760.015625,"ha":794,"o":"m 400 986 b 53 708 200 986 53 877 b 347 409 53 565 132 476 b 523 263 487 366 523 334 b 371 145 523 190 465 145 b 129 241 275 145 197 180 l 12 113 b 378 -23 91 37 211 -23 b 760 280 618 -23 760 101 b 473 591 760 458 655 533 b 287 725 323 638 287 663 b 416 819 287 786 337 819 b 626 738 494 819 561 793 l 733 862 b 400 986 648 943 547 986 "},"/":{"x_min":101,"x_max":620,"ha":722,"o":"m 620 1089 l 428 1133 l 101 -111 l 293 -155 l 620 1089 "},"Ӭ":{"x_min":8.328125,"x_max":706.953125,"ha":753,"o":"m 170 1065 b 283 1175 234 1065 283 1113 b 170 1284 283 1236 234 1284 b 58 1175 108 1284 58 1236 b 170 1065 58 1113 108 1065 m 493 1065 b 605 1175 556 1065 605 1113 b 493 1284 605 1236 556 1284 b 380 1175 430 1284 380 1236 b 493 1065 380 1113 430 1065 m 311 986 b 8 877 175 986 88 945 l 118 750 b 293 820 175 797 219 820 b 475 573 400 820 463 750 l 150 573 l 150 412 l 475 412 b 287 147 468 230 402 147 b 113 215 213 147 166 172 l 11 87 b 304 -23 81 20 170 -23 b 706 483 552 -23 706 154 b 311 986 706 816 556 986 "},"Ŧ":{"x_min":12.5,"x_max":748.609375,"ha":751,"o":"m 488 786 l 726 786 l 748 962 l 12 962 l 12 786 l 261 786 l 261 540 l 101 540 l 101 412 l 261 412 l 261 -1 l 488 -1 l 488 412 l 648 412 l 648 540 l 488 540 l 488 786 "},"ђ":{"x_min":4.171875,"x_max":726.390625,"ha":807,"o":"m 520 761 b 308 658 434 761 368 726 l 308 827 l 498 827 l 498 955 l 308 955 l 308 1053 l 88 1030 l 88 955 l 4 955 l 4 827 l 88 827 l 88 0 l 308 0 l 308 505 b 436 599 347 565 388 599 b 506 501 477 599 506 579 l 506 69 b 355 -147 506 -65 450 -104 l 429 -307 b 726 83 601 -244 726 -157 l 726 538 b 520 761 726 679 648 761 "},"̋":{"x_min":54,"x_max":568,"ha":0,"o":"m 326 1124 l 176 1194 l 54 920 l 169 874 l 326 1124 m 568 1120 l 420 1194 l 286 920 l 399 867 l 568 1120 "},"y":{"x_min":-8,"x_max":728,"ha":719,"o":"m 728 737 l 501 737 l 357 140 l 225 737 l -8 737 l 216 0 l 291 0 b 54 -154 251 -94 198 -136 l 78 -308 b 493 -1 310 -295 434 -187 l 728 737 "},"Π":{"x_min":90.28125,"x_max":831.953125,"ha":922,"o":"m 831 0 l 831 962 l 90 962 l 90 0 l 318 0 l 318 787 l 604 787 l 604 0 l 831 0 "},"ὴ":{"x_min":62.34375,"x_max":726.234375,"ha":806,"o":"m 549 863 l 610 976 l 308 1159 l 222 995 l 549 863 m 520 761 b 298 651 430 761 359 723 b 265 757 288 701 277 731 l 62 729 b 92 530 80 673 92 609 l 92 0 l 312 0 l 312 509 b 437 599 349 568 388 599 b 506 501 479 599 506 579 l 506 -284 l 726 -308 l 726 538 b 520 761 726 679 648 761 "},"–":{"x_min":29.171875,"x_max":693.0625,"ha":722,"o":"m 29 519 l 29 350 l 693 350 l 693 519 l 29 519 "},"ë":{"x_min":44.390625,"x_max":728.03125,"ha":769,"o":"m 230 890 b 342 1000 294 890 342 938 b 230 1109 342 1061 294 1109 b 118 1000 168 1109 118 1061 b 230 890 118 938 167 890 m 552 890 b 664 1000 615 890 664 938 b 552 1109 664 1061 615 1109 b 439 1000 489 1109 439 1061 b 552 890 439 938 489 890 m 728 383 b 388 761 728 622 599 761 b 44 365 165 761 44 586 b 414 -23 44 134 169 -23 b 701 79 534 -23 628 20 l 611 201 b 435 136 547 156 495 136 b 268 304 345 136 283 172 l 723 304 b 728 383 726 326 728 359 m 513 436 l 268 436 b 394 615 277 568 322 615 b 513 445 481 615 511 545 l 513 436 "},"б":{"x_min":44.203125,"x_max":751.140625,"ha":796,"o":"m 474 686 b 253 572 373 686 303 644 b 435 809 271 726 321 772 b 673 913 542 842 608 870 l 594 1054 b 349 948 513 1006 465 984 b 44 412 110 872 44 723 b 399 -23 44 106 188 -23 b 751 344 612 -23 751 116 b 474 686 751 563 628 686 m 398 137 b 271 338 320 137 271 198 l 271 433 b 412 524 305 495 358 524 b 524 337 483 524 524 484 b 398 137 524 180 470 137 "},"ƒ":{"x_min":-65.28125,"x_max":581.9375,"ha":465,"o":"m 401 891 b 522 863 437 891 475 884 l 581 1006 b 366 1054 523 1034 451 1054 b 84 802 179 1054 84 944 l 84 737 l -27 737 l -27 584 l 84 584 l 84 69 b -65 -147 84 -65 29 -104 l 8 -307 b 304 83 180 -244 304 -156 l 304 584 l 454 584 l 479 737 l 304 737 l 304 794 b 401 891 304 863 326 891 "},"⁽":{"x_min":143.0625,"x_max":408.328125,"ha":551,"o":"m 311 1111 b 143 654 223 988 143 862 b 311 197 143 445 223 319 l 408 262 b 298 654 337 372 298 487 b 408 1045 298 820 337 936 l 311 1111 "},"у":{"x_min":-8,"x_max":728,"ha":719,"o":"m 728 737 l 501 737 l 357 140 l 225 737 l -8 737 l 216 0 l 291 0 b 54 -154 251 -94 198 -136 l 78 -308 b 493 -1 310 -295 434 -187 l 728 737 "},"J":{"x_min":-15.28125,"x_max":355.5625,"ha":440,"o":"m 355 962 l 127 962 l 127 154 b -15 -73 127 40 109 -25 l 45 -234 b 355 145 208 -181 355 -97 l 355 962 "},"ŷ":{"x_min":-8,"x_max":728,"ha":719,"o":"m 96 951 l 173 861 l 360 988 l 544 861 l 622 951 l 426 1141 l 291 1141 l 96 951 m 728 737 l 501 737 l 357 140 l 225 737 l -8 737 l 216 0 l 291 0 b 54 -154 251 -94 198 -136 l 78 -308 b 493 -1 310 -295 434 -187 l 728 737 "},"ŕ":{"x_min":86.109375,"x_max":559.71875,"ha":557,"o":"m 177 863 l 505 995 l 419 1159 l 116 976 l 177 863 m 486 758 b 295 594 401 758 329 697 l 277 737 l 86 737 l 86 0 l 305 0 l 305 365 b 458 546 329 478 366 546 b 525 536 483 546 501 541 l 559 748 b 486 758 536 755 513 758 "},"ӌ":{"x_min":41.671875,"x_max":679.171875,"ha":765,"o":"m 679 737 l 459 737 l 459 442 b 336 395 429 415 380 395 b 261 490 288 395 261 419 l 261 737 l 41 737 l 41 462 b 252 233 41 322 108 233 b 459 304 333 233 408 261 l 459 160 l 351 160 l 351 -230 l 502 -230 l 527 0 l 679 0 l 679 737 "},"Ὼ":{"x_min":46.09375,"x_max":913.734375,"ha":960,"o":"m 662 1154 l 357 1327 l 273 1163 l 606 1043 l 662 1154 m 479 986 b 46 523 208 986 46 788 b 229 165 46 348 108 231 l 75 165 l 75 0 l 426 0 l 426 155 b 284 523 311 208 284 308 b 479 819 284 720 351 819 b 674 525 608 819 674 720 b 531 155 674 315 651 206 l 531 0 l 883 0 l 883 165 l 726 165 b 913 525 852 236 913 351 b 479 986 913 791 752 986 "},"ώ":{"x_min":51.3125,"x_max":1023.53125,"ha":1075,"o":"m 734 1133 l 519 1176 l 466 838 l 612 815 l 734 1133 m 736 737 b 809 355 779 605 809 481 b 716 137 809 186 769 137 b 638 259 670 137 638 162 l 638 519 l 436 493 l 436 259 b 359 137 436 155 404 137 b 266 361 299 137 266 195 b 337 737 266 481 295 605 l 137 737 b 51 336 90 631 51 500 b 323 -23 51 84 165 -23 b 537 143 442 -23 506 23 b 748 -23 562 25 633 -23 b 1023 336 906 -23 1023 87 b 936 737 1023 500 983 631 l 736 737 "},"˘":{"x_min":42,"x_max":521,"ha":563,"o":"m 280 877 b 521 1118 426 877 509 984 l 400 1138 b 280 1030 382 1072 344 1030 b 162 1138 216 1030 179 1072 l 42 1118 b 280 877 53 984 135 877 "},"↑":{"x_min":152.78125,"x_max":1097.21875,"ha":1250,"o":"m 525 0 l 725 0 l 725 691 b 829 558 751 634 777 604 l 975 424 l 1097 552 l 625 979 l 152 552 l 275 424 l 420 558 b 525 691 472 604 498 634 l 525 0 "},"D":{"x_min":90.28125,"x_max":858.328125,"ha":904,"o":"m 90 962 l 90 0 l 379 0 b 858 486 625 0 858 98 b 358 962 858 883 615 962 l 90 962 m 318 797 l 390 797 b 622 486 523 797 622 744 b 393 165 622 230 530 165 l 318 165 l 318 797 "},"":{"x_min":1049,"x_max":1565.609375,"ha":0,"o":"m 1090 807 b 1049 812 1075 812 1061 812 b 1072 770 1050 795 1058 780 b 1069 779 1071 772 1069 776 b 1090 807 1069 792 1079 803 m 1158 753 b 1129 787 1148 768 1139 778 l 1129 778 b 1111 753 1129 766 1122 757 b 1133 750 1118 751 1125 750 b 1158 753 1140 750 1148 751 m 1200 427 b 1201 408 1200 418 1201 408 l 1243 438 b 1208 455 1238 444 1222 455 b 1200 427 1201 447 1200 437 m 1260 429 b 1258 383 1258 418 1258 383 l 1291 415 b 1260 429 1288 423 1271 429 m 1310 364 b 1342 397 1310 364 1333 386 b 1315 408 1334 402 1323 406 b 1309 397 1313 406 1309 404 l 1310 364 m 1362 345 b 1400 383 1379 350 1400 383 b 1364 390 1400 383 1382 387 l 1362 345 m 1419 376 b 1425 327 1419 376 1422 343 b 1458 369 1443 341 1457 363 b 1419 376 1440 373 1419 376 m 1476 354 b 1480 323 1476 340 1478 334 b 1512 358 1489 326 1512 350 b 1485 364 1510 359 1489 364 b 1476 354 1480 364 1476 359 m 1533 355 l 1537 302 b 1565 347 1537 302 1565 336 b 1555 355 1565 351 1561 355 l 1533 355 "},"ὲ":{"x_min":43.890625,"x_max":663.5,"ha":667,"o":"m 571 976 l 269 1159 l 182 995 l 510 863 l 571 976 m 370 761 b 71 562 191 761 71 687 b 241 393 71 479 127 415 b 43 202 113 377 43 316 b 366 -23 43 54 178 -23 b 663 65 487 -23 591 9 l 570 188 b 394 133 503 151 453 133 b 273 222 312 133 273 168 b 388 308 273 277 305 308 l 469 308 l 491 450 l 398 450 b 294 531 330 450 294 483 b 394 609 294 581 332 609 b 551 563 455 609 499 593 l 641 677 b 370 761 564 737 478 761 "},"ł":{"x_min":-4.171875,"x_max":472.21875,"ha":479,"o":"m 370 149 b 334 206 347 149 334 165 l 334 513 l 472 598 l 420 736 l 334 683 l 334 1054 l 115 1030 l 115 548 l -4 474 l 51 340 l 115 379 l 115 184 b 309 -23 115 48 186 -23 b 451 1 361 -23 413 -14 l 408 156 b 370 149 397 152 383 149 "},"ĺ":{"x_min":-8.328125,"x_max":415.28125,"ha":413,"o":"m 380 1231 l 295 1395 l -8 1222 l 47 1110 l 380 1231 m 298 1054 l 79 1030 l 79 184 b 273 -23 79 48 151 -23 b 415 1 325 -23 377 -14 l 372 156 b 336 149 362 152 347 149 b 298 206 312 149 298 165 l 298 1054 "},"ӳ":{"x_min":-8,"x_max":728,"ha":719,"o":"m 441 1125 l 291 1194 l 169 920 l 285 875 l 441 1125 m 683 1120 l 536 1194 l 401 920 l 515 868 l 683 1120 m 728 737 l 501 737 l 357 140 l 225 737 l -8 737 l 216 0 l 291 0 b 54 -154 251 -94 198 -136 l 78 -308 b 493 -1 310 -295 434 -187 l 728 737 "},"ц":{"x_min":86.109375,"x_max":826.390625,"ha":847,"o":"m 826 161 l 715 161 l 715 737 l 495 737 l 495 162 l 305 162 l 305 737 l 86 737 l 86 0 l 650 0 l 675 -230 l 826 -230 l 826 161 "},"Л":{"x_min":2.78125,"x_max":820.828125,"ha":910,"o":"m 820 962 l 201 962 l 143 474 b 2 135 115 245 104 176 l 56 -24 b 356 463 265 21 320 151 l 393 790 l 593 790 l 593 0 l 820 0 l 820 962 "},"$":{"x_min":12.296875,"x_max":728.96875,"ha":763,"o":"m 728 277 b 453 575 728 445 627 519 b 274 702 309 620 274 644 b 399 793 274 761 323 793 b 601 715 474 793 538 768 l 702 834 b 472 947 641 894 567 931 l 472 1152 l 313 1152 l 313 947 b 51 686 159 925 51 827 b 333 400 51 550 126 465 b 501 261 467 358 501 329 b 355 147 501 190 445 147 b 124 240 263 147 188 180 l 12 118 b 313 -12 80 51 178 -1 l 313 -223 l 472 -223 l 472 -4 b 728 277 634 29 728 134 "},"w":{"x_min":6,"x_max":1034,"ha":1040,"o":"m 881 0 l 1034 737 l 824 737 l 735 164 l 633 737 l 419 737 l 304 164 l 228 737 l 6 737 l 162 0 l 422 0 l 520 541 l 618 0 l 881 0 "},"⌨":{"x_min":166.671875,"x_max":1861.109375,"ha":2028,"o":"m 1791 -16 b 1861 52 1833 -16 1861 11 l 1861 920 b 1791 990 1861 962 1833 990 l 236 990 b 166 920 194 990 166 962 l 166 52 b 236 -16 166 11 194 -16 l 1791 -16 m 387 913 b 415 886 402 913 415 901 l 415 783 b 387 755 415 768 402 755 l 284 755 b 256 783 269 755 256 768 l 256 886 b 284 913 256 901 269 913 l 387 913 m 637 913 b 665 886 652 913 665 901 l 665 783 b 637 755 665 768 652 755 l 534 755 b 506 783 519 755 506 768 l 506 886 b 534 913 506 901 519 913 l 637 913 m 887 913 b 915 886 902 913 915 901 l 915 783 b 887 755 915 768 902 755 l 784 755 b 756 783 769 755 756 768 l 756 886 b 784 913 756 901 769 913 l 887 913 m 1137 913 b 1165 886 1152 913 1165 901 l 1165 783 b 1137 755 1165 768 1152 755 l 1034 755 b 1006 783 1019 755 1006 768 l 1006 886 b 1034 913 1006 901 1019 913 l 1137 913 m 1387 913 b 1415 886 1402 913 1415 901 l 1415 783 b 1387 755 1415 768 1402 755 l 1284 755 b 1256 783 1269 755 1256 768 l 1256 886 b 1284 913 1256 901 1269 913 l 1387 913 m 1720 913 b 1748 886 1736 913 1748 901 l 1748 783 b 1720 755 1748 768 1736 755 l 1534 755 b 1506 783 1519 755 1506 768 l 1506 886 b 1534 913 1506 901 1519 913 l 1720 913 m 443 684 b 470 656 458 684 470 672 l 470 554 b 443 526 470 538 458 526 l 340 526 b 312 554 325 526 312 538 l 312 656 b 340 684 312 672 325 684 l 443 684 m 693 684 b 720 656 708 684 720 672 l 720 554 b 693 526 720 538 708 526 l 590 526 b 562 554 575 526 562 538 l 562 656 b 590 684 562 672 575 684 l 693 684 m 943 684 b 970 656 958 684 970 672 l 970 554 b 943 526 970 538 958 526 l 840 526 b 812 554 825 526 812 538 l 812 656 b 840 684 812 672 825 684 l 943 684 m 1193 684 b 1220 656 1208 684 1220 672 l 1220 554 b 1193 526 1220 538 1208 526 l 1090 526 b 1062 554 1075 526 1062 538 l 1062 656 b 1090 684 1062 672 1075 684 l 1193 684 m 1443 684 b 1470 656 1458 684 1470 672 l 1470 554 b 1443 526 1470 538 1458 526 l 1340 526 b 1312 554 1325 526 1312 538 l 1312 656 b 1340 684 1312 672 1325 684 l 1443 684 m 1618 498 b 1590 526 1618 513 1605 526 b 1562 554 1575 526 1562 538 l 1562 656 b 1590 684 1562 672 1575 684 l 1720 684 b 1748 656 1736 684 1748 672 l 1748 318 b 1720 290 1748 302 1736 290 l 1645 290 b 1618 318 1630 290 1618 302 l 1618 498 m 498 448 b 526 420 513 448 526 436 l 526 318 b 498 290 526 302 513 290 l 395 290 b 368 318 380 290 368 302 l 368 420 b 395 448 368 436 380 448 l 498 448 m 748 448 b 776 420 763 448 776 436 l 776 318 b 748 290 776 302 763 290 l 645 290 b 618 318 630 290 618 302 l 618 420 b 645 448 618 436 630 448 l 748 448 m 998 448 b 1026 420 1013 448 1026 436 l 1026 318 b 998 290 1026 302 1013 290 l 895 290 b 868 318 880 290 868 302 l 868 420 b 895 448 868 436 880 448 l 998 448 m 1248 448 b 1276 420 1263 448 1276 436 l 1276 318 b 1248 290 1276 302 1263 290 l 1145 290 b 1118 318 1130 290 1118 302 l 1118 420 b 1145 448 1118 436 1130 448 l 1248 448 m 1498 448 b 1526 420 1513 448 1526 436 l 1526 318 b 1498 290 1526 302 1513 290 l 1395 290 b 1368 318 1380 290 1368 302 l 1368 420 b 1395 448 1368 436 1380 448 l 1498 448 m 1443 219 b 1470 191 1458 219 1470 206 l 1470 88 b 1443 61 1470 73 1458 61 l 590 61 b 562 88 575 61 562 73 l 562 191 b 590 219 562 206 575 219 l 1443 219 "},"о":{"x_min":44.4375,"x_max":766.671875,"ha":811,"o":"m 405 761 b 44 369 180 761 44 605 b 405 -23 44 120 181 -23 b 766 368 630 -23 766 131 b 405 761 766 616 630 761 m 405 600 b 538 368 494 600 538 531 b 405 137 538 208 494 137 b 272 369 316 137 272 205 b 405 600 272 529 316 600 "},"Д":{"x_min":-18.0625,"x_max":856.953125,"ha":875,"o":"m 856 173 l 772 173 l 772 962 l 211 962 l 173 659 b 52 173 131 340 109 240 l -18 173 l -18 -230 l 138 -230 l 165 0 l 673 0 l 698 -230 l 856 -230 l 856 173 m 551 794 l 551 173 l 231 173 b 391 679 322 247 358 365 l 402 794 l 551 794 "},"Ç":{"x_min":46.203125,"x_max":787.875,"ha":799,"o":"m 685 233 b 497 152 629 190 573 152 b 285 483 369 152 285 251 b 493 818 285 719 371 818 b 665 748 560 818 614 793 l 776 880 b 479 986 697 947 610 986 b 46 483 232 986 46 805 b 407 -18 46 188 187 15 l 390 -155 b 518 -202 479 -155 518 -169 b 453 -244 518 -233 492 -244 b 364 -220 418 -244 392 -234 l 314 -322 b 469 -363 348 -345 404 -363 b 676 -204 596 -363 676 -298 b 532 -66 676 -129 632 -77 l 532 -20 b 787 100 643 -9 732 43 l 685 233 "},"↙":{"x_min":209.4375,"x_max":1038.59375,"ha":1250,"o":"m 1038 712 l 903 851 l 394 338 b 414 516 412 398 419 447 l 402 708 l 209 695 l 241 54 l 877 22 l 888 200 l 695 212 b 524 198 620 218 587 215 l 1038 712 "},"Ŝ":{"x_min":12.84375,"x_max":760.015625,"ha":794,"o":"m 411 1165 l 596 1048 l 673 1138 l 478 1318 l 344 1318 l 147 1138 l 226 1048 l 411 1165 m 400 986 b 53 708 200 986 53 877 b 347 409 53 565 132 476 b 523 263 487 366 523 334 b 371 145 523 190 465 145 b 129 241 275 145 197 180 l 12 113 b 378 -23 92 37 211 -23 b 760 280 618 -23 760 101 b 473 591 760 458 655 533 b 287 725 323 638 287 663 b 416 819 287 786 337 819 b 626 738 494 819 561 793 l 733 862 b 400 986 648 943 547 986 "},"Ӛ":{"x_min":31.890625,"x_max":841.625,"ha":889,"o":"m 266 1065 b 379 1175 330 1065 379 1113 b 266 1284 379 1236 330 1284 b 154 1175 204 1284 154 1236 b 266 1065 154 1113 204 1065 m 588 1065 b 701 1175 652 1065 701 1113 b 588 1284 701 1236 652 1284 b 476 1175 526 1284 476 1236 b 588 1065 476 1113 526 1065 m 429 986 b 86 863 287 986 180 944 l 191 737 b 408 819 245 780 312 819 b 611 562 531 819 604 743 l 40 562 b 31 469 34 534 31 500 b 433 -23 31 168 156 -23 b 841 488 681 -23 841 148 b 429 986 841 819 688 986 m 431 143 b 251 405 323 143 252 213 l 612 405 b 431 143 604 212 540 143 "},"₋":{"x_min":80.5625,"x_max":475,"ha":556,"o":"m 80 56 l 80 -65 l 475 -65 l 475 56 l 80 56 "},"ӣ":{"x_min":86.234375,"x_max":735.296875,"ha":821,"o":"m 197 909 l 621 909 l 621 1062 l 197 1062 l 197 909 m 735 0 l 735 737 l 508 737 l 266 210 b 296 471 280 264 296 365 l 296 737 l 86 737 l 86 0 l 309 0 l 556 526 b 526 262 542 472 526 376 l 526 0 l 735 0 "},"⋅":{"x_min":40.28125,"x_max":291.671875,"ha":333,"o":"m 166 552 b 40 427 95 552 40 495 b 166 301 40 358 95 301 b 291 427 236 301 291 358 b 166 552 291 495 236 552 "},"C":{"x_min":45.828125,"x_max":787.5,"ha":799,"o":"m 479 986 b 45 483 231 986 45 805 b 486 -23 45 154 222 -23 b 787 100 619 -23 725 36 l 684 233 b 497 152 629 190 573 152 b 284 483 369 152 284 251 b 493 818 284 719 370 818 b 665 748 559 818 613 793 l 776 880 b 479 986 697 947 609 986 "},"Ӂ":{"x_min":-9.71875,"x_max":1268.0625,"ha":1257,"o":"m 627 1052 b 868 1266 773 1052 856 1141 l 747 1288 b 627 1205 729 1229 691 1205 b 509 1288 563 1205 526 1229 l 388 1266 b 627 1052 400 1141 481 1052 m 1001 526 l 1241 962 l 1019 962 l 815 581 l 733 581 l 733 962 l 523 962 l 523 581 l 441 581 l 240 962 l 15 962 l 255 526 l -9 0 l 231 0 l 436 420 l 523 420 l 523 0 l 733 0 l 733 420 l 818 420 l 1020 0 l 1268 0 l 1001 526 "},"Ĵ":{"x_min":-20.828125,"x_max":505.5625,"ha":440,"o":"m 243 1165 l 427 1048 l 505 1138 l 309 1318 l 176 1318 l -20 1138 l 58 1048 l 243 1165 m 355 962 l 127 962 l 127 154 b -15 -73 127 40 109 -25 l 45 -234 b 355 145 208 -181 355 -97 l 355 962 "},"È":{"x_min":90.078125,"x_max":680.359375,"ha":731,"o":"m 572 1154 l 266 1327 l 183 1163 l 516 1043 l 572 1154 m 656 800 l 680 962 l 90 962 l 90 0 l 680 0 l 680 163 l 317 163 l 317 409 l 613 409 l 613 569 l 317 569 l 317 800 l 656 800 "},"ﬁ":{"x_min":1.484375,"x_max":743.15625,"ha":829,"o":"m 420 1054 b 115 801 202 1054 115 943 l 115 737 l 1 737 l 1 584 l 115 584 l 115 0 l 334 0 l 334 584 l 523 584 l 523 0 l 743 0 l 743 737 l 334 737 l 334 793 b 450 891 334 863 359 891 b 604 858 505 891 561 876 l 666 998 b 420 1054 607 1027 523 1054 "},"X":{"x_min":-6,"x_max":812,"ha":807,"o":"m 812 0 l 534 519 l 788 962 l 546 962 l 400 654 l 262 962 l 14 962 l 263 511 l -6 0 l 235 0 l 398 366 l 563 0 l 812 0 "},"ô":{"x_min":44.09375,"x_max":766.90625,"ha":811,"o":"m 141 951 l 219 861 l 405 988 l 590 861 l 668 951 l 472 1141 l 337 1141 l 141 951 m 405 761 b 44 369 180 761 44 605 b 405 -23 44 120 181 -23 b 766 368 630 -23 766 131 b 405 761 766 616 630 761 m 405 600 b 538 368 494 600 538 531 b 405 137 538 208 494 137 b 272 369 316 137 272 205 b 405 600 272 529 316 600 "},"🌐":{"x_min":175.40625,"x_max":1491.984375,"ha":1667,"o":"m 1491 508 b 833 1169 1491 873 1198 1169 b 175 508 468 1169 175 873 b 833 -152 175 143 468 -152 b 1491 508 1198 -152 1491 143 m 797 780 b 590 813 729 782 658 795 b 779 1099 635 919 698 1013 b 797 1100 785 1099 790 1099 l 797 780 m 887 1099 b 1075 813 967 1013 1032 919 b 867 780 1007 795 935 782 l 867 1100 b 887 1099 873 1099 880 1099 m 693 1085 b 530 832 626 1014 571 930 b 387 900 478 850 429 874 b 693 1085 467 991 572 1056 m 1278 900 b 1136 832 1237 874 1189 850 b 973 1085 1096 930 1039 1014 b 1278 900 1093 1056 1198 991 m 350 853 b 510 778 399 824 453 799 b 467 540 486 705 469 624 l 242 540 b 350 853 247 656 286 764 m 1198 540 b 1155 778 1196 624 1180 705 b 1315 853 1214 799 1268 824 b 1425 540 1379 764 1418 656 l 1198 540 m 797 540 l 530 540 b 569 759 533 617 547 691 b 797 721 643 738 721 725 l 797 540 m 1096 759 b 1135 540 1119 691 1132 617 l 867 540 l 867 721 b 1096 759 943 724 1021 738 m 467 476 b 510 237 469 390 486 311 b 350 161 453 216 399 191 b 242 476 286 251 247 358 l 467 476 m 569 255 b 530 476 547 325 533 397 l 797 476 l 797 293 b 569 255 721 290 643 276 m 867 476 l 1135 476 b 1096 255 1132 397 1119 325 b 867 293 1021 277 943 290 l 867 476 m 1315 161 b 1155 237 1268 191 1214 216 b 1198 476 1180 311 1196 390 l 1425 476 b 1315 161 1418 358 1379 251 m 779 -83 b 590 201 698 2 635 97 b 797 234 658 221 729 232 l 797 -84 b 779 -83 790 -83 785 -83 m 867 234 b 1075 201 935 232 1007 221 b 887 -83 1032 97 967 2 b 867 -84 880 -83 873 -83 l 867 234 m 387 114 b 530 183 429 141 478 164 b 693 -69 571 86 626 1 b 387 114 572 -40 467 25 m 973 -69 b 1136 183 1039 1 1096 86 b 1278 114 1189 164 1237 141 b 973 -69 1198 25 1093 -40 "},"ҝ":{"x_min":86.109375,"x_max":766.671875,"ha":772,"o":"m 766 0 l 588 395 l 750 737 l 537 737 l 415 440 l 397 440 l 397 601 l 331 601 l 331 440 l 294 440 l 294 737 l 86 737 l 86 0 l 294 0 l 294 325 l 331 325 l 331 162 l 397 162 l 397 325 l 415 325 l 536 0 l 766 0 "},"Ė":{"x_min":90.28125,"x_max":680.5625,"ha":731,"o":"m 386 1301 b 256 1176 309 1301 256 1247 b 386 1051 256 1105 309 1051 b 516 1176 462 1051 516 1105 b 386 1301 516 1247 462 1301 m 656 800 l 680 962 l 90 962 l 90 0 l 680 0 l 680 163 l 318 163 l 318 409 l 613 409 l 613 569 l 318 569 l 318 800 l 656 800 "},"г":{"x_min":86.109375,"x_max":608.328125,"ha":601,"o":"m 86 0 l 305 0 l 305 570 l 581 570 l 608 737 l 86 737 l 86 0 "},"Ŀ":{"x_min":90.28125,"x_max":693.0625,"ha":713,"o":"m 318 180 l 318 962 l 90 962 l 90 0 l 669 0 l 693 180 l 318 180 m 552 677 b 423 552 476 677 423 623 b 552 427 423 481 476 427 b 683 552 629 427 683 481 b 552 677 683 623 629 677 "},"х":{"x_min":-15,"x_max":725,"ha":711,"o":"m 725 0 l 487 394 l 688 737 l 455 737 l 357 501 l 254 737 l 8 737 l 222 387 l -15 0 l 223 0 l 348 276 l 476 0 l 725 0 "},"ŋ":{"x_min":86.109375,"x_max":722.21875,"ha":801,"o":"m 518 761 b 293 649 426 761 355 723 l 277 737 l 86 737 l 86 0 l 305 0 l 305 504 b 433 599 344 565 384 599 b 502 501 475 599 502 579 l 502 69 b 352 -147 502 -65 447 -104 l 426 -307 b 722 83 598 -244 722 -157 l 722 538 b 518 761 722 679 645 761 "},"Ч":{"x_min":29.171875,"x_max":766.671875,"ha":856,"o":"m 766 962 l 541 962 l 541 505 b 393 451 506 472 462 451 b 254 615 297 451 254 501 l 254 962 l 29 962 l 29 612 b 327 281 29 409 140 281 b 541 355 413 281 477 305 l 541 0 l 766 0 l 766 962 "},"ü":{"x_min":79.171875,"x_max":708.328125,"ha":794,"o":"m 233 1109 b 120 1000 170 1109 120 1061 b 233 890 120 938 170 890 b 345 1000 297 890 345 938 b 233 1109 345 1061 297 1109 m 555 1109 b 443 1000 493 1109 443 1061 b 555 890 443 938 493 890 b 668 1000 619 890 668 938 b 555 1109 668 1061 619 1109 m 708 0 l 708 737 l 488 737 l 488 225 b 369 138 456 169 415 138 b 298 236 323 138 298 161 l 298 737 l 79 737 l 79 208 b 284 -23 79 65 147 -23 b 508 93 381 -23 454 15 l 518 0 l 708 0 "},"ь":{"x_min":86.109375,"x_max":702.78125,"ha":725,"o":"m 305 508 l 305 737 l 86 737 l 86 0 l 390 0 b 702 252 569 0 702 83 b 358 508 702 418 601 508 l 305 508 m 305 144 l 305 368 l 354 368 b 479 256 447 368 479 329 b 366 144 479 180 438 144 l 305 144 "},"Җ":{"x_min":-9.578125,"x_max":1282.09375,"ha":1257,"o":"m 1282 173 l 1180 173 l 1001 526 l 1241 962 l 1019 962 l 815 581 l 733 581 l 733 962 l 523 962 l 523 581 l 441 581 l 240 962 l 15 962 l 255 526 l -9 0 l 232 0 l 436 420 l 523 420 l 523 0 l 733 0 l 733 420 l 818 420 l 1020 0 l 1098 0 l 1123 -230 l 1282 -230 l 1282 173 "},"Ÿ":{"x_min":-9.71875,"x_max":834.71875,"ha":825,"o":"m 251 1284 b 138 1175 188 1284 138 1236 b 251 1065 138 1113 188 1065 b 363 1175 315 1065 363 1113 b 251 1284 363 1236 315 1284 m 573 1284 b 461 1175 511 1284 461 1236 b 573 1065 461 1113 511 1065 b 686 1175 637 1065 686 1113 b 573 1284 686 1236 637 1284 m 526 361 l 834 962 l 594 962 l 416 538 l 238 962 l -9 962 l 298 359 l 298 0 l 526 0 l 526 361 "},"€":{"x_min":12.5,"x_max":808.328125,"ha":821,"o":"m 613 305 l 643 419 l 347 419 l 347 518 l 663 518 l 694 633 l 356 633 b 551 800 390 747 462 800 b 730 744 619 800 673 781 l 808 877 b 543 958 740 923 656 958 b 134 633 347 958 188 836 l 43 633 l 12 518 l 126 518 l 126 419 l 43 419 l 12 305 l 131 305 b 536 -23 176 98 319 -23 b 759 27 620 -23 686 -5 l 759 195 b 556 136 700 161 631 136 b 354 305 450 136 381 187 l 613 305 "},"в":{"x_min":86.03125,"x_max":727.703125,"ha":774,"o":"m 540 405 b 695 563 648 427 695 483 b 377 761 695 695 572 761 b 86 730 283 761 191 750 l 86 0 l 398 0 b 727 220 591 0 727 66 b 540 405 727 326 669 390 m 374 620 b 479 536 442 620 479 593 b 380 448 479 475 440 448 l 305 448 l 305 616 b 374 620 329 619 351 620 m 305 144 l 305 333 l 392 333 b 502 238 459 333 502 306 b 383 144 502 165 448 144 l 305 144 "},"Η":{"x_min":90.28125,"x_max":834.71875,"ha":925,"o":"m 606 412 l 606 0 l 834 0 l 834 962 l 606 962 l 606 590 l 318 590 l 318 962 l 90 962 l 90 0 l 318 0 l 318 412 l 606 412 "},"С":{"x_min":45.828125,"x_max":787.5,"ha":799,"o":"m 479 986 b 45 483 231 986 45 805 b 486 -23 45 154 222 -23 b 787 100 619 -23 725 36 l 684 233 b 497 152 629 190 573 152 b 284 483 369 152 284 251 b 493 818 284 719 370 818 b 665 748 559 818 613 793 l 776 880 b 479 986 697 947 609 986 "},"ß":{"x_min":86.28125,"x_max":816.828125,"ha":842,"o":"m 414 1054 b 86 740 201 1054 86 934 l 86 0 l 305 0 l 305 747 b 408 898 305 847 339 898 b 494 819 459 898 494 869 b 371 562 494 702 371 708 b 590 234 371 381 590 386 b 508 145 590 175 558 145 b 436 162 479 145 457 151 l 371 13 b 536 -23 414 -8 471 -23 b 816 230 693 -23 816 70 b 561 598 816 475 561 494 b 701 838 561 684 701 706 b 414 1054 701 956 600 1054 "},"њ":{"x_min":86.109375,"x_max":1109.71875,"ha":1132,"o":"m 726 477 l 726 737 l 506 737 l 506 477 l 305 477 l 305 737 l 86 737 l 86 0 l 305 0 l 305 329 l 506 329 l 506 0 l 797 0 b 1109 238 976 0 1109 81 b 765 477 1109 388 1008 477 l 726 477 m 726 141 l 726 340 l 765 340 b 894 241 862 340 894 306 b 777 141 894 169 852 141 l 726 141 "},"Ӓ":{"x_min":-18.171875,"x_max":838.5625,"ha":819,"o":"m 248 1065 b 360 1175 312 1065 360 1113 b 248 1284 360 1236 312 1284 b 136 1175 186 1284 136 1236 b 248 1065 136 1113 185 1065 m 570 1065 b 683 1175 634 1065 683 1113 b 570 1284 683 1236 634 1284 b 458 1175 508 1284 458 1236 b 570 1065 458 1113 508 1065 m 546 206 l 596 0 l 838 0 l 548 962 l 272 962 l -18 0 l 217 0 l 266 206 l 546 206 m 508 372 l 305 372 l 406 797 l 508 372 "},"Ű":{"x_min":76.1875,"x_max":827.953125,"ha":904,"o":"m 538 1300 l 388 1369 l 266 1095 l 381 1050 l 538 1300 m 780 1295 l 633 1369 l 498 1095 l 612 1043 l 780 1295 m 827 962 l 600 962 l 600 329 b 451 145 600 205 555 145 b 304 329 348 145 304 205 l 304 962 l 76 962 l 76 319 b 451 -23 76 116 199 -23 b 827 319 702 -23 827 125 l 827 962 "},"Ԥ":{"x_min":90.28125,"x_max":943.0625,"ha":954,"o":"m 943 173 l 831 173 l 831 962 l 90 962 l 90 0 l 318 0 l 318 787 l 604 787 l 604 0 l 761 0 l 786 -230 l 943 -230 l 943 173 "},"c":{"x_min":44.4375,"x_max":658.328125,"ha":665,"o":"m 405 761 b 44 362 184 761 44 597 b 409 -23 44 129 183 -23 b 658 63 511 -23 590 9 l 558 204 b 420 150 509 166 473 150 b 275 363 333 150 275 200 b 423 593 275 529 329 593 b 562 538 473 593 516 576 l 658 670 b 405 761 587 730 508 761 "},"¶":{"x_min":90.28125,"x_max":933.328125,"ha":1094,"o":"m 933 962 l 463 962 b 90 663 225 968 90 849 b 422 365 90 492 200 370 l 422 -310 l 613 -285 l 613 809 l 741 809 l 741 -310 l 933 -285 l 933 962 "},"Ή":{"x_min":-201.390625,"x_max":834.71875,"ha":925,"o":"m 61 962 l -148 1005 l -201 672 l -59 648 l 61 962 m 606 412 l 606 0 l 834 0 l 834 962 l 606 962 l 606 590 l 318 590 l 318 962 l 90 962 l 90 0 l 318 0 l 318 412 l 606 412 "},"γ":{"x_min":-23.03125,"x_max":713.421875,"ha":706,"o":"m -23 691 b 247 16 65 580 164 344 b 257 -310 197 -112 200 -196 l 432 -287 b 457 38 407 -150 414 -73 l 713 712 l 496 760 l 350 227 b 175 761 311 516 240 683 l -23 691 "},"­":{"x_min":61.109375,"x_max":504.171875,"ha":565,"o":"m 61 519 l 61 350 l 504 350 l 504 519 l 61 519 "},"Ὴ":{"x_min":90.15625,"x_max":834.8125,"ha":925,"o":"m 647 1154 l 341 1327 l 258 1163 l 591 1043 l 647 1154 m 607 412 l 607 0 l 834 0 l 834 962 l 607 962 l 607 590 l 317 590 l 317 962 l 90 962 l 90 0 l 317 0 l 317 412 l 607 412 "},":":{"x_min":40.28125,"x_max":291.671875,"ha":333,"o":"m 166 706 b 40 581 95 706 40 650 b 166 456 40 513 95 456 b 291 581 236 456 291 513 b 166 706 291 650 236 706 m 166 227 b 40 102 95 227 40 170 b 166 -23 40 33 95 -23 b 291 102 236 -23 291 33 b 166 227 291 170 236 227 "},"ś":{"x_min":7.953125,"x_max":644.046875,"ha":671,"o":"m 526 995 l 440 1159 l 137 976 l 198 863 l 526 995 m 345 761 b 44 536 159 761 44 662 b 262 305 44 422 116 347 b 417 201 395 268 417 252 b 309 133 417 158 377 133 b 116 206 238 133 170 162 l 7 86 b 316 -23 80 20 188 -23 b 644 219 499 -23 644 66 b 416 454 644 351 562 412 b 264 548 284 493 264 509 b 360 604 264 581 294 604 b 535 545 417 604 478 583 l 616 670 b 345 761 548 726 452 761 "}," ":{"x_min":0,"x_max":0,"ha":329},"У":{"x_min":-17,"x_max":825,"ha":801,"o":"m 825 962 l 594 962 l 417 383 l 217 962 l -17 962 l 277 253 l 349 253 b 127 128 305 173 248 144 l 158 -24 b 567 287 374 -4 483 60 l 825 962 "},"̔":{"x_min":34.65625,"x_max":254.015625,"ha":0,"o":"m 144 801 b 254 909 206 801 254 850 b 208 998 254 948 234 977 l 245 1158 l 136 1158 l 72 1025 b 34 909 45 972 34 944 b 144 801 34 847 81 801 "},"ү":{"x_min":-8.328125,"x_max":720.828125,"ha":713,"o":"m 462 8 l 720 737 l 495 737 l 361 191 l 231 737 l -8 737 l 250 8 l 250 -308 l 462 -284 l 462 8 "},"¾":{"x_min":46.5,"x_max":1309.5625,"ha":1346,"o":"m 1022 991 l 894 1054 l 324 -55 l 451 -118 l 1022 991 m 510 540 b 360 685 510 635 446 680 b 489 829 447 708 489 758 b 275 976 489 912 415 976 b 57 892 189 976 115 947 l 139 806 b 256 855 174 838 213 855 b 329 798 300 855 329 835 b 250 738 329 759 302 738 l 214 738 l 196 627 l 247 627 b 340 555 310 627 340 606 b 254 485 340 508 304 485 b 136 540 209 485 172 501 l 46 454 b 267 360 95 397 165 360 b 510 540 426 360 510 445 m 1309 116 l 1309 235 l 1245 235 l 1245 367 l 1120 367 l 1092 235 l 991 235 l 1130 548 l 993 598 l 825 224 l 825 116 l 1090 116 l 1090 0 l 1245 0 l 1245 116 l 1309 116 "},"Ί":{"x_min":-201.390625,"x_max":318.0625,"ha":408,"o":"m 61 962 l -148 1005 l -201 672 l -59 648 l 61 962 m 318 0 l 318 962 l 90 962 l 90 0 l 318 0 "},"ŉ":{"x_min":89,"x_max":869.546875,"ha":949,"o":"m 282 958 b 186 1052 282 1012 240 1052 b 89 958 130 1052 89 1009 b 129 879 89 923 105 898 l 95 740 l 191 740 l 248 854 b 282 958 272 902 282 927 m 665 761 b 440 649 573 761 502 723 l 425 737 l 233 737 l 233 0 l 452 0 l 452 504 b 580 599 491 565 532 599 b 650 501 623 599 650 579 l 650 0 l 869 0 l 869 538 b 665 761 869 679 793 761 "},"⁶":{"x_min":39.515625,"x_max":515.90625,"ha":556,"o":"m 338 841 b 213 791 295 841 252 827 b 325 931 220 885 263 931 b 406 909 357 931 381 922 l 465 1004 b 321 1045 431 1028 381 1045 b 39 710 146 1045 39 911 b 282 429 39 542 114 429 b 515 646 431 429 515 532 b 338 841 515 770 442 841 m 285 545 b 214 704 232 545 215 586 b 286 735 238 725 263 735 b 349 645 329 735 349 713 b 285 545 349 585 329 545 "},"⅓":{"x_min":54.21875,"x_max":1300.390625,"ha":1346,"o":"m 1022 991 l 894 1054 l 323 -55 l 451 -118 l 1022 991 m 416 377 l 416 962 l 268 962 l 54 838 l 127 730 l 254 809 l 254 377 l 416 377 m 1065 598 b 847 515 979 598 905 569 l 929 429 b 1046 477 964 461 1003 477 b 1119 420 1090 477 1119 458 b 1040 361 1119 381 1092 361 l 1004 361 l 986 250 l 1037 250 b 1130 177 1100 250 1130 229 b 1044 108 1130 130 1094 108 b 926 162 998 108 962 123 l 836 76 b 1057 -16 885 19 955 -16 b 1300 162 1217 -16 1300 68 b 1150 308 1300 258 1236 302 b 1279 451 1237 330 1279 380 b 1065 598 1279 534 1205 598 "},"Ģ":{"x_min":46.203125,"x_max":834,"ha":896,"o":"m 505 986 b 46 481 250 986 46 808 b 483 -23 46 152 193 -23 b 834 77 610 -23 735 13 l 834 554 l 465 554 l 487 393 l 612 393 l 612 175 b 482 143 572 152 529 143 b 282 481 348 143 282 229 b 516 820 282 720 382 820 b 710 744 594 820 647 797 l 828 868 b 505 986 749 937 644 986 m 483 -94 b 373 -201 421 -94 373 -143 b 419 -291 373 -241 393 -270 l 382 -451 l 491 -451 l 555 -318 b 593 -201 582 -265 593 -237 b 483 -94 593 -140 546 -94 "},"m":{"x_min":86.109375,"x_max":1094.453125,"ha":1174,"o":"m 901 761 b 680 644 806 761 738 722 b 506 761 652 719 588 761 b 293 651 416 761 350 723 l 277 737 l 86 737 l 86 0 l 305 0 l 305 504 b 418 599 337 565 372 599 b 480 501 451 599 480 579 l 480 0 l 700 0 l 700 504 b 812 599 731 565 765 599 b 875 501 845 599 875 579 l 875 0 l 1094 0 l 1094 538 b 901 761 1094 679 1015 761 "},"Е":{"x_min":90.28125,"x_max":680.5625,"ha":731,"o":"m 656 800 l 680 962 l 90 962 l 90 0 l 680 0 l 680 163 l 318 163 l 318 409 l 613 409 l 613 569 l 318 569 l 318 800 l 656 800 "},"ž":{"x_min":17.96875,"x_max":612,"ha":638,"o":"m 585 1038 l 507 1129 l 323 1002 l 138 1129 l 59 1038 l 256 848 l 389 848 l 585 1038 m 605 583 l 605 737 l 47 737 l 47 572 l 352 572 l 17 155 l 17 0 l 592 0 l 612 166 l 271 166 l 605 583 "},"⁵":{"x_min":45.203125,"x_max":509.09375,"ha":556,"o":"m 460 919 l 478 1030 l 85 1030 l 85 706 l 195 706 b 263 727 217 720 239 727 b 339 643 309 727 339 706 b 249 551 339 581 306 551 b 136 608 202 551 166 573 l 45 525 b 259 429 91 470 157 429 b 509 643 410 429 509 513 b 331 836 509 766 431 836 b 235 815 297 836 268 829 l 235 919 l 460 919 "},"á":{"x_min":35.984375,"x_max":722.15625,"ha":761,"o":"m 229 863 l 556 995 l 470 1159 l 167 976 l 229 863 m 672 499 b 366 760 672 670 580 760 b 88 706 283 760 181 741 l 138 562 b 331 601 212 587 284 601 b 456 487 422 601 456 574 l 456 455 l 381 455 b 35 206 158 455 35 367 b 276 -23 35 71 129 -23 b 498 87 363 -23 445 5 b 676 -19 531 13 588 -12 l 722 123 b 672 213 687 135 672 156 l 672 499 m 340 132 b 254 226 286 132 254 167 b 402 334 254 299 302 334 l 456 334 l 456 203 b 340 132 430 159 391 132 "},"×":{"x_min":78,"x_max":643,"ha":721,"o":"m 643 587 l 522 708 l 359 544 l 198 708 l 78 587 l 241 424 l 78 263 l 198 143 l 359 306 l 522 143 l 643 263 l 479 424 l 643 587 "},"Ӱ":{"x_min":-17.046875,"x_max":824.609375,"ha":801,"o":"m 238 1284 b 126 1175 176 1284 126 1236 b 238 1065 126 1113 176 1065 b 351 1175 302 1065 351 1113 b 238 1284 351 1236 302 1284 m 560 1284 b 448 1175 498 1284 448 1236 b 560 1065 448 1113 498 1065 b 673 1175 624 1065 673 1113 b 560 1284 673 1236 624 1284 m 824 962 l 594 962 l 417 383 l 217 962 l -17 962 l 277 253 l 349 253 b 127 128 305 173 248 144 l 157 -24 b 567 287 374 -4 482 60 l 824 962 "},"п":{"x_min":86.109375,"x_max":723.609375,"ha":810,"o":"m 504 575 l 504 0 l 723 0 l 723 737 l 86 737 l 86 0 l 305 0 l 305 575 l 504 575 "},"K":{"x_min":90.28125,"x_max":895.828125,"ha":879,"o":"m 318 0 l 318 962 l 90 962 l 90 0 l 318 0 m 563 530 l 870 962 l 630 962 l 325 513 l 631 0 l 895 0 l 563 530 "},"7":{"x_min":18,"x_max":624.984375,"ha":650,"o":"m 624 790 l 624 938 l 18 938 l 18 773 l 397 773 l 81 44 l 280 -22 l 624 790 "},"̈":{"x_min":55.5625,"x_max":602.78125,"ha":0,"o":"m 168 1109 b 55 1000 105 1109 55 1061 b 168 890 55 938 105 890 b 280 1000 231 890 280 938 b 168 1109 280 1061 231 1109 m 490 1109 b 377 1000 427 1109 377 1061 b 490 890 377 938 427 890 b 602 1000 554 890 602 938 b 490 1109 602 1061 554 1109 "},"¨":{"x_min":43.0625,"x_max":590.28125,"ha":633,"o":"m 155 1109 b 43 1000 93 1109 43 1061 b 155 890 43 938 93 890 b 268 1000 219 890 268 938 b 155 1109 268 1061 219 1109 m 477 1109 b 365 1000 415 1109 365 1061 b 477 890 365 938 415 890 b 590 1000 541 890 590 938 b 477 1109 590 1061 541 1109 "},"Y":{"x_min":-9.71875,"x_max":834.71875,"ha":825,"o":"m 526 361 l 834 962 l 594 962 l 416 538 l 238 962 l -9 962 l 298 359 l 298 0 l 526 0 l 526 361 "},"E":{"x_min":90.28125,"x_max":680.5625,"ha":731,"o":"m 656 800 l 680 962 l 90 962 l 90 0 l 680 0 l 680 163 l 318 163 l 318 409 l 613 409 l 613 569 l 318 569 l 318 800 l 656 800 "},"Ô":{"x_min":46.078125,"x_max":913.921875,"ha":960,"o":"m 482 1165 l 666 1048 l 744 1138 l 548 1318 l 415 1318 l 218 1138 l 297 1048 l 482 1165 m 479 986 b 46 481 208 986 46 795 b 479 -23 46 161 208 -23 b 913 481 751 -23 913 166 b 479 986 913 802 751 986 m 479 819 b 675 481 608 819 675 725 b 479 143 675 237 609 143 b 284 481 354 143 284 237 b 479 819 284 725 351 819 "},"έ":{"x_min":43.921875,"x_max":663.5,"ha":667,"o":"m 544 995 l 457 1159 l 155 976 l 216 863 l 544 995 m 370 761 b 71 562 191 761 71 687 b 241 393 71 479 127 415 b 43 202 113 377 43 316 b 366 -23 43 54 178 -23 b 663 65 487 -23 591 9 l 570 188 b 394 133 503 151 453 133 b 273 222 312 133 273 168 b 388 308 273 277 305 308 l 469 308 l 491 450 l 398 450 b 294 531 330 450 294 483 b 394 609 294 581 332 609 b 551 563 455 609 499 593 l 641 677 b 370 761 564 737 478 761 "},"▯":{"x_min":136.109375,"x_max":687.5,"ha":818,"o":"m 687 0 l 687 956 l 136 956 l 136 0 l 687 0 m 263 829 l 559 829 l 559 127 l 263 127 l 263 829 "},"ὺ":{"x_min":78.734375,"x_max":726.90625,"ha":785,"o":"m 597 976 l 294 1159 l 207 995 l 536 863 l 597 976 m 469 737 b 505 362 491 608 505 476 b 381 137 505 191 441 137 b 298 254 331 137 298 169 l 298 737 l 78 737 l 78 241 b 365 -23 78 58 210 -23 b 726 344 543 -23 726 81 b 686 737 726 498 707 625 l 469 737 "},"Є":{"x_min":45.671875,"x_max":787.328125,"ha":797,"o":"m 688 229 b 491 147 633 186 574 147 b 279 412 377 147 287 233 l 608 412 l 608 573 l 279 573 b 490 820 294 743 380 820 b 666 750 555 820 609 797 l 776 879 b 479 986 695 947 606 986 b 45 483 231 986 45 805 b 476 -23 45 154 220 -23 b 787 101 617 -23 723 36 l 688 229 "},"Ï":{"x_min":-70.828125,"x_max":476.390625,"ha":408,"o":"m 41 1284 b -70 1175 -20 1284 -70 1236 b 41 1065 -70 1113 -20 1065 b 154 1175 105 1065 154 1113 b 41 1284 154 1236 105 1284 m 363 1284 b 251 1175 301 1284 251 1236 b 363 1065 251 1113 301 1065 b 476 1175 427 1065 476 1113 b 363 1284 476 1236 427 1284 m 318 0 l 318 962 l 90 962 l 90 0 l 318 0 "},"ġ":{"x_min":7.234375,"x_max":764.828125,"ha":765,"o":"m 379 1126 b 250 1001 303 1126 250 1072 b 379 876 250 930 303 876 b 510 1001 456 876 510 930 b 379 1126 510 1072 456 1126 m 713 857 b 365 761 624 804 529 757 b 41 491 172 761 41 658 b 173 280 41 396 79 330 b 86 139 121 247 86 193 b 313 -6 86 59 151 -6 l 420 -6 b 525 -78 493 -6 525 -35 b 365 -162 525 -126 495 -162 b 204 -70 232 -162 204 -134 l 7 -70 b 360 -308 7 -216 80 -308 b 746 -63 613 -308 746 -215 b 464 150 746 59 636 150 l 353 150 b 272 194 282 150 272 172 b 296 236 272 211 281 228 b 381 228 322 230 350 228 b 691 475 573 228 691 332 b 552 665 691 571 645 625 b 764 694 645 665 713 673 l 713 857 m 371 616 b 482 497 445 616 482 579 b 371 369 482 412 443 369 b 260 494 304 369 260 414 b 371 616 260 571 303 616 "},"ῶ":{"x_min":51.390625,"x_max":1023.609375,"ha":1075,"o":"m 622 882 b 798 1045 700 882 762 951 l 688 1099 b 616 1038 666 1059 647 1038 b 455 1101 570 1038 541 1101 b 276 936 372 1101 311 1025 l 386 883 b 459 944 408 922 426 944 b 622 882 505 944 533 882 m 736 737 b 809 355 779 605 809 481 b 716 137 809 186 769 137 b 638 259 670 137 638 162 l 638 519 l 436 493 l 436 259 b 359 137 436 155 404 137 b 266 361 300 137 266 195 b 337 737 266 481 295 605 l 137 737 b 51 336 90 631 51 500 b 323 -23 51 84 165 -23 b 537 143 443 -23 506 23 b 748 -23 562 25 633 -23 b 1023 336 906 -23 1023 87 b 936 737 1023 500 983 631 l 736 737 "},"έ":{"x_min":44.0625,"x_max":663.4375,"ha":667,"o":"m 560 1133 l 345 1176 l 292 838 l 438 815 l 560 1133 m 370 761 b 71 562 191 761 71 687 b 241 393 71 479 127 415 b 44 202 113 377 44 316 b 366 -23 44 54 178 -23 b 663 65 487 -23 591 9 l 570 188 b 394 133 503 151 453 133 b 273 222 312 133 273 168 b 388 308 273 277 305 308 l 469 308 l 491 450 l 398 450 b 294 531 330 450 294 483 b 394 609 294 581 332 609 b 550 563 455 609 499 593 l 641 677 b 370 761 564 737 478 761 "},"ῑ":{"x_min":-23.609375,"x_max":400,"ha":383,"o":"m -23 909 l 400 909 l 400 1062 l -23 1062 l -23 909 m 298 737 l 79 737 l 79 220 b 294 -24 79 69 152 0 l 358 134 b 298 248 313 155 298 181 l 298 737 "},"ϋ":{"x_min":79.046875,"x_max":726.265625,"ha":785,"o":"m 226 1109 b 113 1000 163 1109 113 1061 b 226 890 113 938 163 890 b 338 1000 290 890 338 938 b 226 1109 338 1061 290 1109 m 548 1109 b 436 1000 486 1109 436 1061 b 548 890 436 938 486 890 b 661 1000 612 890 661 938 b 548 1109 661 1061 612 1109 m 469 737 b 505 362 491 608 505 476 b 381 137 505 191 441 137 b 298 254 331 137 298 169 l 298 737 l 79 737 l 79 241 b 365 -23 79 58 210 -23 b 726 344 542 -23 726 81 b 686 737 726 498 706 625 l 469 737 "},"җ":{"x_min":5.796875,"x_max":1059.96875,"ha":1053,"o":"m 1059 161 l 969 161 l 859 394 l 1029 737 l 822 737 l 691 447 l 622 447 l 622 737 l 429 737 l 429 447 l 361 447 l 230 737 l 23 737 l 193 394 l 5 0 l 228 0 l 364 315 l 429 315 l 429 0 l 622 0 l 622 315 l 687 315 l 822 0 l 882 0 l 907 -230 l 1059 -230 l 1059 161 "},"й":{"x_min":86.109375,"x_max":734.125,"ha":821,"o":"m 409 877 b 649 1091 555 877 638 966 l 528 1113 b 409 1030 510 1054 473 1030 b 291 1113 345 1030 308 1054 l 170 1091 b 409 877 181 966 263 877 m 734 0 l 734 737 l 508 737 l 266 210 b 295 471 280 264 295 365 l 295 737 l 86 737 l 86 0 l 309 0 l 555 526 b 526 262 541 472 526 376 l 526 0 l 734 0 "},"b":{"x_min":86.109375,"x_max":777.78125,"ha":829,"o":"m 500 761 b 305 662 425 761 350 723 l 305 1054 l 86 1030 l 86 0 l 280 0 l 291 70 b 484 -23 336 12 402 -23 b 777 367 668 -23 777 140 b 500 761 777 615 681 761 m 422 135 b 305 206 375 135 333 162 l 305 513 b 431 599 337 567 379 599 b 550 367 500 599 550 555 b 422 135 550 195 497 135 "},"̃":{"x_min":54,"x_max":576,"ha":0,"o":"m 399 882 b 576 1045 477 882 539 951 l 466 1099 b 394 1038 444 1059 424 1038 b 233 1101 348 1038 319 1101 b 54 936 149 1101 88 1025 l 163 883 b 237 944 185 922 203 944 b 399 882 283 944 310 882 "},"ύ":{"x_min":79.671875,"x_max":726.890625,"ha":785,"o":"m 586 1133 l 371 1176 l 318 838 l 464 815 l 586 1133 m 469 737 b 506 362 492 608 506 476 b 382 137 506 191 442 137 b 299 254 332 137 299 169 l 299 737 l 79 737 l 79 241 b 365 -23 79 58 211 -23 b 726 344 543 -23 726 81 b 686 737 726 498 707 625 l 469 737 "},"ﬂ":{"x_min":1.390625,"x_max":877.78125,"ha":875,"o":"m 834 156 b 797 150 823 152 809 150 b 761 206 773 150 761 165 l 761 1050 l 562 1029 b 401 1054 513 1042 461 1054 b 115 802 208 1054 115 944 l 115 737 l 1 737 l 1 584 l 115 584 l 115 0 l 334 0 l 334 584 l 450 584 l 473 737 l 334 737 l 334 797 b 437 895 334 867 356 895 b 541 880 473 895 502 890 l 541 184 b 736 -23 541 48 612 -23 b 877 1 787 -23 840 -13 l 834 156 "},"ῦ":{"x_min":78.90625,"x_max":726.9375,"ha":785,"o":"m 472 882 b 649 1045 550 882 612 951 l 539 1099 b 466 1038 517 1059 497 1038 b 305 1101 421 1038 391 1101 b 126 936 222 1101 160 1025 l 236 883 b 309 944 258 922 276 944 b 472 882 355 944 383 882 m 469 737 b 505 362 491 608 505 476 b 382 137 505 191 441 137 b 298 254 332 137 298 169 l 298 737 l 78 737 l 78 241 b 365 -23 78 58 211 -23 b 726 344 543 -23 726 81 b 686 737 726 498 707 625 l 469 737 "},"ᾱ":{"x_min":47.359375,"x_max":798.75,"ha":835,"o":"m 179 909 l 602 909 l 602 1062 l 179 1062 l 179 909 m 350 761 b 47 362 158 761 47 594 b 327 -24 47 109 158 -24 b 557 156 441 -24 511 39 l 566 106 b 727 -24 584 26 643 -12 l 798 139 b 720 215 757 148 733 167 l 684 360 l 780 737 l 593 737 l 569 569 b 350 761 543 694 472 761 m 377 601 b 515 377 447 601 484 548 b 375 135 482 184 433 135 b 268 362 314 135 268 196 b 377 601 268 526 314 601 "},"ӏ":{"x_min":79.171875,"x_max":415.28125,"ha":413,"o":"m 298 1054 l 79 1030 l 79 184 b 273 -23 79 48 151 -23 b 415 1 325 -23 377 -14 l 372 156 b 336 149 362 152 347 149 b 298 206 312 149 298 165 l 298 1054 "},"ф":{"x_min":51.390625,"x_max":1112.5,"ha":1164,"o":"m 858 761 b 684 686 793 761 734 741 l 684 1030 l 479 1054 l 479 687 b 311 761 430 741 375 761 b 51 367 136 761 51 612 b 308 -23 51 127 152 -23 b 479 56 377 -23 436 3 l 479 -308 l 684 -284 l 684 56 b 851 -23 727 3 783 -23 b 1112 367 1009 -23 1112 127 b 858 761 1112 612 1037 761 m 375 134 b 275 367 312 134 275 198 b 375 602 275 541 309 602 b 479 541 416 602 450 579 l 479 198 b 375 134 447 155 416 134 m 787 134 b 684 196 743 134 713 155 l 684 540 b 790 602 715 579 747 602 b 888 367 856 602 888 541 b 787 134 888 198 851 134 "},"":{"x_min":58.46875,"x_max":1657.40625,"ha":1714,"o":"m 93 663 l 297 714 b 58 505 239 671 112 574 l 62 495 b 257 568 118 517 193 544 b 93 408 225 549 137 483 l 97 397 b 265 474 155 424 265 476 b 132 301 207 422 158 361 l 136 290 l 298 374 b 194 219 264 342 218 291 l 200 209 l 304 282 b 248 181 283 258 258 216 l 254 170 b 362 216 279 183 315 201 b 291 160 333 197 307 180 l 294 151 b 341 148 308 149 341 148 l 269 109 b 466 -64 269 109 345 6 b 811 -157 601 -144 741 -157 b 898 -151 851 -157 889 -152 b 884 -98 898 -146 891 -115 b 914 -4 893 -86 908 -34 b 1047 202 936 106 944 148 b 1147 240 1069 213 1108 240 b 1309 206 1197 240 1266 215 b 1383 197 1338 201 1363 197 b 1516 267 1416 197 1486 243 b 1548 262 1518 265 1533 262 b 1575 266 1557 262 1566 262 b 1657 437 1600 277 1657 417 b 1644 516 1657 452 1649 471 b 1635 614 1642 542 1639 602 b 1349 756 1614 671 1490 696 b 1223 839 1265 792 1223 839 b 1227 871 1223 839 1227 853 b 1077 1010 1227 909 1194 1010 b 962 991 1024 1010 976 995 b 722 1053 936 991 791 1053 b 282 841 552 1053 400 934 b 91 674 191 770 123 706 l 93 663 m 427 791 b 714 978 445 825 552 978 b 879 946 777 978 848 957 l 880 941 b 848 892 868 931 851 913 l 857 891 b 1087 951 923 914 1016 951 b 1149 910 1124 951 1141 924 l 1142 910 b 1089 921 1131 917 1113 921 b 825 842 1019 921 864 857 l 822 835 l 929 817 b 989 733 929 817 944 760 l 1005 733 b 978 796 985 757 978 779 b 1059 862 978 850 1032 862 b 1081 859 1072 862 1080 860 l 1078 853 b 1018 800 1062 849 1018 837 b 1216 714 1018 754 1087 714 l 1219 721 l 1158 795 l 1163 796 b 1370 681 1218 750 1280 712 b 1555 601 1463 648 1537 624 b 1514 533 1555 576 1514 559 b 1558 459 1514 512 1541 479 l 1567 459 b 1564 491 1565 473 1564 483 b 1575 517 1564 512 1569 517 b 1594 455 1587 517 1594 480 b 1582 395 1594 422 1582 395 b 1405 425 1582 395 1484 404 b 987 682 1298 451 1109 583 l 918 712 l 914 707 l 987 624 b 1012 577 996 616 1012 592 b 987 510 1012 552 992 516 l 961 555 l 954 631 l 947 631 b 928 520 941 613 928 566 b 1038 368 928 412 1025 375 b 1110 356 1055 364 1092 357 l 1112 361 b 1057 438 1088 382 1057 405 b 1058 448 1057 441 1057 444 l 1062 448 b 1208 354 1083 413 1126 383 b 1426 277 1373 294 1379 316 b 1361 250 1426 277 1387 252 b 1167 322 1333 255 1216 296 b 962 275 1155 317 998 276 b 759 390 866 287 794 350 l 745 395 b 833 241 745 332 823 247 l 887 219 l 887 212 b 797 105 857 194 797 159 l 805 103 b 893 145 827 123 875 144 b 894 142 893 144 894 144 l 871 106 b 861 47 871 90 868 66 b 743 103 836 47 768 84 l 737 99 b 833 -19 747 69 795 8 b 812 -58 825 -37 812 -58 b 727 -2 812 -58 754 -22 l 722 -8 b 780 -100 736 -37 764 -82 l 780 -102 b 414 34 695 -102 527 -59 l 502 87 l 498 94 l 379 67 l 370 74 b 533 167 415 95 514 138 l 527 173 b 432 167 500 169 432 167 b 427 188 432 167 427 170 b 465 291 427 227 465 252 b 387 420 465 326 408 386 b 348 552 370 448 348 500 b 351 580 348 561 350 570 l 354 581 l 368 559 l 375 561 b 384 615 376 573 380 601 l 387 615 b 429 541 394 595 404 559 l 434 547 b 425 616 427 569 425 593 b 511 796 425 690 457 757 l 509 803 b 430 786 482 800 458 795 l 427 791 m 580 781 b 639 821 580 781 609 811 b 691 733 639 768 672 747 l 700 733 b 695 770 697 746 695 758 b 714 855 695 816 712 852 l 784 891 l 791 901 b 736 907 791 901 769 907 b 575 786 612 907 584 820 l 580 781 m 673 657 b 783 665 673 657 722 665 b 886 652 827 665 886 652 l 890 657 l 852 723 l 852 729 b 908 739 861 730 890 735 l 909 744 b 800 814 864 793 800 814 l 798 809 l 836 761 l 836 758 b 743 746 807 758 743 746 l 741 740 l 784 716 l 784 713 b 665 661 739 704 690 682 l 673 657 m 1089 807 b 1069 778 1078 803 1069 792 b 1071 768 1069 775 1070 771 b 1049 811 1058 779 1050 795 b 1089 807 1061 811 1074 811 m 1158 751 b 1133 749 1148 750 1140 749 b 1110 751 1124 749 1117 750 b 1128 778 1122 756 1128 765 l 1128 786 b 1158 751 1138 778 1148 767 m 1167 698 l 1112 702 l 1039 729 l 1014 728 b 1120 680 1051 698 1083 680 b 1161 687 1133 680 1147 681 l 1167 698 m 1200 427 b 1208 455 1200 437 1201 447 b 1243 438 1222 455 1239 444 l 1201 408 b 1200 427 1201 408 1200 417 m 1261 428 b 1292 415 1272 428 1289 423 l 1258 383 b 1261 428 1258 383 1258 418 m 1310 397 b 1315 408 1310 403 1314 406 b 1342 397 1323 406 1335 402 b 1311 364 1333 386 1311 364 l 1310 397 m 1364 390 b 1400 383 1382 388 1400 383 b 1362 346 1400 383 1379 350 l 1364 390 m 1419 376 b 1458 369 1419 376 1439 374 b 1424 328 1456 364 1442 342 b 1419 376 1421 343 1419 376 m 1476 354 b 1484 364 1476 360 1480 364 b 1513 358 1489 364 1510 360 b 1480 323 1513 350 1489 326 b 1476 354 1477 335 1476 340 m 1534 356 l 1557 356 b 1567 347 1562 356 1567 351 b 1538 303 1567 336 1538 303 l 1534 356 "},"Ŋ":{"x_min":90.1875,"x_max":832.140625,"ha":921,"o":"m 832 962 l 627 962 l 627 573 b 661 224 627 419 646 293 l 655 224 l 374 962 l 90 962 l 90 0 l 292 0 l 292 352 b 259 736 292 530 273 656 l 265 736 l 540 0 l 625 0 b 468 -161 609 -88 559 -120 l 534 -307 b 832 83 707 -244 832 -157 l 832 962 "},"Ũ":{"x_min":76.109375,"x_max":827.890625,"ha":904,"o":"m 536 1057 b 712 1220 613 1057 676 1126 l 602 1274 b 530 1213 580 1234 561 1213 b 369 1276 484 1213 455 1276 b 190 1111 285 1276 224 1200 l 299 1058 b 373 1119 322 1097 340 1119 b 536 1057 419 1119 447 1057 m 827 962 l 600 962 l 600 329 b 451 145 600 205 555 145 b 303 329 348 145 303 205 l 303 962 l 76 962 l 76 319 b 451 -23 76 116 199 -23 b 827 319 702 -23 827 125 l 827 962 "},"Щ":{"x_min":90.28125,"x_max":1284.71875,"ha":1294,"o":"m 1284 173 l 1173 173 l 1173 962 l 950 962 l 950 177 l 737 177 l 737 962 l 525 962 l 525 177 l 312 177 l 312 962 l 90 962 l 90 0 l 1101 0 l 1126 -230 l 1284 -230 l 1284 173 "},"L":{"x_min":90.28125,"x_max":693.0625,"ha":713,"o":"m 318 180 l 318 962 l 90 962 l 90 0 l 669 0 l 693 180 l 318 180 "},"Ҡ":{"x_min":0,"x_max":1018.0625,"ha":1010,"o":"m 1018 0 l 754 526 l 993 962 l 769 962 l 568 584 l 462 584 l 462 962 l 0 962 l 0 790 l 234 790 l 234 0 l 462 0 l 462 418 l 563 418 l 769 0 l 1018 0 "},"ď":{"x_min":51.390625,"x_max":1012.5,"ha":1039,"o":"m 527 1054 l 527 691 b 356 760 484 734 425 760 b 51 370 166 760 51 598 b 331 -24 51 131 144 -24 b 541 85 431 -24 498 24 l 552 0 l 747 0 l 747 1030 l 527 1054 m 1012 1029 l 847 1050 l 833 741 l 945 730 l 1012 1029 m 401 137 b 279 369 329 137 279 185 b 413 601 279 534 334 601 b 527 538 462 601 494 577 l 527 220 b 401 137 493 164 452 137 "},"↘":{"x_min":211.109375,"x_max":1040.28125,"ha":1250,"o":"m 345 851 l 211 712 l 725 199 b 554 212 662 215 629 218 l 361 200 l 372 22 l 1008 54 l 1040 696 l 847 708 l 834 517 b 855 339 830 447 837 399 l 345 851 "},"Ο":{"x_min":45.828125,"x_max":913.890625,"ha":960,"o":"m 479 986 b 45 481 208 986 45 795 b 479 -23 45 161 208 -23 b 913 481 751 -23 913 166 b 479 986 913 802 751 986 m 479 819 b 675 481 608 819 675 725 b 479 143 675 237 609 143 b 284 481 354 143 284 237 b 479 819 284 725 351 819 "},"Ĭ":{"x_min":-36.109375,"x_max":443.0625,"ha":408,"o":"m 202 1043 b 443 1268 348 1043 431 1150 l 322 1288 b 202 1194 304 1236 266 1194 b 84 1288 138 1194 101 1236 l -36 1268 b 202 1043 -25 1150 56 1043 m 318 0 l 318 962 l 90 962 l 90 0 l 318 0 "},"ŧ":{"x_min":2.78125,"x_max":548.609375,"ha":540,"o":"m 475 175 b 395 150 445 156 420 150 b 326 245 350 150 326 175 l 326 356 l 458 356 l 481 501 l 326 501 l 326 584 l 472 584 l 495 737 l 326 737 l 326 922 l 106 897 l 106 737 l 2 737 l 2 584 l 106 584 l 106 501 l 15 501 l 15 356 l 106 356 l 106 243 b 348 -23 106 69 186 -22 b 548 34 415 -23 493 -4 l 475 175 "},"Ῐ":{"x_min":-36.109375,"x_max":443.0625,"ha":408,"o":"m 202 1043 b 443 1268 348 1043 431 1150 l 322 1288 b 202 1194 304 1236 266 1194 b 84 1288 138 1194 101 1236 l -36 1268 b 202 1043 -25 1150 56 1043 m 318 0 l 318 962 l 90 962 l 90 0 l 318 0 "},"À":{"x_min":-18,"x_max":839,"ha":819,"o":"m 540 1043 l 595 1154 l 290 1327 l 207 1163 l 540 1043 m 547 206 l 597 0 l 839 0 l 548 962 l 272 962 l -18 0 l 218 0 l 266 206 l 547 206 m 508 372 l 305 372 l 407 797 l 508 372 "},"Ώ":{"x_min":46.09375,"x_max":913.734375,"ha":960,"o":"m 667 1163 l 583 1327 l 279 1154 l 334 1043 l 667 1163 m 479 986 b 46 523 208 986 46 788 b 229 165 46 348 108 231 l 75 165 l 75 0 l 426 0 l 426 155 b 284 523 311 208 284 308 b 479 819 284 720 351 819 b 674 525 608 819 674 720 b 531 155 674 315 651 206 l 531 0 l 883 0 l 883 165 l 726 165 b 913 525 852 236 913 351 b 479 986 913 791 752 986 "},"Ϊ":{"x_min":-70.828125,"x_max":476.390625,"ha":408,"o":"m 41 1284 b -70 1175 -20 1284 -70 1236 b 41 1065 -70 1113 -20 1065 b 154 1175 105 1065 154 1113 b 41 1284 154 1236 105 1284 m 363 1284 b 251 1175 301 1284 251 1236 b 363 1065 251 1113 301 1065 b 476 1175 427 1065 476 1113 b 363 1284 476 1236 427 1284 m 318 0 l 318 962 l 90 962 l 90 0 l 318 0 "},"̊":{"x_min":54.171875,"x_max":440.28125,"ha":0,"o":"m 247 1204 b 54 1022 127 1204 54 1120 b 247 840 54 923 127 840 b 440 1022 366 840 440 923 b 247 1204 440 1120 366 1204 m 247 1091 b 309 1022 284 1091 309 1068 b 247 952 309 976 283 952 b 184 1022 209 952 184 976 b 247 1091 184 1068 209 1091 "},"½":{"x_min":54.21875,"x_max":1294.484375,"ha":1346,"o":"m 1022 991 l 894 1054 l 323 -55 l 451 -118 l 1022 991 m 416 377 l 416 962 l 268 962 l 54 838 l 127 730 l 254 809 l 254 377 l 416 377 m 1059 598 b 840 491 963 598 888 554 l 934 418 b 1043 476 969 458 1000 476 b 1112 409 1084 476 1112 451 b 863 113 1112 348 1065 297 l 863 0 l 1277 0 l 1294 123 l 1048 123 b 1280 423 1237 276 1280 340 b 1059 598 1280 515 1207 598 "},"'":{"x_min":66.671875,"x_max":265.28125,"ha":331,"o":"m 66 962 l 93 575 l 237 575 l 265 962 l 66 962 "},"ĳ":{"x_min":65.28125,"x_max":716.671875,"ha":782,"o":"m 194 1126 b 65 1001 118 1126 65 1072 b 194 876 65 930 118 876 b 325 1001 270 876 325 930 b 194 1126 325 1072 270 1126 m 586 1126 b 456 1001 509 1126 456 1072 b 586 876 456 930 509 876 b 716 1001 662 876 716 930 b 586 1126 716 1072 662 1126 m 305 0 l 305 737 l 86 737 l 86 0 l 305 0 m 695 737 l 476 737 l 476 69 b 326 -147 476 -65 420 -104 l 400 -307 b 695 83 572 -244 695 -157 l 695 737 "},"Р":{"x_min":90.28125,"x_max":802.78125,"ha":833,"o":"m 90 962 l 90 0 l 318 0 l 318 320 l 422 320 b 802 648 644 320 802 425 b 401 962 802 859 650 962 l 90 962 m 318 484 l 318 800 l 398 800 b 568 648 511 800 568 751 b 402 484 568 527 505 484 l 318 484 "},"˛":{"x_min":-1.390625,"x_max":320.828125,"ha":440,"o":"m 286 69 b -1 -179 113 22 -1 -50 b 202 -341 -1 -279 84 -341 b 300 -330 240 -341 270 -337 l 315 -194 b 230 -205 283 -201 258 -205 b 156 -141 180 -205 156 -183 b 320 0 156 -102 184 -51 l 286 69 "},"⁷":{"x_min":71.046875,"x_max":483.796875,"ha":556,"o":"m 483 922 l 483 1030 l 71 1030 l 71 911 l 317 911 l 114 483 l 260 429 l 483 922 "},"Ὰ":{"x_min":-18,"x_max":839,"ha":819,"o":"m 526 1043 l 582 1154 l 276 1327 l 193 1163 l 526 1043 m 547 206 l 597 0 l 839 0 l 548 962 l 272 962 l -18 0 l 218 0 l 266 206 l 547 206 m 508 372 l 305 372 l 407 797 l 508 372 "},"Ԧ":{"x_min":90.28125,"x_max":945.828125,"ha":910,"o":"m 945 173 l 834 173 l 834 318 b 531 653 834 525 727 653 b 318 576 441 653 373 625 l 318 954 l 90 954 l 90 0 l 318 0 l 318 423 b 469 484 355 461 401 484 b 606 316 565 484 606 430 l 606 0 l 762 0 l 787 -230 l 945 -230 l 945 173 "},"Ć":{"x_min":45.828125,"x_max":787.5,"ha":799,"o":"m 683 1163 l 598 1327 l 294 1154 l 350 1043 l 683 1163 m 479 986 b 45 483 231 986 45 805 b 486 -23 45 154 222 -23 b 787 100 619 -23 725 36 l 684 233 b 497 152 629 190 573 152 b 284 483 369 152 284 251 b 493 818 284 719 370 818 b 665 748 559 818 613 793 l 776 880 b 479 986 697 947 609 986 "},"Т":{"x_min":12.5,"x_max":748.609375,"ha":750,"o":"m 726 787 l 748 962 l 12 962 l 12 787 l 261 787 l 261 0 l 488 0 l 488 787 l 726 787 "},"£":{"x_min":38.546875,"x_max":733,"ha":765,"o":"m 369 431 l 626 431 l 626 545 l 369 545 l 369 668 b 471 794 369 747 401 794 b 598 720 523 794 560 775 l 733 819 b 449 958 664 912 576 958 b 153 669 253 958 153 834 l 153 545 l 59 545 l 59 431 l 153 431 l 153 323 b 38 158 153 234 144 190 l 38 0 l 681 0 l 706 166 l 280 166 b 369 334 353 206 369 256 l 369 431 "},"ů":{"x_min":79.171875,"x_max":708.328125,"ha":794,"o":"m 394 1204 b 201 1022 275 1204 201 1120 b 394 840 201 923 275 840 b 587 1022 513 840 587 923 b 394 1204 587 1120 513 1204 m 394 1091 b 456 1022 431 1091 456 1068 b 394 952 456 976 430 952 b 331 1022 356 952 331 976 b 394 1091 331 1068 356 1091 m 708 0 l 708 737 l 488 737 l 488 225 b 369 138 456 169 415 138 b 298 236 323 138 298 161 l 298 737 l 79 737 l 79 208 b 284 -23 79 65 147 -23 b 508 93 381 -23 454 15 l 518 0 l 708 0 "},"Ō":{"x_min":45.828125,"x_max":913.890625,"ha":960,"o":"m 269 1081 l 693 1081 l 693 1234 l 269 1234 l 269 1081 m 479 986 b 45 481 208 986 45 795 b 479 -23 45 161 208 -23 b 913 481 751 -23 913 166 b 479 986 913 802 751 986 m 479 819 b 675 481 608 819 675 725 b 479 143 675 237 609 143 b 284 481 354 143 284 237 b 479 819 284 725 351 819 "},"ԥ":{"x_min":86.109375,"x_max":834.71875,"ha":842,"o":"m 834 161 l 723 161 l 723 737 l 86 737 l 86 0 l 305 0 l 305 575 l 504 575 l 504 0 l 656 0 l 681 -230 l 834 -230 l 834 161 "},"⅕":{"x_min":54.21875,"x_max":1300.09375,"ha":1346,"o":"m 1021 991 l 894 1054 l 323 -55 l 451 -118 l 1021 991 m 416 377 l 416 962 l 268 962 l 54 838 l 127 730 l 254 809 l 254 377 l 416 377 m 1251 473 l 1269 584 l 876 584 l 876 261 l 985 261 b 1053 281 1007 275 1030 281 b 1130 197 1099 281 1130 261 b 1039 105 1130 136 1096 105 b 927 162 992 105 956 127 l 835 79 b 1049 -16 881 25 948 -16 b 1300 197 1201 -16 1300 68 b 1122 390 1300 320 1222 390 b 1026 369 1088 390 1059 383 l 1026 473 l 1251 473 "},"а":{"x_min":35.984375,"x_max":722.09375,"ha":761,"o":"m 672 499 b 366 760 672 670 580 760 b 88 706 283 760 181 741 l 138 562 b 331 601 212 587 284 601 b 456 487 422 601 456 574 l 456 455 l 381 455 b 35 206 158 455 35 367 b 276 -23 35 71 129 -23 b 498 87 363 -23 445 5 b 676 -19 531 13 588 -12 l 722 123 b 672 213 687 135 672 156 l 672 499 m 340 132 b 254 226 285 132 254 167 b 402 334 254 299 302 334 l 456 334 l 456 203 b 340 132 430 159 391 132 "},"Ğ":{"x_min":45.90625,"x_max":834,"ha":896,"o":"m 487 1043 b 728 1268 633 1043 717 1150 l 607 1288 b 487 1194 589 1236 551 1194 b 369 1288 423 1194 386 1236 l 248 1268 b 487 1043 259 1150 341 1043 m 505 986 b 45 481 250 986 45 808 b 483 -23 45 152 193 -23 b 834 77 610 -23 735 13 l 834 554 l 465 554 l 487 393 l 612 393 l 612 175 b 482 143 572 152 529 143 b 282 481 348 143 282 229 b 517 820 282 720 382 820 b 710 744 594 820 647 797 l 828 868 b 505 986 749 937 644 986 "},"ә":{"x_min":40.015625,"x_max":730.296875,"ha":775,"o":"m 376 761 b 90 666 252 761 162 725 l 181 544 b 367 605 245 588 301 605 b 517 433 458 605 509 552 l 44 433 b 40 354 41 409 40 377 b 381 -23 40 115 174 -23 b 730 369 606 -23 730 145 b 376 761 730 601 620 761 m 381 131 b 246 291 295 131 248 193 l 246 301 l 517 301 b 381 131 509 176 462 131 "},"v":{"x_min":-8,"x_max":721,"ha":713,"o":"m 489 0 l 721 737 l 497 737 l 361 167 l 230 737 l -8 737 l 229 0 l 489 0 "},"Ї":{"x_min":-70.828125,"x_max":476.390625,"ha":408,"o":"m 41 1284 b -70 1175 -20 1284 -70 1236 b 41 1065 -70 1113 -20 1065 b 154 1175 105 1065 154 1113 b 41 1284 154 1236 105 1284 m 363 1284 b 251 1175 301 1284 251 1236 b 363 1065 251 1113 301 1065 b 476 1175 427 1065 476 1113 b 363 1284 476 1236 427 1284 m 318 0 l 318 962 l 90 962 l 90 0 l 318 0 "},"û":{"x_min":78.890625,"x_max":708.109375,"ha":794,"o":"m 130 951 l 208 861 l 394 988 l 578 861 l 656 951 l 460 1141 l 326 1141 l 130 951 m 708 0 l 708 737 l 488 737 l 488 225 b 369 138 456 169 415 138 b 298 236 323 138 298 161 l 298 737 l 78 737 l 78 208 b 284 -23 78 65 146 -23 b 508 93 381 -23 453 15 l 517 0 l 708 0 "},"Ź":{"x_min":24.984375,"x_max":718,"ha":756,"o":"m 574 1163 l 490 1327 l 186 1154 l 241 1043 l 574 1163 m 711 790 l 711 962 l 68 962 l 68 786 l 451 786 l 24 170 l 24 0 l 695 0 l 718 181 l 293 181 l 711 790 "},"⬆":{"x_min":83.328125,"x_max":916.671875,"ha":1000,"o":"m 612 -16 b 681 52 654 -16 681 11 l 681 741 l 916 741 l 500 1155 l 83 741 l 318 741 l 318 52 b 387 -16 318 11 345 -16 l 612 -16 "},"Ĺ":{"x_min":5.5625,"x_max":693.0625,"ha":713,"o":"m 394 1163 l 309 1327 l 5 1154 l 61 1043 l 394 1163 m 318 180 l 318 962 l 90 962 l 90 0 l 669 0 l 693 180 l 318 180 "},"‒":{"x_min":22.21875,"x_max":755.5625,"ha":778,"o":"m 22 547 l 22 377 l 755 377 l 755 547 l 22 547 "},"Č":{"x_min":46.09375,"x_max":787.75,"ha":799,"o":"m 754 1220 l 676 1311 l 491 1194 l 307 1311 l 228 1220 l 425 1041 l 558 1041 l 754 1220 m 479 986 b 46 483 232 986 46 805 b 486 -23 46 154 222 -23 b 787 100 619 -23 725 36 l 684 233 b 497 152 629 190 573 152 b 284 483 369 152 284 251 b 493 818 284 719 371 818 b 665 748 559 818 614 793 l 776 880 b 479 986 697 947 609 986 "},"x":{"x_min":-15,"x_max":725,"ha":711,"o":"m 725 0 l 487 394 l 688 737 l 455 737 l 357 501 l 254 737 l 8 737 l 222 387 l -15 0 l 223 0 l 348 276 l 476 0 l 725 0 "},"Ῑ":{"x_min":-8.328125,"x_max":415.28125,"ha":408,"o":"m -8 1081 l 415 1081 l 415 1234 l -8 1234 l -8 1081 m 318 0 l 318 962 l 90 962 l 90 0 l 318 0 "},"è":{"x_min":44.390625,"x_max":729.03125,"ha":769,"o":"m 540 863 l 601 976 l 298 1159 l 212 995 l 540 863 m 729 383 b 388 761 729 622 599 761 b 44 365 165 761 44 586 b 415 -23 44 134 169 -23 b 702 79 534 -23 629 20 l 612 201 b 436 136 548 156 495 136 b 268 304 345 136 283 172 l 724 304 b 729 383 727 326 729 359 m 513 436 l 268 436 b 394 615 277 568 322 615 b 513 445 481 615 512 545 l 513 436 "},"Ń":{"x_min":90.1875,"x_max":832.140625,"ha":921,"o":"m 658 1163 l 573 1327 l 269 1154 l 324 1043 l 658 1163 m 832 0 l 832 962 l 627 962 l 627 573 b 658 215 627 419 646 292 l 373 962 l 90 962 l 90 0 l 292 0 l 292 352 b 263 745 292 530 274 658 l 541 0 l 832 0 "},"ῖ":{"x_min":-72.21875,"x_max":450,"ha":383,"o":"m 273 882 b 450 1045 351 882 413 951 l 340 1099 b 268 1038 318 1059 298 1038 b 106 1101 222 1038 193 1101 b -72 936 23 1101 -37 1025 l 37 883 b 111 944 59 922 77 944 b 273 882 156 944 184 882 m 298 737 l 79 737 l 79 220 b 294 -24 79 69 152 0 l 358 134 b 298 248 313 155 298 181 l 298 737 "},"μ":{"x_min":85.6875,"x_max":745.40625,"ha":808,"o":"m 745 0 b 712 252 728 58 712 141 l 712 737 l 492 737 l 492 234 b 374 147 457 172 414 147 b 305 231 335 147 305 166 l 305 737 l 85 737 l 85 -306 l 294 -285 l 294 -157 b 238 47 294 -59 270 -11 b 362 -11 270 0 316 -11 b 512 94 423 -11 473 30 b 544 -23 520 44 525 15 l 745 0 "},".":{"x_min":40.28125,"x_max":291.671875,"ha":333,"o":"m 166 227 b 40 102 95 227 40 170 b 166 -23 40 33 95 -23 b 291 102 236 -23 291 33 b 166 227 291 170 236 227 "},"ӑ":{"x_min":35.984375,"x_max":722.0625,"ha":761,"o":"m 374 877 b 615 1091 520 877 604 966 l 494 1113 b 374 1030 476 1054 438 1030 b 256 1113 310 1030 273 1054 l 135 1091 b 374 877 147 966 229 877 m 672 499 b 366 761 672 670 580 761 b 88 706 283 761 181 741 l 138 562 b 331 601 212 587 284 601 b 456 487 422 601 456 574 l 456 455 l 381 455 b 35 206 158 455 35 367 b 276 -23 35 71 129 -23 b 498 87 363 -23 445 5 b 676 -19 531 13 588 -12 l 722 123 b 672 213 687 135 672 156 l 672 499 m 340 133 b 254 226 285 133 254 167 b 402 334 254 299 302 334 l 456 334 l 456 203 b 340 133 430 159 391 133 "},"‘":{"x_min":42.75,"x_max":283.015625,"ha":338,"o":"m 158 640 b 276 751 224 640 276 688 b 226 847 276 794 256 825 l 283 1065 l 170 1065 l 81 881 b 42 752 52 822 42 788 b 158 640 42 688 92 640 "},"π":{"x_min":-1.390625,"x_max":819.453125,"ha":850,"o":"m 734 573 l 819 573 l 819 737 l 204 737 b -1 705 97 737 51 727 l 37 558 b 136 573 72 567 91 572 l 136 0 l 351 0 l 351 573 l 515 573 l 515 220 b 730 -24 515 69 588 0 l 795 137 b 734 248 750 155 734 181 l 734 573 "},"∅":{"x_min":117.015625,"x_max":1133.734375,"ha":1250,"o":"m 1057 988 l 905 988 l 867 934 b 626 994 794 973 714 994 b 117 484 344 994 117 769 b 268 122 117 341 175 213 l 165 -16 l 317 -16 l 365 48 b 626 -22 442 2 530 -22 b 1133 484 908 -22 1133 199 b 965 865 1133 637 1069 772 l 1057 988 m 248 484 b 626 867 248 697 414 867 b 790 831 685 867 740 855 l 346 227 b 248 484 285 295 248 386 m 626 104 b 440 151 558 104 494 120 l 889 760 b 1003 484 960 691 1003 592 b 626 104 1003 273 839 104 "},"9":{"x_min":36.0625,"x_max":734.671875,"ha":778,"o":"m 384 958 b 36 634 188 958 36 830 b 304 324 36 441 158 324 b 498 415 393 324 454 361 b 105 113 461 248 341 170 l 149 -38 b 734 594 551 42 734 211 b 384 958 734 808 616 958 m 372 479 b 256 641 308 479 256 519 b 384 801 256 747 306 801 b 511 562 477 801 512 737 b 372 479 473 508 424 479 "},"ԝ":{"x_min":6,"x_max":1034,"ha":1040,"o":"m 881 0 l 1034 737 l 824 737 l 735 164 l 633 737 l 419 737 l 304 164 l 228 737 l 6 737 l 162 0 l 422 0 l 520 541 l 618 0 l 881 0 "},"l":{"x_min":79.171875,"x_max":415.28125,"ha":413,"o":"m 298 1054 l 79 1030 l 79 184 b 273 -23 79 48 151 -23 b 415 1 325 -23 377 -14 l 372 156 b 336 149 362 152 347 149 b 298 206 312 149 298 165 l 298 1054 "},"⅔":{"x_min":49.78125,"x_max":1300.390625,"ha":1346,"o":"m 1022 991 l 894 1054 l 323 -55 l 451 -117 l 1022 991 m 269 980 b 49 873 173 980 98 936 l 144 799 b 252 858 178 840 209 858 b 322 791 294 858 322 833 b 73 496 322 730 274 679 l 73 382 l 487 382 l 504 505 l 258 505 b 490 805 447 658 490 722 b 269 980 490 897 416 980 m 1065 598 b 847 515 979 598 905 569 l 929 429 b 1046 477 964 461 1003 477 b 1119 421 1090 477 1119 458 b 1040 361 1119 382 1092 361 l 1004 361 l 986 250 l 1037 250 b 1130 177 1100 250 1130 229 b 1044 108 1130 130 1094 108 b 926 162 998 108 962 123 l 836 76 b 1057 -16 884 19 955 -16 b 1300 162 1217 -16 1300 68 b 1150 308 1300 258 1236 302 b 1279 451 1237 330 1279 380 b 1065 598 1279 534 1205 598 "},"Ъ":{"x_min":0,"x_max":947.21875,"ha":969,"o":"m 462 634 l 462 962 l 0 962 l 0 790 l 234 790 l 234 0 l 569 0 b 947 326 788 0 947 101 b 565 634 947 534 805 634 l 462 634 m 462 165 l 462 476 l 545 476 b 709 323 656 476 709 426 b 551 165 709 211 651 165 l 462 165 "},"ή":{"x_min":62.40625,"x_max":726.296875,"ha":806,"o":"m 255 863 l 583 995 l 497 1159 l 194 976 l 255 863 m 520 761 b 298 651 430 761 359 723 b 265 757 288 701 277 731 l 62 729 b 92 530 80 673 92 609 l 92 0 l 312 0 l 312 509 b 437 599 349 568 388 599 b 506 501 479 599 506 579 l 506 -284 l 726 -308 l 726 538 b 520 761 726 679 648 761 "},"Ś":{"x_min":12.90625,"x_max":760.015625,"ha":794,"o":"m 601 1163 l 517 1327 l 212 1154 l 268 1043 l 601 1163 m 400 986 b 53 708 200 986 53 877 b 347 409 53 565 132 476 b 523 263 487 366 523 334 b 371 145 523 190 465 145 b 129 241 275 145 197 180 l 12 113 b 378 -23 92 37 211 -23 b 760 280 618 -23 760 101 b 473 591 760 458 655 533 b 287 725 324 638 287 663 b 417 819 287 786 337 819 b 626 738 494 819 561 793 l 733 862 b 400 986 648 943 547 986 "},"Ü":{"x_min":76.390625,"x_max":827.78125,"ha":904,"o":"m 290 1284 b 177 1175 227 1284 177 1236 b 290 1065 177 1113 227 1065 b 402 1175 354 1065 402 1113 b 290 1284 402 1236 354 1284 m 612 1284 b 500 1175 550 1284 500 1236 b 612 1065 500 1113 550 1065 b 725 1175 676 1065 725 1113 b 612 1284 725 1236 676 1284 m 827 962 l 600 962 l 600 329 b 451 145 600 205 555 145 b 304 329 348 145 304 205 l 304 962 l 76 962 l 76 319 b 451 -23 76 116 200 -23 b 827 319 702 -23 827 125 l 827 962 "},"à":{"x_min":35.984375,"x_max":722.109375,"ha":761,"o":"m 523 863 l 584 976 l 281 1159 l 195 995 l 523 863 m 672 499 b 366 760 672 670 580 760 b 88 706 283 760 181 741 l 138 562 b 331 601 212 587 284 601 b 456 487 422 601 456 574 l 456 455 l 381 455 b 35 206 158 455 35 367 b 276 -23 35 71 129 -23 b 498 87 363 -23 445 5 b 676 -19 531 13 588 -12 l 722 123 b 672 213 687 135 672 156 l 672 499 m 340 132 b 254 226 285 132 254 167 b 402 334 254 299 302 334 l 456 334 l 456 203 b 340 132 430 159 391 132 "},"η":{"x_min":62.5,"x_max":726.390625,"ha":806,"o":"m 520 761 b 298 651 430 761 359 723 b 265 757 288 701 277 731 l 62 729 b 93 530 80 673 93 609 l 93 0 l 312 0 l 312 509 b 437 599 350 568 388 599 b 506 501 479 599 506 579 l 506 -284 l 726 -308 l 726 538 b 520 761 726 679 648 761 "},"ó":{"x_min":44.140625,"x_max":766.828125,"ha":811,"o":"m 586 995 l 500 1159 l 196 976 l 258 863 l 586 995 m 405 761 b 44 369 180 761 44 605 b 405 -23 44 120 181 -23 b 766 368 630 -23 766 131 b 405 761 766 616 630 761 m 405 600 b 538 368 494 600 538 531 b 405 137 538 208 494 137 b 272 369 316 137 272 205 b 405 600 272 529 316 600 "},"₀":{"x_min":36.109375,"x_max":518.0625,"ha":556,"o":"m 277 313 b 36 6 120 313 36 204 b 277 -301 36 -190 120 -301 b 518 6 433 -301 518 -190 b 277 313 518 205 433 313 m 277 193 b 350 6 329 193 350 159 b 277 -180 350 -144 329 -180 b 206 6 226 -180 206 -140 b 277 193 206 152 226 193 "},"¦":{"x_min":159.71875,"x_max":363.890625,"ha":522,"o":"m 363 615 l 363 1125 l 159 1125 l 159 615 l 363 615 m 363 -145 l 363 363 l 159 363 l 159 -145 l 363 -145 "},"Ѣ":{"x_min":12.390625,"x_max":974.890625,"ha":999,"o":"m 488 619 l 488 790 l 726 790 l 749 962 l 12 962 l 12 790 l 261 790 l 261 0 l 597 0 b 974 318 816 0 974 101 b 591 619 974 519 831 619 l 488 619 m 488 165 l 488 461 l 572 461 b 736 315 684 461 736 411 b 577 165 736 211 677 165 l 488 165 "},"Ő":{"x_min":45.890625,"x_max":913.953125,"ha":960,"o":"m 569 1300 l 419 1369 l 297 1095 l 412 1050 l 569 1300 m 811 1295 l 663 1369 l 529 1095 l 643 1043 l 811 1295 m 479 986 b 45 481 208 986 45 795 b 479 -23 45 161 208 -23 b 913 481 751 -23 913 166 b 479 986 913 802 751 986 m 479 819 b 675 481 608 819 675 725 b 479 143 675 237 609 143 b 284 481 354 143 284 237 b 479 819 284 725 351 819 "},"Ž":{"x_min":25,"x_max":718,"ha":756,"o":"m 647 1220 l 569 1311 l 384 1194 l 199 1311 l 120 1220 l 318 1041 l 451 1041 l 647 1220 m 711 790 l 711 962 l 68 962 l 68 786 l 451 786 l 25 170 l 25 0 l 695 0 l 718 181 l 293 181 l 711 790 "},"е":{"x_min":44.390625,"x_max":729.03125,"ha":769,"o":"m 729 383 b 388 761 729 622 599 761 b 44 365 165 761 44 586 b 415 -23 44 134 169 -23 b 702 79 534 -23 629 20 l 612 201 b 436 136 548 156 495 136 b 268 304 345 136 283 172 l 724 304 b 729 383 727 326 729 359 m 513 436 l 268 436 b 394 615 277 568 322 615 b 513 445 481 615 512 545 l 513 436 "},"Î":{"x_min":-59.71875,"x_max":466.671875,"ha":408,"o":"m 204 1165 l 388 1048 l 466 1138 l 270 1318 l 137 1318 l -59 1138 l 19 1048 l 204 1165 m 318 0 l 318 962 l 90 962 l 90 0 l 318 0 "},"e":{"x_min":44.390625,"x_max":729.03125,"ha":769,"o":"m 729 383 b 388 761 729 622 599 761 b 44 365 165 761 44 586 b 415 -23 44 134 169 -23 b 702 79 534 -23 629 20 l 612 201 b 436 136 548 156 495 136 b 268 304 345 136 283 172 l 724 304 b 729 383 727 326 729 359 m 513 436 l 268 436 b 394 615 277 568 322 615 b 513 445 481 615 512 545 l 513 436 "},"ό":{"x_min":44.625,"x_max":766.84375,"ha":811,"o":"m 602 1133 l 387 1176 l 334 838 l 480 815 l 602 1133 m 405 761 b 44 369 180 761 44 605 b 405 -23 44 120 182 -23 b 766 368 630 -23 766 131 b 405 761 766 616 630 761 m 405 600 b 539 368 494 600 539 531 b 405 137 539 208 494 137 b 272 369 316 137 272 205 b 405 600 272 529 316 600 "},"Ĕ":{"x_min":90.0625,"x_max":680.328125,"ha":731,"o":"m 385 1043 b 626 1268 531 1043 615 1150 l 505 1288 b 385 1194 487 1236 449 1194 b 267 1288 322 1194 284 1236 l 147 1268 b 385 1043 158 1150 240 1043 m 656 800 l 680 962 l 90 962 l 90 0 l 680 0 l 680 163 l 317 163 l 317 409 l 613 409 l 613 569 l 317 569 l 317 800 l 656 800 "},"ļ":{"x_min":78.984375,"x_max":415.015625,"ha":413,"o":"m 298 1054 l 78 1030 l 78 184 b 273 -23 78 48 151 -23 b 415 1 324 -23 377 -14 l 371 156 b 335 149 362 152 346 149 b 298 206 312 149 298 165 l 298 1054 m 238 -94 b 128 -201 176 -94 128 -143 b 174 -291 128 -241 148 -271 l 137 -451 l 246 -451 l 310 -318 b 348 -201 337 -265 348 -237 b 238 -94 348 -140 301 -94 "},"Ѓ":{"x_min":90.28125,"x_max":706.953125,"ha":708,"o":"m 270 1043 l 604 1163 l 519 1327 l 215 1154 l 270 1043 m 681 783 l 706 962 l 90 962 l 90 0 l 318 0 l 318 783 l 681 783 "},"ò":{"x_min":44.171875,"x_max":766.859375,"ha":811,"o":"m 614 976 l 310 1159 l 224 995 l 552 863 l 614 976 m 405 761 b 44 369 180 761 44 605 b 405 -23 44 120 181 -23 b 766 368 630 -23 766 131 b 405 761 766 616 630 761 m 405 600 b 538 368 494 600 538 531 b 405 137 538 208 494 137 b 272 369 316 137 272 205 b 405 600 272 529 316 600 "},"^":{"x_min":25,"x_max":750,"ha":776,"o":"m 750 731 l 487 1172 l 287 1172 l 25 731 l 243 731 l 386 1008 l 536 731 l 750 731 "},"∙":{"x_min":40.28125,"x_max":291.671875,"ha":333,"o":"m 166 552 b 40 427 95 552 40 495 b 166 301 40 358 95 301 b 291 427 236 301 291 358 b 166 552 291 495 236 552 "},"Ӑ":{"x_min":-18,"x_max":839,"ha":819,"o":"m 409 1052 b 650 1266 555 1052 638 1141 l 529 1288 b 409 1205 511 1229 473 1205 b 291 1288 345 1205 308 1229 l 170 1266 b 409 1052 182 1141 263 1052 m 547 206 l 597 0 l 839 0 l 548 962 l 272 962 l -18 0 l 218 0 l 266 206 l 547 206 m 508 372 l 305 372 l 407 797 l 508 372 "},"к":{"x_min":86.109375,"x_max":765.28125,"ha":761,"o":"m 552 395 l 748 737 l 537 737 l 377 450 l 305 450 l 305 737 l 86 737 l 86 0 l 305 0 l 305 316 l 372 316 l 533 0 l 765 0 l 552 395 "},"⁻":{"x_min":80.5625,"x_max":475,"ha":556,"o":"m 80 781 l 80 659 l 475 659 l 475 781 l 80 781 "},"ū":{"x_min":79.171875,"x_max":708.328125,"ha":794,"o":"m 181 909 l 605 909 l 605 1062 l 181 1062 l 181 909 m 708 0 l 708 737 l 488 737 l 488 225 b 369 138 456 169 415 138 b 298 236 323 138 298 161 l 298 737 l 79 737 l 79 208 b 284 -23 79 65 147 -23 b 508 93 381 -23 454 15 l 518 0 l 708 0 "},"ˆ":{"x_min":42,"x_max":568,"ha":610,"o":"m 42 951 l 119 861 l 305 988 l 490 861 l 568 951 l 372 1141 l 237 1141 l 42 951 "},"Ẅ":{"x_min":12.5,"x_max":1162.5,"ha":1176,"o":"m 427 1284 b 315 1175 365 1284 315 1236 b 427 1065 315 1113 365 1065 b 540 1175 491 1065 540 1113 b 427 1284 540 1236 491 1284 m 750 1284 b 637 1175 687 1284 637 1236 b 750 1065 637 1113 687 1065 b 862 1175 813 1065 862 1113 b 750 1284 862 1236 813 1284 m 1001 0 l 1162 962 l 945 962 l 833 172 l 708 962 l 469 962 l 336 172 l 240 962 l 12 962 l 170 0 l 459 0 l 586 734 l 705 0 l 1001 0 "},"ȷ":{"x_min":-65.28125,"x_max":304.171875,"ha":390,"o":"m 304 737 l 84 737 l 84 69 b -65 -147 84 -65 29 -104 l 8 -307 b 304 83 180 -244 304 -157 l 304 737 "},"č":{"x_min":44.1875,"x_max":666.40625,"ha":665,"o":"m 666 1038 l 588 1129 l 403 1002 l 219 1129 l 140 1038 l 337 848 l 470 848 l 666 1038 m 405 761 b 44 362 184 761 44 597 b 409 -23 44 129 183 -23 b 658 63 510 -23 590 9 l 558 204 b 420 150 509 166 473 150 b 274 363 333 150 274 200 b 423 593 274 529 328 593 b 562 538 473 593 516 576 l 658 670 b 405 761 587 730 508 761 "},"’":{"x_min":43.125,"x_max":284.78125,"ha":338,"o":"m 168 1063 b 50 952 101 1063 50 1015 b 101 856 50 908 69 879 l 43 638 l 155 638 l 244 822 b 284 951 273 881 284 915 b 168 1063 284 1015 234 1063 "},"Ν":{"x_min":90.1875,"x_max":832.140625,"ha":921,"o":"m 832 0 l 832 962 l 627 962 l 627 573 b 658 215 627 419 646 292 l 373 962 l 90 962 l 90 0 l 292 0 l 292 352 b 263 745 292 530 274 658 l 541 0 l 832 0 "},"-":{"x_min":61.109375,"x_max":504.171875,"ha":565,"o":"m 61 519 l 61 350 l 504 350 l 504 519 l 61 519 "},"Q":{"x_min":45.828125,"x_max":972.21875,"ha":958,"o":"m 687 62 b 913 481 805 127 913 248 b 479 986 913 802 751 986 b 45 481 208 986 45 795 b 465 -19 45 161 208 -19 b 834 -204 645 -19 745 -104 l 972 -25 b 687 62 894 30 812 62 m 284 481 b 479 819 284 725 351 819 b 675 481 608 819 675 725 b 479 143 675 237 609 143 b 284 481 354 143 284 237 "},"ј":{"x_min":-65.28125,"x_max":325,"ha":390,"o":"m 194 1126 b 65 1001 118 1126 65 1072 b 194 876 65 930 118 876 b 325 1001 270 876 325 930 b 194 1126 325 1072 270 1126 m 304 737 l 84 737 l 84 69 b -65 -147 84 -65 29 -104 l 8 -307 b 304 83 180 -244 304 -157 l 304 737 "},"ě":{"x_min":44.390625,"x_max":729.03125,"ha":769,"o":"m 326 848 l 459 848 l 655 1038 l 577 1129 l 393 1002 l 208 1129 l 129 1038 l 326 848 m 729 383 b 388 761 729 622 599 761 b 44 365 165 761 44 586 b 415 -23 44 134 169 -23 b 702 79 534 -23 629 20 l 612 201 b 436 136 548 156 495 136 b 268 304 345 136 283 172 l 724 304 b 729 383 727 326 729 359 m 513 436 l 268 436 b 394 615 277 568 322 615 b 513 445 481 615 512 545 l 513 436 "},"œ":{"x_min":45.328125,"x_max":1222.96875,"ha":1263,"o":"m 1222 382 b 882 760 1222 621 1093 760 b 652 651 782 760 706 719 b 406 760 591 721 510 760 b 45 369 181 760 45 603 b 405 -24 45 120 181 -24 b 652 89 512 -24 592 16 b 909 -24 710 17 792 -24 b 1196 78 1028 -24 1122 20 l 1106 200 b 930 135 1042 156 989 135 b 762 303 838 135 775 171 l 1218 303 b 1222 382 1221 326 1222 359 m 1006 435 l 762 435 b 886 615 771 567 814 615 b 1006 445 974 615 1006 545 l 1006 435 m 405 137 b 273 369 317 137 273 205 b 406 599 273 528 317 599 b 538 369 493 599 538 528 b 405 137 538 206 493 137 "},"̦":{"x_min":43.984375,"x_max":263.34375,"ha":0,"o":"m 153 -94 b 43 -201 91 -94 43 -143 b 89 -291 43 -241 63 -270 l 52 -451 l 161 -451 l 225 -318 b 263 -201 252 -265 263 -237 b 153 -94 263 -140 216 -94 "},"ӗ":{"x_min":44.1875,"x_max":729.03125,"ha":769,"o":"m 391 877 b 631 1091 537 877 620 966 l 511 1113 b 391 1030 493 1054 455 1030 b 273 1113 327 1030 290 1054 l 152 1091 b 391 877 163 966 245 877 m 729 383 b 388 761 729 622 599 761 b 44 365 165 761 44 586 b 415 -23 44 134 169 -23 b 702 79 534 -23 629 20 l 612 201 b 436 136 548 156 495 136 b 268 304 345 136 283 172 l 724 304 b 729 383 727 326 729 359 m 513 436 l 268 436 b 394 615 277 568 322 615 b 513 445 481 615 512 545 l 513 436 "},"Ὲ":{"x_min":90.078125,"x_max":680.359375,"ha":731,"o":"m 572 1154 l 266 1327 l 183 1163 l 516 1043 l 572 1154 m 656 800 l 680 962 l 90 962 l 90 0 l 680 0 l 680 163 l 317 163 l 317 409 l 613 409 l 613 569 l 317 569 l 317 800 l 656 800 "},"#":{"x_min":21,"x_max":753,"ha":774,"o":"m 655 611 l 753 611 l 753 756 l 675 756 l 698 938 l 516 938 l 493 756 l 354 756 l 377 938 l 196 938 l 172 756 l 72 756 l 72 611 l 152 611 l 118 344 l 21 344 l 21 198 l 98 198 l 72 0 l 254 0 l 280 198 l 419 198 l 393 0 l 575 0 l 601 198 l 701 198 l 701 344 l 621 344 l 655 611 m 473 611 l 439 344 l 300 344 l 334 611 l 473 611 "},"⇦":{"x_min":55.5625,"x_max":1277.78125,"ha":1333,"o":"m 1277 537 b 1208 606 1277 579 1250 606 l 469 606 l 469 851 l 55 434 l 469 18 l 469 262 l 1208 262 b 1277 331 1250 262 1277 290 l 1277 537 m 406 545 l 1216 545 l 1216 323 l 406 323 l 406 169 l 144 434 l 406 700 l 406 545 "},"Џ":{"x_min":90.28125,"x_max":822.21875,"ha":913,"o":"m 822 0 l 822 962 l 594 962 l 594 177 l 318 177 l 318 962 l 90 962 l 90 0 l 362 0 l 387 -230 l 545 -230 l 545 0 l 822 0 "},"↗":{"x_min":211.359375,"x_max":1040.515625,"ha":1250,"o":"m 211 180 l 346 41 l 855 554 b 834 376 837 494 830 445 l 847 184 l 1040 197 l 1008 838 l 372 870 l 361 693 l 554 680 b 725 694 629 675 662 677 l 211 180 "},"Å":{"x_min":-17.8125,"x_max":839.40625,"ha":819,"o":"m 411 1015 b 604 1197 531 1015 604 1098 b 411 1379 604 1295 531 1379 b 218 1197 291 1379 218 1295 b 411 1015 218 1098 291 1015 m 411 1266 b 474 1197 449 1266 474 1243 b 411 1127 474 1151 447 1127 b 348 1197 373 1127 348 1151 b 411 1266 348 1243 373 1266 m 547 206 l 597 0 l 839 0 l 549 962 l 272 962 l -17 0 l 218 0 l 266 206 l 547 206 m 508 372 l 305 372 l 407 797 l 508 372 "},"ș":{"x_min":8.53125,"x_max":643.046875,"ha":671,"o":"m 345 761 b 44 536 159 761 44 662 b 262 305 44 422 116 347 b 417 201 395 268 417 252 b 309 133 417 158 377 133 b 116 206 238 133 170 162 l 8 86 b 316 -23 80 20 188 -23 b 643 219 499 -23 643 66 b 416 454 643 351 561 412 b 265 548 284 493 265 509 b 360 604 265 581 294 604 b 535 545 417 604 478 583 l 615 670 b 345 761 547 726 452 761 m 337 -94 b 227 -201 275 -94 227 -143 b 273 -291 227 -241 247 -270 l 236 -451 l 345 -451 l 409 -318 b 446 -201 435 -265 446 -237 b 337 -94 446 -140 399 -94 "},"Ѵ":{"x_min":-18,"x_max":827.828125,"ha":789,"o":"m 607 976 b 538 790 579 928 561 887 l 404 174 l 222 962 l -18 962 l 258 0 l 541 0 l 748 740 b 827 936 776 843 798 888 l 607 976 "},"Ә":{"x_min":31.890625,"x_max":841.625,"ha":889,"o":"m 429 986 b 86 863 287 986 180 944 l 191 737 b 408 819 245 780 312 819 b 611 562 531 819 604 743 l 40 562 b 31 469 34 534 31 500 b 433 -23 31 168 156 -23 b 841 488 681 -23 841 148 b 429 986 841 819 688 986 m 431 143 b 251 405 323 143 252 213 l 612 405 b 431 143 604 212 540 143 "},"₈":{"x_min":32.203125,"x_max":524.046875,"ha":556,"o":"m 403 29 b 501 162 472 65 501 116 b 278 313 501 255 412 313 b 55 154 144 313 55 244 b 144 13 55 102 78 52 b 32 -127 73 -15 32 -61 b 275 -301 32 -220 118 -301 b 524 -126 437 -301 524 -218 b 403 29 524 -62 489 -11 m 279 208 b 342 152 321 208 342 186 b 297 72 342 125 335 98 l 275 80 b 214 151 230 95 214 120 b 279 208 214 191 239 208 m 279 -187 b 196 -119 228 -187 196 -161 b 244 -31 196 -83 211 -52 l 280 -44 b 361 -123 339 -65 361 -83 b 279 -187 361 -158 336 -187 "},"¸":{"x_min":41.671875,"x_max":404.171875,"ha":446,"o":"m 259 22 l 138 22 l 118 -155 b 245 -202 206 -155 245 -169 b 180 -244 245 -233 219 -244 b 91 -220 145 -244 119 -234 l 41 -322 b 197 -363 76 -345 131 -363 b 404 -204 323 -363 404 -298 b 259 -66 404 -129 359 -77 l 259 22 "},"=":{"x_min":66.671875,"x_max":652.78125,"ha":721,"o":"m 66 691 l 66 520 l 652 520 l 652 691 l 66 691 m 66 400 l 66 229 l 652 229 l 652 400 l 66 400 "},"ρ":{"x_min":79.171875,"x_max":770.828125,"ha":822,"o":"m 420 760 b 79 381 190 760 79 624 l 79 -308 l 298 -284 l 298 62 b 477 -23 348 -1 409 -23 b 770 370 659 -23 770 149 b 420 760 770 630 650 760 m 411 137 b 298 210 365 137 329 157 l 298 343 b 418 600 298 527 330 600 b 543 367 494 600 543 548 b 411 137 543 206 493 137 "},"Ћ":{"x_min":12.5,"x_max":1005.5625,"ha":1042,"o":"m 702 652 b 488 575 611 652 544 625 l 488 790 l 726 790 l 748 962 l 12 962 l 12 790 l 261 790 l 261 0 l 488 0 l 488 423 b 641 484 526 461 572 484 b 777 316 737 484 777 430 l 777 0 l 1005 0 l 1005 318 b 702 652 1005 525 898 652 "},"ú":{"x_min":78.796875,"x_max":708.265625,"ha":794,"o":"m 574 995 l 488 1159 l 185 976 l 246 863 l 574 995 m 708 0 l 708 737 l 488 737 l 488 225 b 369 138 456 169 415 138 b 298 236 323 138 298 161 l 298 737 l 78 737 l 78 208 b 284 -23 78 65 146 -23 b 508 93 381 -23 454 15 l 517 0 l 708 0 "},"˚":{"x_min":41.671875,"x_max":427.78125,"ha":469,"o":"m 234 1204 b 41 1022 115 1204 41 1120 b 234 840 41 923 115 840 b 427 1022 354 840 427 923 b 234 1204 427 1120 354 1204 m 234 1091 b 297 1022 272 1091 297 1068 b 234 952 297 976 270 952 b 172 1022 197 952 172 976 b 234 1091 172 1068 197 1091 "},"⅟":{"x_min":54.21875,"x_max":1022.265625,"ha":790,"o":"m 1022 991 l 894 1054 l 323 -55 l 451 -118 l 1022 991 m 416 377 l 416 962 l 268 962 l 54 838 l 127 730 l 254 809 l 254 377 l 416 377 "},"Ύ":{"x_min":-9.71875,"x_max":834.71875,"ha":825,"o":"m 605 1163 l 520 1327 l 216 1154 l 272 1043 l 605 1163 m 526 361 l 834 962 l 594 962 l 416 538 l 238 962 l -9 962 l 298 359 l 298 0 l 526 0 l 526 361 "},"д":{"x_min":0.859375,"x_max":759.1875,"ha":771,"o":"m 759 161 l 681 161 l 681 737 l 160 737 l 139 487 b 46 161 118 234 89 193 l 0 161 l 0 -230 l 152 -230 l 177 0 l 582 0 l 607 -230 l 759 -230 l 759 161 m 475 593 l 475 161 l 210 161 b 341 506 289 206 323 286 l 348 593 l 475 593 "},"ӥ":{"x_min":86.234375,"x_max":734.296875,"ha":821,"o":"m 248 1109 b 136 1000 186 1109 136 1061 b 248 890 136 938 186 890 b 361 1000 312 890 361 938 b 248 1109 361 1061 312 1109 m 570 1109 b 458 1000 508 1109 458 1061 b 570 890 458 938 508 890 b 682 1000 634 890 682 938 b 570 1109 682 1061 634 1109 m 734 0 l 734 737 l 508 737 l 266 210 b 295 471 280 264 295 365 l 295 737 l 86 737 l 86 0 l 309 0 l 555 526 b 526 262 541 472 526 376 l 526 0 l 734 0 "},"¯":{"x_min":41.671875,"x_max":465.28125,"ha":507,"o":"m 41 909 l 465 909 l 465 1062 l 41 1062 l 41 909 "},"u":{"x_min":79.171875,"x_max":708.328125,"ha":794,"o":"m 708 0 l 708 737 l 488 737 l 488 225 b 369 138 456 169 415 138 b 298 236 323 138 298 161 l 298 737 l 79 737 l 79 208 b 284 -23 79 65 147 -23 b 508 93 381 -23 454 15 l 518 0 l 708 0 "},"З":{"x_min":-3.1875,"x_max":714.859375,"ha":751,"o":"m 356 986 b 24 858 224 986 114 943 l 134 743 b 325 820 199 795 260 820 b 450 708 416 820 450 770 b 307 588 450 633 399 588 l 228 588 l 202 425 l 303 425 b 475 284 419 425 475 372 b 313 144 475 194 414 144 b 117 230 235 144 177 173 l -3 111 b 330 -23 75 23 184 -23 b 714 273 556 -23 714 91 b 470 511 714 415 619 494 b 684 733 614 540 684 623 b 356 986 684 879 562 986 "},"Α":{"x_min":-18,"x_max":839,"ha":819,"o":"m 547 206 l 597 0 l 839 0 l 548 962 l 272 962 l -18 0 l 218 0 l 266 206 l 547 206 m 508 372 l 305 372 l 407 797 l 508 372 "},"⅝":{"x_min":45.203125,"x_max":1314.625,"ha":1346,"o":"m 1022 991 l 894 1054 l 322 -55 l 450 -117 l 1022 991 m 509 575 b 331 767 509 698 431 767 b 235 747 297 767 268 760 l 235 851 l 460 851 l 478 962 l 85 962 l 85 638 l 195 638 b 263 659 217 652 239 659 b 339 575 309 659 339 638 b 249 483 339 514 306 483 b 136 540 202 483 166 505 l 45 457 b 259 361 91 402 157 361 b 509 575 410 361 509 445 m 1193 314 b 1292 447 1263 350 1292 401 b 1068 598 1292 540 1203 598 b 845 439 934 598 845 529 b 934 298 845 387 867 337 b 822 157 863 269 822 223 b 1065 -16 822 64 908 -16 b 1314 158 1228 -16 1314 66 b 1193 314 1314 222 1279 273 m 1069 493 b 1132 437 1111 493 1132 470 b 1087 357 1132 409 1125 383 l 1065 365 b 1004 436 1021 380 1004 405 b 1069 493 1004 476 1029 493 m 1069 97 b 986 165 1018 97 986 123 b 1035 252 986 201 1001 232 l 1071 240 b 1152 161 1129 219 1152 201 b 1069 97 1152 126 1126 97 "},"é":{"x_min":44.390625,"x_max":729.03125,"ha":769,"o":"m 245 863 l 573 995 l 487 1159 l 184 976 l 245 863 m 729 383 b 388 761 729 622 599 761 b 44 365 165 761 44 586 b 415 -23 44 134 169 -23 b 702 79 534 -23 629 20 l 612 201 b 436 136 548 156 495 136 b 268 304 345 136 283 172 l 724 304 b 729 383 727 326 729 359 m 513 436 l 268 436 b 394 615 277 568 322 615 b 513 445 481 615 512 545 l 513 436 "},"Ş":{"x_min":12.9375,"x_max":759.015625,"ha":794,"o":"m 759 280 b 473 591 759 458 655 533 b 287 725 323 638 287 663 b 416 819 287 786 337 819 b 625 738 494 819 560 793 l 732 862 b 399 986 648 943 546 986 b 53 708 200 986 53 877 b 347 409 53 565 132 476 b 523 263 487 366 523 334 b 370 145 523 190 464 145 b 129 241 275 145 197 180 l 12 113 b 324 -22 83 45 186 -9 l 309 -155 b 437 -202 398 -155 437 -169 b 372 -244 437 -233 410 -244 b 283 -220 337 -244 311 -234 l 233 -322 b 388 -363 268 -345 323 -363 b 595 -204 514 -363 595 -298 b 451 -66 595 -129 550 -77 l 451 -19 b 759 280 646 4 759 120 "},"↓":{"x_min":152.78125,"x_max":1097.21875,"ha":1250,"o":"m 725 908 l 525 908 l 525 216 b 420 351 498 273 472 303 l 275 484 l 152 356 l 625 -71 l 1097 356 l 975 484 l 829 351 b 725 216 777 303 751 273 l 725 908 "},"B":{"x_min":90.0625,"x_max":819.234375,"ha":857,"o":"m 602 509 b 778 716 691 530 778 594 b 362 962 778 897 620 962 l 90 962 l 90 0 l 399 0 b 819 280 641 0 819 61 b 602 509 819 436 709 488 m 317 801 l 384 801 b 547 694 494 801 547 775 b 402 577 547 613 497 577 l 317 577 l 317 801 m 317 165 l 317 426 l 417 426 b 584 293 516 426 584 390 b 401 165 584 187 508 165 l 317 165 "},"…":{"x_min":40.28125,"x_max":968.0625,"ha":1010,"o":"m 166 227 b 40 102 95 227 40 170 b 166 -23 40 33 95 -23 b 291 102 236 -23 291 33 b 166 227 291 170 236 227 m 504 227 b 379 102 434 227 379 170 b 504 -23 379 33 434 -23 b 630 102 575 -23 630 33 b 504 227 630 170 575 227 m 841 227 b 716 102 772 227 716 170 b 841 -23 716 33 772 -23 b 968 102 912 -23 968 33 b 841 227 968 170 912 227 "},"H":{"x_min":90.28125,"x_max":834.71875,"ha":925,"o":"m 606 412 l 606 0 l 834 0 l 834 962 l 606 962 l 606 590 l 318 590 l 318 962 l 90 962 l 90 0 l 318 0 l 318 412 l 606 412 "},"ῗ":{"x_min":-85,"x_max":462,"ha":383,"o":"m 269 1140 b 445 1303 346 1140 409 1209 l 335 1357 b 263 1296 313 1317 293 1296 b 102 1359 217 1296 188 1359 b -76 1194 19 1359 -41 1283 l 33 1141 b 106 1202 55 1180 73 1202 b 269 1140 152 1202 180 1140 m 27 1109 b -85 999 -35 1109 -85 1060 b 27 890 -85 938 -35 890 b 139 999 91 890 139 938 b 27 1109 139 1060 91 1109 m 349 1109 b 237 999 287 1109 237 1060 b 349 890 237 938 287 890 b 462 999 413 890 462 938 b 349 1109 462 1060 413 1109 m 298 737 l 78 737 l 78 220 b 293 -24 78 69 152 0 l 357 134 b 298 248 313 155 298 181 l 298 737 "},"î":{"x_min":-68.0625,"x_max":458.328125,"ha":392,"o":"m -68 951 l 9 861 l 195 988 l 380 861 l 458 951 l 262 1141 l 127 1141 l -68 951 m 305 0 l 305 737 l 86 737 l 86 0 l 305 0 "},"ν":{"x_min":-24,"x_max":712,"ha":706,"o":"m -24 691 b 216 0 74 589 145 337 l 474 0 l 712 712 l 499 760 l 349 176 b 174 761 305 488 239 683 l -24 691 "},"ύ":{"x_min":78.796875,"x_max":726.875,"ha":785,"o":"m 569 995 l 483 1159 l 180 976 l 241 863 l 569 995 m 469 737 b 505 362 491 608 505 476 b 382 137 505 191 441 137 b 298 254 331 137 298 169 l 298 737 l 78 737 l 78 241 b 365 -23 78 58 210 -23 b 726 344 543 -23 726 81 b 686 737 726 498 707 625 l 469 737 "},"Ό":{"x_min":-137.296875,"x_max":914.09375,"ha":960,"o":"m 125 962 l -84 1005 l -137 672 l 4 648 l 125 962 m 479 986 b 46 481 208 986 46 795 b 479 -23 46 161 208 -23 b 914 481 751 -23 914 166 b 479 986 914 802 751 986 m 479 819 b 675 481 608 819 675 725 b 479 143 675 237 609 143 b 284 481 354 143 284 237 b 479 819 284 725 351 819 "},"−":{"x_min":66.671875,"x_max":652.78125,"ha":721,"o":"m 66 545 l 66 376 l 652 376 l 652 545 l 66 545 "},"⅜":{"x_min":46.5,"x_max":1314.046875,"ha":1346,"o":"m 1022 991 l 894 1054 l 324 -55 l 451 -117 l 1022 991 m 510 540 b 360 686 510 636 446 680 b 489 829 447 708 489 758 b 275 976 489 912 415 976 b 57 892 189 976 115 947 l 139 806 b 256 855 174 838 213 855 b 329 798 300 855 329 836 b 250 738 329 759 302 738 l 214 738 l 196 627 l 247 627 b 340 555 310 627 340 607 b 254 486 340 508 304 486 b 136 540 209 486 172 501 l 46 454 b 267 361 95 397 165 361 b 510 540 426 361 510 445 m 1193 314 b 1291 447 1262 350 1291 401 b 1068 598 1291 540 1202 598 b 845 439 934 598 845 529 b 934 298 845 387 868 337 b 822 157 863 269 822 223 b 1065 -16 822 64 908 -16 b 1314 158 1227 -16 1314 66 b 1193 314 1314 222 1279 273 m 1069 493 b 1132 437 1111 493 1132 470 b 1087 357 1132 409 1125 383 l 1065 365 b 1004 436 1020 380 1004 405 b 1069 493 1004 476 1029 493 m 1069 97 b 986 165 1018 97 986 123 b 1034 252 986 201 1001 232 l 1070 240 b 1151 161 1129 219 1151 201 b 1069 97 1151 126 1126 97 "},"ā":{"x_min":35.984375,"x_max":722.09375,"ha":761,"o":"m 587 909 l 587 1062 l 163 1062 l 163 909 l 587 909 m 672 499 b 366 760 672 670 580 760 b 88 706 283 760 181 741 l 138 562 b 331 601 212 587 284 601 b 456 487 422 601 456 574 l 456 455 l 381 455 b 35 206 158 455 35 367 b 276 -23 35 71 129 -23 b 498 87 363 -23 445 5 b 676 -19 531 13 588 -12 l 722 123 b 672 213 687 135 672 156 l 672 499 m 340 132 b 254 226 285 132 254 167 b 402 334 254 299 302 334 l 456 334 l 456 203 b 340 132 430 159 391 132 "},"ĵ":{"x_min":-68.0625,"x_max":458.328125,"ha":390,"o":"m -68 951 l 9 861 l 195 988 l 380 861 l 458 951 l 262 1141 l 127 1141 l -68 951 m 304 737 l 84 737 l 84 69 b -65 -147 84 -65 29 -104 l 8 -307 b 304 83 180 -244 304 -157 l 304 737 "},"ӭ":{"x_min":14.9375,"x_max":629.609375,"ha":675,"o":"m 148 890 b 260 1000 212 890 260 938 b 148 1109 260 1061 212 1109 b 35 1000 85 1109 35 1061 b 148 890 35 938 85 890 m 470 890 b 582 1000 533 890 582 938 b 469 1109 582 1061 533 1109 b 358 1000 407 1109 358 1061 b 470 890 358 938 407 890 m 284 761 b 24 675 176 761 92 730 l 117 554 b 271 602 169 587 216 602 b 405 438 352 602 395 552 l 144 438 l 144 312 l 406 312 b 258 136 394 181 335 136 b 112 186 202 136 162 151 l 14 59 b 266 -23 84 6 164 -23 b 629 365 502 -23 629 131 b 284 761 629 604 496 761 "},"Ĩ":{"x_min":-56.9375,"x_max":465.28125,"ha":408,"o":"m 288 1057 b 465 1220 366 1057 429 1126 l 355 1274 b 283 1213 333 1234 313 1213 b 122 1276 237 1213 208 1276 b -56 1111 38 1276 -22 1200 l 52 1058 b 126 1119 75 1097 93 1119 b 288 1057 172 1119 200 1057 m 318 0 l 318 962 l 90 962 l 90 0 l 318 0 "},"←":{"x_min":108,"x_max":1117.875,"ha":1250,"o":"m 670 798 l 526 922 l 108 457 l 526 -8 l 670 115 l 541 255 b 405 368 494 307 456 339 l 1117 368 l 1117 546 l 406 546 b 541 658 458 576 490 603 l 670 798 "},"*":{"x_min":11,"x_max":612,"ha":624,"o":"m 416 711 l 612 743 l 553 919 l 377 830 l 406 1030 l 217 1030 l 245 831 l 67 918 l 11 743 l 206 709 l 67 568 l 220 456 l 312 634 l 403 458 l 556 569 l 416 711 "},"ă":{"x_min":35.984375,"x_max":722.0625,"ha":761,"o":"m 374 877 b 615 1118 520 877 604 984 l 494 1138 b 374 1030 476 1072 438 1030 b 256 1138 310 1030 273 1072 l 135 1118 b 374 877 147 984 229 877 m 672 499 b 366 761 672 670 580 761 b 88 706 283 761 181 741 l 138 562 b 331 601 212 587 284 601 b 456 487 422 601 456 574 l 456 455 l 381 455 b 35 206 158 455 35 367 b 276 -23 35 71 129 -23 b 498 87 363 -23 445 5 b 676 -19 531 13 588 -12 l 722 123 b 672 213 687 135 672 156 l 672 499 m 340 133 b 254 226 285 133 254 167 b 402 334 254 299 302 334 l 456 334 l 456 203 b 340 133 430 159 391 133 "},"Χ":{"x_min":-6,"x_max":812,"ha":807,"o":"m 812 0 l 534 519 l 788 962 l 546 962 l 400 654 l 262 962 l 14 962 l 263 511 l -6 0 l 235 0 l 398 366 l 563 0 l 812 0 "},"†":{"x_min":34.71875,"x_max":698.609375,"ha":735,"o":"m 469 744 l 469 938 l 263 938 l 263 744 l 34 744 l 34 566 l 263 566 l 263 0 l 469 0 l 469 566 l 698 566 l 698 744 l 469 744 "},"°":{"x_min":54.171875,"x_max":550,"ha":724,"o":"m 302 512 b 550 751 425 512 550 601 b 302 986 550 900 425 986 b 54 751 180 986 54 900 b 302 512 54 602 180 512 m 302 641 b 205 751 244 641 205 684 b 302 859 205 818 244 859 b 398 751 361 859 398 818 b 302 641 398 684 361 641 "},"Ξ":{"x_min":39.78125,"x_max":687,"ha":728,"o":"m 660 772 l 687 962 l 39 962 l 39 772 l 660 772 m 593 400 l 593 577 l 130 577 l 130 400 l 593 400 m 687 0 l 687 197 l 39 197 l 39 0 l 687 0 "},"⅗":{"x_min":46.5,"x_max":1300.09375,"ha":1346,"o":"m 1021 991 l 894 1054 l 324 -55 l 451 -117 l 1021 991 m 275 976 b 57 893 189 976 115 947 l 139 807 b 256 855 174 838 213 855 b 329 798 300 855 329 836 b 250 739 329 759 302 739 l 214 739 l 196 628 l 247 628 b 340 555 310 628 340 607 b 254 486 340 508 304 486 b 136 540 209 486 172 501 l 46 454 b 267 361 95 397 165 361 b 510 540 426 361 510 446 b 360 686 510 636 446 680 b 489 829 447 708 489 758 b 275 976 489 912 415 976 m 1251 473 l 1269 585 l 876 585 l 876 261 l 985 261 b 1053 282 1008 275 1030 282 b 1130 197 1099 282 1130 261 b 1039 105 1130 136 1096 105 b 927 162 992 105 956 128 l 836 79 b 1049 -16 881 25 948 -16 b 1300 197 1201 -16 1300 68 b 1122 390 1300 321 1222 390 b 1026 369 1088 390 1059 383 l 1026 473 l 1251 473 "},"Ķ":{"x_min":90.59375,"x_max":896.0625,"ha":879,"o":"m 318 0 l 318 962 l 90 962 l 90 0 l 318 0 m 564 530 l 871 962 l 630 962 l 325 513 l 632 0 l 896 0 l 564 530 m 451 -94 b 341 -201 389 -94 341 -143 b 387 -291 341 -241 361 -270 l 350 -451 l 459 -451 l 523 -318 b 561 -201 550 -265 561 -237 b 451 -94 561 -140 514 -94 "},"ŵ":{"x_min":6,"x_max":1034,"ha":1040,"o":"m 257 951 l 335 861 l 521 988 l 706 861 l 783 951 l 588 1141 l 453 1141 l 257 951 m 881 0 l 1034 737 l 824 737 l 735 164 l 633 737 l 419 737 l 304 164 l 228 737 l 6 737 l 162 0 l 422 0 l 520 541 l 618 0 l 881 0 "},"΄":{"x_min":50,"x_max":318,"ha":364,"o":"m 318 1132 l 102 1176 l 50 838 l 195 814 l 318 1132 "},"ǽ":{"x_min":36.015625,"x_max":1149.96875,"ha":1190,"o":"m 447 863 l 775 995 l 689 1159 l 385 976 l 447 863 m 1149 383 b 816 760 1149 622 1019 760 b 599 667 723 760 652 726 b 374 760 556 724 487 760 b 97 706 291 760 190 741 l 147 560 b 340 599 220 585 292 599 b 465 485 430 599 465 572 l 465 455 l 390 455 b 36 206 160 455 36 367 b 281 -23 36 72 129 -23 b 542 102 384 -23 476 8 b 836 -23 604 24 702 -23 b 1123 79 955 -23 1049 20 l 1033 201 b 857 135 969 156 916 135 b 689 303 765 135 702 172 l 1145 303 b 1149 383 1148 326 1149 359 m 933 435 l 689 435 b 813 615 698 567 741 615 b 933 445 901 615 933 545 l 933 435 m 351 133 b 267 222 297 133 267 166 b 412 330 267 298 315 330 l 467 330 l 467 324 b 483 222 469 288 473 253 b 351 133 445 166 406 133 "},"Β":{"x_min":90.0625,"x_max":819.234375,"ha":857,"o":"m 602 509 b 778 716 691 530 778 594 b 362 962 778 897 620 962 l 90 962 l 90 0 l 399 0 b 819 280 641 0 819 61 b 602 509 819 436 709 488 m 317 801 l 384 801 b 547 694 494 801 547 775 b 402 577 547 613 497 577 l 317 577 l 317 801 m 317 165 l 317 426 l 417 426 b 584 293 516 426 584 390 b 401 165 584 187 508 165 l 317 165 "},"➡":{"x_min":110.78125,"x_max":1333,"ha":1389,"o":"m 110 331 b 180 262 110 290 138 262 l 919 262 l 919 18 l 1333 434 l 919 851 l 919 606 l 180 606 b 110 537 138 606 110 579 l 110 331 "},"Ļ":{"x_min":90.421875,"x_max":693.125,"ha":713,"o":"m 318 180 l 318 962 l 90 962 l 90 0 l 669 0 l 693 180 l 318 180 m 380 -94 b 270 -201 318 -94 270 -143 b 316 -291 270 -241 290 -270 l 279 -451 l 388 -451 l 452 -318 b 490 -201 479 -265 490 -237 b 380 -94 490 -140 443 -94 "},"Õ":{"x_min":46.078125,"x_max":913.921875,"ha":960,"o":"m 566 1057 b 743 1220 644 1057 707 1126 l 633 1274 b 561 1213 611 1234 591 1213 b 400 1276 515 1213 486 1276 b 221 1111 316 1276 255 1200 l 330 1058 b 404 1119 352 1097 371 1119 b 566 1057 450 1119 477 1057 m 479 986 b 46 482 208 986 46 795 b 479 -23 46 161 208 -23 b 913 482 751 -23 913 166 b 479 986 913 802 751 986 m 479 819 b 675 482 608 819 675 725 b 479 143 675 237 609 143 b 284 482 354 143 284 237 b 479 819 284 725 351 819 "},"№":{"x_min":90.1875,"x_max":1530.75,"ha":1594,"o":"m 1226 986 b 921 672 1034 986 921 850 b 1226 355 921 481 1033 355 b 1530 672 1416 355 1530 483 b 1226 986 1530 852 1418 986 m 832 0 l 832 962 l 627 962 l 627 573 b 658 215 627 419 646 293 l 373 962 l 90 962 l 90 0 l 292 0 l 292 352 b 263 745 292 530 274 658 l 541 0 l 832 0 m 1226 850 b 1339 672 1297 850 1339 800 b 1226 493 1339 541 1297 493 b 1112 672 1154 493 1112 541 b 1226 850 1112 800 1154 850 m 933 169 l 933 0 l 1519 0 l 1519 169 l 933 169 "},"Ҙ":{"x_min":-2.453125,"x_max":715.609375,"ha":751,"o":"m 715 273 b 471 511 715 415 619 494 b 685 733 615 540 685 623 b 357 986 685 879 562 986 b 25 858 225 986 115 943 l 135 743 b 326 820 200 795 261 820 b 451 708 417 820 451 770 b 308 588 451 633 400 588 l 229 588 l 203 425 l 304 425 b 476 284 419 425 476 372 b 314 144 476 194 415 144 b 118 230 236 144 178 173 l -2 111 b 300 -23 71 29 169 -16 b 392 -163 369 -69 392 -118 b 314 -234 392 -205 367 -234 b 228 -212 275 -234 248 -223 l 185 -322 b 336 -356 225 -343 275 -356 b 542 -184 457 -356 542 -293 b 425 -16 542 -112 498 -56 b 715 273 600 11 715 118 "},"χ":{"x_min":-31,"x_max":702,"ha":685,"o":"m 702 -272 l 454 257 l 672 733 l 447 756 l 343 412 b 184 757 281 608 245 666 l -31 692 b 228 254 60 594 123 482 l -24 -283 l 199 -307 l 338 83 l 484 -307 l 702 -272 "},"ί":{"x_min":78.921875,"x_max":385.875,"ha":383,"o":"m 385 1133 l 170 1176 l 117 838 l 263 815 l 385 1133 m 298 737 l 78 737 l 78 220 b 294 -24 78 69 152 0 l 358 134 b 298 248 313 155 298 181 l 298 737 "},"Ζ":{"x_min":24.96875,"x_max":718,"ha":756,"o":"m 711 790 l 711 962 l 68 962 l 68 786 l 451 786 l 24 170 l 24 0 l 695 0 l 718 181 l 293 181 l 711 790 "},"Ľ":{"x_min":90.28125,"x_max":693.0625,"ha":713,"o":"m 590 962 l 425 982 l 412 675 l 525 663 l 590 962 m 318 180 l 318 962 l 90 962 l 90 0 l 669 0 l 693 180 l 318 180 "},"ť":{"x_min":2.78125,"x_max":559.71875,"ha":536,"o":"m 494 790 l 559 1088 l 394 1108 l 381 801 l 494 790 m 395 150 b 326 245 350 150 326 175 l 326 584 l 472 584 l 495 737 l 326 737 l 326 922 l 106 897 l 106 737 l 2 737 l 2 584 l 106 584 l 106 243 b 348 -23 106 69 186 -22 b 548 34 415 -23 493 -4 l 475 175 b 395 150 445 156 420 150 "},"5":{"x_min":18.4375,"x_max":699,"ha":744,"o":"m 630 781 l 655 938 l 80 938 l 80 431 l 229 431 b 342 465 272 455 304 465 b 474 308 419 465 474 425 b 322 141 474 200 417 141 b 142 231 246 141 189 175 l 18 118 b 330 -23 89 36 187 -23 b 699 309 554 -23 699 111 b 429 615 699 504 583 615 b 290 584 385 615 337 606 l 290 781 l 630 781 "},"o":{"x_min":44.4375,"x_max":766.671875,"ha":811,"o":"m 405 761 b 44 369 180 761 44 605 b 405 -23 44 120 181 -23 b 766 368 630 -23 766 131 b 405 761 766 616 630 761 m 405 600 b 538 368 494 600 538 531 b 405 137 538 208 494 137 b 272 369 316 137 272 205 b 405 600 272 529 316 600 "},"̆":{"x_min":54,"x_max":533,"ha":0,"o":"m 292 868 b 533 1093 438 868 521 975 l 412 1113 b 292 1019 394 1061 356 1019 b 174 1113 228 1019 191 1061 l 54 1093 b 292 868 65 975 147 868 "},"Ѕ":{"x_min":12.796875,"x_max":760.015625,"ha":794,"o":"m 400 986 b 53 708 200 986 53 877 b 347 409 53 565 132 476 b 523 263 487 366 523 334 b 371 145 523 190 465 145 b 129 241 275 145 197 180 l 12 113 b 378 -23 91 37 211 -23 b 760 280 618 -23 760 101 b 473 591 760 458 655 533 b 287 725 323 638 287 663 b 416 819 287 786 337 819 b 626 738 494 819 561 793 l 733 862 b 400 986 648 943 547 986 "},"̧":{"x_min":41.671875,"x_max":404.171875,"ha":0,"o":"m 259 22 l 138 22 l 118 -155 b 245 -202 206 -155 245 -169 b 180 -244 245 -233 219 -244 b 91 -220 145 -244 119 -234 l 41 -322 b 197 -363 76 -345 131 -363 b 404 -204 323 -363 404 -298 b 259 -66 404 -129 359 -77 l 259 22 "},"d":{"x_min":51.390625,"x_max":747.21875,"ha":833,"o":"m 747 1030 l 527 1054 l 527 691 b 356 760 484 734 425 760 b 51 370 166 760 51 598 b 331 -24 51 131 144 -24 b 541 85 431 -24 498 24 l 552 0 l 747 0 l 747 1030 m 401 137 b 279 369 329 137 279 185 b 413 601 279 534 334 601 b 527 538 462 601 494 577 l 527 220 b 401 137 493 164 452 137 "},",":{"x_min":35.75,"x_max":291.296875,"ha":333,"o":"m 166 227 b 39 102 94 227 39 173 b 95 -1 39 59 60 22 l 35 -245 l 159 -245 l 246 -44 b 291 102 277 23 291 59 b 166 227 291 173 237 227 "},"⌦":{"x_min":139,"x_max":1889,"ha":1944,"o":"m 1361 -16 l 1889 488 l 1361 989 l 208 989 b 139 920 166 989 139 962 l 139 52 b 208 -16 139 11 166 -16 l 1361 -16 m 577 186 l 484 279 l 698 492 l 484 705 l 577 801 l 791 585 l 1005 801 l 1098 705 l 884 492 l 1098 279 l 1005 186 l 791 399 l 577 186 "},"ѣ":{"x_min":4.03125,"x_max":708.203125,"ha":732,"o":"m 312 508 l 312 637 l 477 637 l 497 765 l 312 765 l 312 936 l 92 912 l 92 765 l 4 765 l 4 637 l 92 637 l 92 0 l 379 0 b 708 254 581 0 708 84 b 356 508 708 423 598 508 l 312 508 m 312 144 l 312 368 l 359 368 b 485 256 445 368 485 331 b 365 144 485 176 438 144 l 312 144 "},"\"":{"x_min":66.671875,"x_max":544.4375,"ha":610,"o":"m 66 962 l 93 575 l 237 575 l 265 962 l 66 962 m 345 962 l 372 575 l 518 575 l 544 962 l 345 962 "},"ľ":{"x_min":79.171875,"x_max":570.828125,"ha":572,"o":"m 298 1054 l 79 1030 l 79 184 b 273 -23 79 48 151 -23 b 415 1 325 -23 377 -13 l 372 156 b 336 150 362 152 347 150 b 298 206 312 150 298 165 l 298 1054 m 570 1029 l 405 1050 l 393 741 l 505 730 l 570 1029 "},"Ӳ":{"x_min":-17,"x_max":825,"ha":801,"o":"m 488 1300 l 338 1369 l 216 1095 l 331 1050 l 488 1300 m 730 1295 l 583 1369 l 448 1095 l 562 1043 l 730 1295 m 825 962 l 594 962 l 417 383 l 217 962 l -17 962 l 277 253 l 349 253 b 127 128 305 173 248 144 l 158 -24 b 567 287 374 -4 483 60 l 825 962 "},"ҙ":{"x_min":4.4375,"x_max":645.328125,"ha":692,"o":"m 645 212 b 448 393 645 320 575 375 b 609 558 555 420 609 473 b 321 761 609 686 480 761 b 26 675 200 761 108 731 l 128 559 b 289 609 178 591 225 609 b 387 534 347 609 387 587 b 275 450 387 477 346 450 l 189 450 l 176 308 l 291 308 b 419 225 372 308 419 284 b 297 133 419 159 372 133 b 110 190 225 133 175 148 l 4 65 b 268 -22 75 13 160 -16 b 360 -163 337 -69 360 -118 b 282 -234 360 -205 335 -234 b 196 -212 243 -234 216 -223 l 153 -322 b 304 -356 193 -343 243 -356 b 509 -184 424 -356 509 -293 b 394 -18 509 -112 466 -58 b 645 212 544 2 645 79 "},"ė":{"x_min":44.390625,"x_max":729.03125,"ha":769,"o":"m 391 876 b 522 1001 467 876 522 930 b 391 1126 522 1072 467 1126 b 262 1001 315 1126 262 1072 b 391 876 262 930 315 876 m 729 383 b 388 761 729 622 599 761 b 44 365 165 761 44 586 b 415 -23 44 134 169 -23 b 702 79 534 -23 629 20 l 612 201 b 436 136 548 156 495 136 b 268 304 345 136 283 172 l 724 304 b 729 383 727 326 729 359 m 513 436 l 268 436 b 394 615 277 568 322 615 b 513 445 481 615 512 545 l 513 436 "},"Í":{"x_min":5.5625,"x_max":394.4375,"ha":408,"o":"m 394 1163 l 309 1327 l 5 1154 l 61 1043 l 394 1163 m 318 0 l 318 962 l 90 962 l 90 0 l 318 0 "},"⁾":{"x_min":143.0625,"x_max":408.328125,"ha":551,"o":"m 143 1045 b 252 654 212 936 252 820 b 143 262 252 487 212 372 l 240 197 b 408 654 327 319 408 445 b 240 1111 408 862 327 988 l 143 1045 "},"Ú":{"x_min":76.171875,"x_max":827.8125,"ha":904,"o":"m 643 1163 l 558 1327 l 253 1154 l 309 1043 l 643 1163 m 827 962 l 600 962 l 600 329 b 451 145 600 205 555 145 b 303 329 348 145 303 205 l 303 962 l 76 962 l 76 319 b 451 -23 76 116 199 -23 b 827 319 702 -23 827 125 l 827 962 "},"⬅":{"x_min":56,"x_max":1278.21875,"ha":1389,"o":"m 1278 537 b 1208 606 1278 579 1250 606 l 469 606 l 469 851 l 56 434 l 469 18 l 469 262 l 1208 262 b 1278 331 1250 262 1278 290 l 1278 537 "},"Ŷ":{"x_min":-9.71875,"x_max":834.71875,"ha":825,"o":"m 413 1165 l 598 1048 l 676 1138 l 480 1318 l 347 1318 l 150 1138 l 229 1048 l 413 1165 m 526 361 l 834 962 l 594 962 l 416 538 l 238 962 l -9 962 l 298 359 l 298 0 l 526 0 l 526 361 "},"Ή":{"x_min":90.171875,"x_max":834.828125,"ha":925,"o":"m 654 1163 l 569 1327 l 265 1154 l 320 1043 l 654 1163 m 607 412 l 607 0 l 834 0 l 834 962 l 607 962 l 607 590 l 317 590 l 317 962 l 90 962 l 90 0 l 317 0 l 317 412 l 607 412 "},"Ý":{"x_min":-9.71875,"x_max":834.71875,"ha":825,"o":"m 605 1163 l 520 1327 l 216 1154 l 272 1043 l 605 1163 m 526 361 l 834 962 l 594 962 l 416 538 l 238 962 l -9 962 l 298 359 l 298 0 l 526 0 l 526 361 "},"ŝ":{"x_min":7.921875,"x_max":644.046875,"ha":671,"o":"m 81 951 l 159 861 l 345 988 l 530 861 l 607 951 l 412 1141 l 277 1141 l 81 951 m 345 761 b 44 536 159 761 44 662 b 262 305 44 422 116 347 b 417 201 395 268 417 252 b 309 133 417 158 377 133 b 116 206 238 133 170 162 l 7 86 b 316 -23 80 20 188 -23 b 644 219 499 -23 644 66 b 416 454 644 351 562 412 b 264 548 284 493 264 509 b 360 604 264 581 294 604 b 535 545 417 604 478 583 l 616 670 b 345 761 548 726 452 761 "},"₁":{"x_min":54.171875,"x_max":416.671875,"ha":556,"o":"m 416 -284 l 416 300 l 268 300 l 54 176 l 127 68 l 254 147 l 254 -284 l 416 -284 "},"⁼":{"x_min":80.5625,"x_max":475,"ha":556,"o":"m 80 870 l 80 754 l 475 754 l 475 870 l 80 870 m 80 686 l 80 569 l 475 569 l 475 686 l 80 686 "},"ą":{"x_min":35.984375,"x_max":721,"ha":761,"o":"m 721 123 b 671 213 686 135 671 156 l 671 499 b 365 760 671 670 579 760 b 88 706 282 760 181 741 l 138 562 b 331 601 212 587 284 601 b 456 487 421 601 456 574 l 456 455 l 381 455 b 35 206 158 455 35 367 b 275 -23 35 71 128 -23 b 497 87 363 -23 444 5 b 548 20 511 57 528 35 b 353 -198 429 -26 353 -94 b 557 -361 353 -298 439 -361 b 654 -350 594 -361 625 -357 l 669 -214 b 585 -225 637 -221 612 -225 b 511 -161 535 -225 511 -203 b 675 -19 511 -122 539 -71 l 721 123 m 339 132 b 253 226 285 132 253 167 b 402 334 253 299 302 334 l 456 334 l 456 203 b 339 132 429 159 390 132 "},"ѵ":{"x_min":-8,"x_max":737.828125,"ha":713,"o":"m 526 750 b 461 583 501 718 482 669 l 361 164 l 229 737 l -8 737 l 229 0 l 487 0 l 654 529 b 737 723 686 633 708 680 l 526 750 "},"ᾶ":{"x_min":47.0625,"x_max":798.453125,"ha":835,"o":"m 476 882 b 652 1045 554 882 616 951 l 542 1099 b 470 1038 520 1059 501 1038 b 309 1101 424 1038 395 1101 b 130 936 226 1101 165 1025 l 240 883 b 313 944 262 922 280 944 b 476 882 359 944 387 882 m 349 761 b 47 362 158 761 47 594 b 327 -24 47 109 158 -24 b 556 156 441 -24 510 39 l 566 106 b 727 -24 584 26 642 -12 l 798 139 b 720 215 756 148 733 167 l 684 360 l 780 737 l 592 737 l 569 569 b 349 761 542 694 472 761 m 377 601 b 515 377 447 601 484 548 b 374 135 481 184 433 135 b 267 362 313 135 267 196 b 377 601 267 526 313 601 "},"​":{"x_min":0,"x_max":0,"ha":0},"ӟ":{"x_min":4.171875,"x_max":645.328125,"ha":692,"o":"m 162 1109 b 50 1000 100 1109 50 1061 b 162 890 50 938 100 890 b 274 1000 226 890 274 938 b 162 1109 274 1061 226 1109 m 484 1109 b 371 1000 421 1109 371 1061 b 484 890 371 938 421 890 b 596 1000 548 890 596 938 b 484 1109 596 1061 548 1109 m 320 761 b 26 675 199 761 108 731 l 127 559 b 288 609 177 591 224 609 b 387 534 346 609 387 587 b 274 450 387 477 345 450 l 188 450 l 176 308 l 291 308 b 419 225 371 308 419 284 b 297 133 419 159 371 133 b 109 190 224 133 174 148 l 4 65 b 303 -23 81 8 179 -23 b 645 212 502 -23 645 54 b 448 393 645 320 575 375 b 609 558 555 420 609 473 b 320 761 609 686 480 761 "},"ã":{"x_min":35.984375,"x_max":722.046875,"ha":761,"o":"m 298 944 b 460 882 344 944 372 882 b 637 1045 538 882 601 951 l 527 1099 b 455 1038 505 1059 485 1038 b 294 1101 409 1038 380 1101 b 115 936 210 1101 149 1025 l 224 883 b 298 944 247 922 265 944 m 672 499 b 366 761 672 670 580 761 b 88 706 283 761 181 741 l 138 562 b 331 601 212 587 284 601 b 456 487 422 601 456 574 l 456 455 l 381 455 b 35 206 158 455 35 367 b 276 -23 35 71 129 -23 b 498 87 363 -23 445 5 b 676 -19 531 13 588 -12 l 722 123 b 672 213 687 135 672 156 l 672 499 m 340 133 b 254 226 285 133 254 167 b 402 334 254 299 302 334 l 456 334 l 456 203 b 340 133 430 159 391 133 "},"æ":{"x_min":36.015625,"x_max":1149.96875,"ha":1190,"o":"m 1149 383 b 816 760 1149 622 1019 760 b 599 667 723 760 652 726 b 374 760 556 724 487 760 b 97 706 291 760 190 741 l 147 560 b 340 599 220 585 292 599 b 465 485 430 599 465 572 l 465 455 l 390 455 b 36 206 160 455 36 367 b 281 -23 36 72 129 -23 b 542 102 384 -23 476 8 b 836 -23 604 24 702 -23 b 1123 79 955 -23 1049 20 l 1033 201 b 857 135 969 156 916 135 b 689 303 765 135 702 172 l 1145 303 b 1149 383 1148 326 1149 359 m 933 435 l 689 435 b 813 615 698 567 741 615 b 933 445 901 615 933 545 l 933 435 m 351 133 b 267 222 297 133 267 166 b 412 330 267 298 315 330 l 467 330 l 467 324 b 483 222 469 288 473 253 b 351 133 445 166 406 133 "},"ĩ":{"x_min":-65.28125,"x_max":456.9375,"ha":392,"o":"m 280 882 b 456 1045 358 882 420 951 l 347 1099 b 275 1038 325 1059 305 1038 b 113 1101 229 1038 200 1101 b -65 936 30 1101 -30 1025 l 44 883 b 118 944 66 922 84 944 b 280 882 163 944 191 882 m 305 0 l 305 737 l 86 737 l 86 0 l 305 0 "},"~":{"x_min":22,"x_max":691,"ha":714,"o":"m 245 568 b 22 392 128 568 65 478 l 142 328 b 235 406 164 370 185 406 b 468 322 302 406 344 322 b 691 495 585 322 647 409 l 570 559 b 478 485 548 517 527 485 b 245 568 410 485 369 568 "},"ŀ":{"x_min":78.9375,"x_max":624.765625,"ha":621,"o":"m 298 1054 l 78 1030 l 78 184 b 273 -23 78 48 151 -23 b 415 1 324 -23 377 -14 l 371 156 b 335 149 362 152 346 149 b 298 206 312 149 298 165 l 298 1054 m 494 644 b 365 520 417 644 365 590 b 494 395 365 449 417 395 b 624 520 570 395 624 449 b 494 644 624 590 570 644 "},"Ċ":{"x_min":45.828125,"x_max":787.5,"ha":799,"o":"m 490 1301 b 361 1176 413 1301 361 1247 b 490 1051 361 1105 413 1051 b 620 1176 566 1051 620 1105 b 490 1301 620 1247 566 1301 m 479 986 b 45 483 231 986 45 805 b 486 -23 45 154 222 -23 b 787 100 619 -23 725 36 l 684 233 b 497 152 629 190 573 152 b 284 483 369 152 284 251 b 493 818 284 719 370 818 b 665 748 559 818 613 793 l 776 880 b 479 986 697 947 609 986 "},"Ӥ":{"x_min":90.328125,"x_max":831.671875,"ha":921,"o":"m 300 1284 b 187 1175 237 1284 187 1236 b 300 1065 187 1113 237 1065 b 412 1175 363 1065 412 1113 b 300 1284 412 1236 363 1284 m 621 1284 b 509 1175 559 1284 509 1236 b 621 1065 509 1113 559 1065 b 734 1175 685 1065 734 1113 b 621 1284 734 1236 685 1284 m 831 0 l 831 962 l 562 962 l 280 226 b 313 596 295 319 313 420 l 313 962 l 90 962 l 90 0 l 363 0 l 640 739 b 608 359 624 653 608 527 l 608 0 l 831 0 "},"¡":{"x_min":41.671875,"x_max":293.0625,"ha":333,"o":"m 166 706 b 41 581 97 706 41 650 b 166 456 41 513 97 456 b 293 581 237 456 293 513 b 166 706 293 650 237 706 m 284 -284 l 255 326 l 79 326 l 51 -284 l 284 -284 "},"ẅ":{"x_min":5.5625,"x_max":1033.328125,"ha":1040,"o":"m 358 1109 b 245 1000 295 1109 245 1061 b 358 890 245 938 295 890 b 470 1000 422 890 470 938 b 358 1109 470 1061 422 1109 m 680 1109 b 568 1000 618 1109 568 1061 b 680 890 568 938 618 890 b 793 1000 744 890 793 938 b 680 1109 793 1061 744 1109 m 880 0 l 1033 737 l 823 737 l 734 164 l 633 737 l 419 737 l 304 164 l 227 737 l 5 737 l 162 0 l 422 0 l 519 541 l 618 0 l 880 0 "},"‌":{"x_min":-11.109375,"x_max":11.109375,"ha":0,"o":"m 11 -208 l 11 1041 l -11 1041 l -11 -208 l 11 -208 "},"К":{"x_min":90.28125,"x_max":873.609375,"ha":865,"o":"m 609 526 l 847 962 l 623 962 l 423 584 l 318 584 l 318 962 l 90 962 l 90 0 l 318 0 l 318 418 l 418 418 l 625 0 l 873 0 l 609 526 "},"ΰ":{"x_min":78.75,"x_max":726.890625,"ha":785,"o":"m 592 1213 l 511 1379 l 200 1211 l 256 1100 l 592 1213 m 219 1069 b 106 959 153 1069 106 1020 b 219 850 106 898 153 850 b 330 959 280 850 330 898 b 219 1069 330 1020 280 1069 m 557 1069 b 445 959 494 1069 445 1020 b 557 850 445 898 494 850 b 669 959 619 850 669 898 b 557 1069 669 1020 619 1069 m 469 737 b 505 362 491 608 505 476 b 381 137 505 191 441 137 b 298 254 331 137 298 169 l 298 737 l 78 737 l 78 241 b 365 -23 78 58 210 -23 b 726 344 543 -23 726 81 b 686 737 726 498 707 625 l 469 737 "},"Γ":{"x_min":90.28125,"x_max":706.953125,"ha":708,"o":"m 681 783 l 706 962 l 90 962 l 90 0 l 318 0 l 318 783 l 681 783 "},"ѳ":{"x_min":44,"x_max":767,"ha":811,"o":"m 405 761 b 44 369 180 761 44 605 b 405 -23 44 120 181 -23 b 767 368 630 -23 767 131 b 405 761 767 616 630 761 m 405 600 b 542 436 484 600 529 551 l 269 436 b 405 600 280 548 324 600 m 405 137 b 267 313 321 137 277 190 l 542 313 b 405 137 532 191 487 137 "},"⇧":{"x_min":83.328125,"x_max":916.671875,"ha":1000,"o":"m 612 -16 b 681 52 654 -16 681 11 l 681 741 l 916 741 l 500 1155 l 83 741 l 318 741 l 318 52 b 387 -16 318 11 345 -16 l 612 -16 m 616 804 l 616 44 l 383 44 l 383 804 l 234 804 l 500 1066 l 765 804 l 616 804 "},"P":{"x_min":90.28125,"x_max":802.78125,"ha":833,"o":"m 90 962 l 90 0 l 318 0 l 318 320 l 422 320 b 802 648 644 320 802 425 b 401 962 802 859 650 962 l 90 962 m 318 484 l 318 800 l 398 800 b 568 648 511 800 568 751 b 402 484 568 527 505 484 l 318 484 "},"%":{"x_min":40.28125,"x_max":1152.78125,"ha":1193,"o":"m 987 913 l 852 1000 l 209 30 l 344 -55 l 987 913 m 287 958 b 40 708 150 958 40 861 b 287 458 40 555 150 458 b 534 708 426 458 534 555 b 287 958 534 861 426 958 m 287 826 b 376 708 359 826 376 766 b 287 590 376 648 359 590 b 197 708 215 590 197 650 b 287 826 197 768 215 826 m 905 475 b 656 226 766 475 656 379 b 905 -23 656 72 766 -23 b 1152 226 1044 -23 1152 72 b 905 475 1152 379 1044 475 m 905 343 b 994 226 977 343 994 284 b 905 106 994 166 977 106 b 815 226 833 106 815 168 b 905 343 815 284 833 343 "},"_":{"x_min":13.890625,"x_max":708.328125,"ha":722,"o":"m 13 -65 l 13 -237 l 708 -237 l 708 -65 l 13 -65 "},"ñ":{"x_min":85.875,"x_max":722.109375,"ha":801,"o":"m 328 944 b 491 882 374 944 402 882 b 667 1045 569 882 631 951 l 558 1099 b 485 1038 535 1059 516 1038 b 324 1101 440 1038 410 1101 b 145 936 241 1101 180 1025 l 255 883 b 328 944 277 922 295 944 m 517 761 b 292 649 426 761 355 723 l 277 737 l 85 737 l 85 0 l 305 0 l 305 504 b 433 599 344 565 384 599 b 502 501 476 599 502 579 l 502 0 l 722 0 l 722 538 b 517 761 722 679 645 761 "},"Ŕ":{"x_min":90.671875,"x_max":861.515625,"ha":857,"o":"m 285 1043 l 618 1163 l 533 1327 l 229 1154 l 285 1043 m 407 368 l 604 0 l 861 0 l 617 409 b 801 669 742 466 801 543 b 405 962 801 869 667 962 l 90 962 l 90 0 l 318 0 l 318 368 l 407 368 m 318 525 l 318 802 l 400 802 b 567 669 512 802 567 762 b 414 525 567 568 514 525 l 318 525 "},"↖":{"x_min":209.71875,"x_max":1038.890625,"ha":1250,"o":"m 904 -8 l 1038 130 l 525 644 b 695 630 587 627 620 625 l 888 643 l 877 820 l 241 788 l 209 147 l 402 135 l 415 326 b 394 504 419 396 412 444 l 904 -8 "},"‚":{"x_min":43.125,"x_max":284.78125,"ha":338,"o":"m 168 197 b 50 86 101 197 50 150 b 101 -9 50 43 69 12 l 43 -226 l 155 -226 l 244 -44 b 284 84 273 16 284 48 b 168 197 284 150 234 197 "},"⅞":{"x_min":71.046875,"x_max":1221.8125,"ha":1254,"o":"m 930 991 l 802 1054 l 232 -55 l 359 -118 l 930 991 m 114 415 l 260 361 l 483 854 l 483 962 l 71 962 l 71 843 l 316 843 l 114 415 m 1099 313 b 1198 447 1170 350 1198 401 b 976 598 1198 540 1109 598 b 753 438 841 598 753 529 b 842 298 753 387 776 337 b 728 156 770 269 728 223 b 971 -16 728 63 816 -16 b 1221 158 1134 -16 1221 66 b 1099 313 1221 222 1187 273 m 977 493 b 1039 437 1017 493 1039 470 b 994 356 1039 409 1032 383 l 971 365 b 912 436 927 380 912 405 b 977 493 912 476 937 493 m 977 97 b 892 165 924 97 892 123 b 942 252 892 201 909 231 l 978 240 b 1059 161 1035 219 1059 201 b 977 97 1059 126 1032 97 "},"Æ":{"x_min":-32,"x_max":1127.984375,"ha":1174,"o":"m 1127 163 l 808 163 l 758 406 l 1064 406 l 1064 566 l 725 566 l 677 800 l 1052 800 l 1076 962 l 345 962 l -32 0 l 212 0 l 281 206 l 580 206 l 616 0 l 1127 0 l 1127 163 m 552 372 l 337 372 l 479 795 l 552 372 "},"Ū":{"x_min":76.390625,"x_max":827.78125,"ha":904,"o":"m 238 1081 l 662 1081 l 662 1234 l 238 1234 l 238 1081 m 827 962 l 600 962 l 600 329 b 451 145 600 205 555 145 b 304 329 348 145 304 205 l 304 962 l 76 962 l 76 319 b 451 -23 76 116 200 -23 b 827 319 702 -23 827 125 l 827 962 "},"ы":{"x_min":86.109375,"x_max":970.828125,"ha":1057,"o":"m 305 508 l 305 737 l 86 737 l 86 0 l 376 0 b 688 252 555 0 688 83 b 344 508 688 418 587 508 l 305 508 m 970 737 l 751 737 l 751 0 l 970 0 l 970 737 m 305 144 l 305 368 l 340 368 b 465 256 433 368 465 329 b 352 144 465 180 425 144 l 305 144 "},"ѓ":{"x_min":85.890625,"x_max":608.109375,"ha":601,"o":"m 527 995 l 441 1159 l 138 976 l 199 863 l 527 995 m 85 0 l 305 0 l 305 570 l 581 570 l 608 737 l 85 737 l 85 0 "},"Œ":{"x_min":45.40625,"x_max":1206.515625,"ha":1263,"o":"m 1139 409 l 1139 569 l 880 569 b 794 800 869 656 839 736 l 1182 800 l 1206 962 l 595 962 b 456 986 553 977 506 986 b 45 481 207 986 45 795 b 456 -23 45 161 207 -23 b 588 0 503 -23 549 -15 l 1206 0 l 1206 163 l 788 163 b 881 409 839 230 870 316 l 1139 409 m 464 143 b 284 481 353 143 284 237 b 464 819 284 725 350 819 b 646 481 580 819 646 725 b 464 143 646 237 581 143 "},"΅":{"x_min":42.21875,"x_max":633.890625,"ha":675,"o":"m 497 1287 l 313 1319 l 272 1043 l 396 1022 l 497 1287 m 153 1061 b 42 954 92 1061 42 1013 b 153 847 42 894 92 847 b 263 954 214 847 263 894 b 153 1061 263 1013 214 1061 m 522 1061 b 413 954 463 1061 413 1013 b 522 847 413 894 463 847 b 633 954 586 847 633 894 b 522 1061 633 1013 586 1061 "},"Ą":{"x_min":-18.28125,"x_max":838.671875,"ha":819,"o":"m 838 0 l 548 962 l 272 962 l -18 0 l 217 0 l 266 206 l 547 206 l 588 36 b 399 -179 472 -9 399 -76 b 603 -341 399 -279 485 -341 b 701 -330 641 -341 672 -337 l 716 -194 b 631 -205 684 -201 659 -205 b 558 -141 581 -205 558 -183 b 722 0 558 -102 585 -51 l 838 0 m 508 372 l 305 372 l 406 797 l 508 372 "},"Њ":{"x_min":90.28125,"x_max":1300,"ha":1321,"o":"m 827 615 l 827 962 l 600 962 l 600 615 l 318 615 l 318 962 l 90 962 l 90 0 l 318 0 l 318 452 l 600 452 l 600 0 l 923 0 b 1300 315 1141 0 1300 97 b 911 615 1300 515 1152 615 l 827 615 m 827 166 l 827 452 l 898 452 b 1061 313 1009 452 1061 409 b 908 166 1061 209 1005 166 l 827 166 "},"›":{"x_min":50,"x_max":448.78125,"ha":499,"o":"m 448 463 l 186 772 l 50 681 l 229 395 l 50 108 l 186 18 l 448 324 l 448 463 "},"ћ":{"x_min":4.171875,"x_max":726.390625,"ha":806,"o":"m 520 761 b 308 658 434 761 368 726 l 308 827 l 484 827 l 502 955 l 308 955 l 308 1053 l 88 1030 l 88 955 l 4 955 l 4 827 l 88 827 l 88 0 l 308 0 l 308 505 b 436 599 347 565 388 599 b 506 501 477 599 506 579 l 506 0 l 726 0 l 726 538 b 520 761 726 679 648 761 "},"→":{"x_min":132.125,"x_max":1142,"ha":1250,"o":"m 1142 456 l 723 922 l 579 798 l 708 658 b 843 545 759 602 791 576 l 132 545 l 132 368 l 844 368 b 708 255 793 338 755 306 l 579 115 l 723 -8 l 1142 456 "},"<":{"x_min":47,"x_max":672,"ha":721,"o":"m 672 645 l 602 800 l 47 558 l 47 365 l 602 125 l 672 284 l 233 462 l 672 645 "},"¬":{"x_min":66.671875,"x_max":670.828125,"ha":738,"o":"m 670 158 l 670 541 l 66 541 l 66 370 l 488 370 l 488 158 l 670 158 "},"t":{"x_min":2.78125,"x_max":548.609375,"ha":536,"o":"m 475 175 b 395 150 445 156 420 150 b 326 245 350 150 326 175 l 326 584 l 472 584 l 495 737 l 326 737 l 326 922 l 106 897 l 106 737 l 2 737 l 2 584 l 106 584 l 106 243 b 348 -23 106 69 186 -22 b 548 34 415 -23 493 -4 l 475 175 "},"Ц":{"x_min":90.28125,"x_max":933.328125,"ha":957,"o":"m 933 173 l 822 173 l 822 962 l 594 962 l 594 177 l 318 177 l 318 962 l 90 962 l 90 0 l 751 0 l 776 -230 l 933 -230 l 933 173 "},"ù":{"x_min":78.734375,"x_max":708.21875,"ha":794,"o":"m 602 976 l 299 1159 l 213 995 l 541 863 l 602 976 m 708 0 l 708 737 l 488 737 l 488 225 b 369 138 456 169 415 138 b 298 236 323 138 298 161 l 298 737 l 78 737 l 78 208 b 284 -23 78 65 146 -23 b 508 93 381 -23 453 15 l 517 0 l 708 0 "},"ï":{"x_min":-77.78125,"x_max":469.4375,"ha":392,"o":"m 34 1109 b -77 1000 -27 1109 -77 1061 b 34 890 -77 938 -27 890 b 147 1000 98 890 147 938 b 34 1109 147 1061 98 1109 m 356 1109 b 244 1000 294 1109 244 1061 b 356 890 244 938 294 890 b 469 1000 420 890 469 938 b 356 1109 469 1061 420 1109 m 305 0 l 305 737 l 86 737 l 86 0 l 305 0 "},"Ф":{"x_min":29.171875,"x_max":1155.5625,"ha":1185,"o":"m 1155 487 b 702 908 1155 766 976 895 l 702 1015 l 481 1015 l 481 908 b 29 480 211 897 29 768 b 481 59 29 201 208 72 l 481 -55 l 702 -55 l 702 59 b 1155 487 973 70 1155 200 m 693 768 b 923 487 851 756 923 669 b 693 200 923 301 856 212 l 693 768 m 261 480 b 491 768 261 666 327 755 l 491 200 b 261 480 333 211 261 298 "},"ὰ":{"x_min":47.125,"x_max":798.515625,"ha":835,"o":"m 599 976 l 297 1159 l 211 995 l 538 863 l 599 976 m 349 761 b 47 362 158 761 47 594 b 327 -24 47 109 158 -24 b 556 156 441 -24 511 39 l 566 106 b 727 -24 584 26 642 -12 l 798 139 b 720 215 756 148 733 167 l 684 360 l 780 737 l 592 737 l 569 569 b 349 761 542 694 472 761 m 377 601 b 515 377 447 601 484 548 b 374 135 481 184 433 135 b 267 362 313 135 267 196 b 377 601 267 526 313 601 "},"Ò":{"x_min":46.109375,"x_max":914.15625,"ha":960,"o":"m 666 1154 l 361 1327 l 278 1163 l 611 1043 l 666 1154 m 479 986 b 46 481 208 986 46 795 b 479 -23 46 161 208 -23 b 914 481 751 -23 914 166 b 479 986 914 802 751 986 m 479 819 b 675 481 608 819 675 725 b 479 143 675 237 609 143 b 284 481 354 143 284 237 b 479 819 284 725 351 819 "},"I":{"x_min":90.28125,"x_max":318.0625,"ha":408,"o":"m 318 0 l 318 962 l 90 962 l 90 0 l 318 0 "},"˝":{"x_min":42,"x_max":556,"ha":597,"o":"m 314 1124 l 164 1194 l 42 920 l 157 874 l 314 1124 m 556 1120 l 408 1194 l 274 920 l 387 867 l 556 1120 "},"₉":{"x_min":38.078125,"x_max":517.25,"ha":556,"o":"m 276 313 b 38 108 140 313 38 230 b 214 -82 38 -14 120 -82 b 340 -32 270 -82 307 -65 b 81 -198 311 -127 236 -165 l 115 -312 b 517 87 390 -265 517 -150 b 276 313 517 219 436 313 m 270 22 b 204 116 233 22 204 40 b 276 202 204 174 232 202 b 346 62 332 202 347 165 b 270 22 325 33 296 22 "},"Һ":{"x_min":90.28125,"x_max":834.71875,"ha":871,"o":"m 531 653 b 318 576 441 653 373 625 l 318 954 l 90 954 l 90 0 l 318 0 l 318 423 b 469 484 355 461 401 484 b 606 316 565 484 606 430 l 606 0 l 834 0 l 834 318 b 531 653 834 525 727 653 "},"ҡ":{"x_min":-4.171875,"x_max":876.390625,"ha":874,"o":"m 876 0 l 663 395 l 859 737 l 648 737 l 490 450 l 416 450 l 416 737 l -4 737 l -4 580 l 197 580 l 197 0 l 416 0 l 416 316 l 484 316 l 644 0 l 876 0 "},"·":{"x_min":40.28125,"x_max":291.671875,"ha":333,"o":"m 166 552 b 40 427 95 552 40 495 b 166 301 40 358 95 301 b 291 427 236 301 291 358 b 166 552 291 495 236 552 "},"¿":{"x_min":19.4375,"x_max":648.609375,"ha":668,"o":"m 368 456 b 493 581 437 456 493 513 b 368 706 493 650 437 706 b 241 581 297 706 241 650 b 368 456 241 513 297 456 m 323 -308 b 648 -159 466 -308 570 -252 l 509 -51 b 345 -136 459 -108 402 -136 b 250 -56 284 -136 250 -106 b 469 277 250 56 469 40 l 469 327 l 269 327 l 269 286 b 19 -76 269 133 19 148 b 323 -308 19 -200 122 -308 "},"Ђ":{"x_min":12.5,"x_max":1005.5625,"ha":1042,"o":"m 702 652 b 488 575 611 652 544 625 l 488 790 l 726 790 l 748 962 l 12 962 l 12 790 l 261 790 l 261 0 l 488 0 l 488 423 b 641 484 526 461 572 484 b 777 316 737 484 777 430 l 777 154 b 636 -73 777 40 759 -24 l 695 -234 b 1005 146 859 -181 1005 -96 l 1005 318 b 702 652 1005 525 898 652 "},"ű":{"x_min":78.75,"x_max":717.640625,"ha":794,"o":"m 475 1125 l 325 1194 l 203 920 l 319 875 l 475 1125 m 717 1120 l 570 1194 l 435 920 l 549 868 l 717 1120 m 707 0 l 707 737 l 488 737 l 488 225 b 369 138 456 169 414 138 b 298 236 323 138 298 161 l 298 737 l 78 737 l 78 208 b 284 -23 78 65 146 -23 b 507 93 381 -23 453 15 l 517 0 l 707 0 "},"₃":{"x_min":46.5,"x_max":510.390625,"ha":556,"o":"m 275 313 b 57 230 189 313 115 284 l 139 144 b 256 193 174 176 213 193 b 329 136 300 193 329 173 b 250 76 329 97 302 76 l 214 76 l 196 -34 l 247 -34 b 340 -106 310 -34 340 -55 b 254 -176 340 -154 304 -176 b 136 -122 209 -176 172 -161 l 46 -208 b 267 -301 95 -265 165 -301 b 510 -122 427 -301 510 -216 b 360 23 510 -26 446 18 b 489 166 447 45 489 95 b 275 313 489 250 415 313 "},"Ǽ":{"x_min":-32,"x_max":1127.984375,"ha":1174,"o":"m 529 1043 l 862 1163 l 777 1327 l 473 1154 l 529 1043 m 1127 163 l 808 163 l 758 406 l 1064 406 l 1064 566 l 725 566 l 677 800 l 1052 800 l 1076 962 l 345 962 l -32 0 l 212 0 l 281 206 l 580 206 l 616 0 l 1127 0 l 1127 163 m 552 372 l 337 372 l 479 795 l 552 372 "},"φ":{"x_min":51.390625,"x_max":995.828125,"ha":1049,"o":"m 995 375 b 697 761 995 633 895 761 b 418 451 516 761 418 645 l 418 127 b 263 358 305 144 263 212 b 344 737 263 493 304 616 l 136 737 b 51 336 93 629 51 493 b 418 -20 51 132 163 1 l 418 -308 l 623 -284 l 623 -20 b 995 375 876 1 995 123 m 623 457 b 698 612 623 588 651 612 b 783 372 756 612 783 569 b 623 129 783 207 748 143 l 623 457 "},";":{"x_min":35.75,"x_max":291.296875,"ha":333,"o":"m 166 706 b 39 581 95 706 39 650 b 166 456 39 513 95 456 b 291 581 235 456 291 513 b 166 706 291 650 235 706 m 166 227 b 39 102 94 227 39 173 b 95 -1 39 59 60 22 l 35 -245 l 159 -245 l 246 -44 b 291 102 277 23 291 59 b 166 227 291 173 237 227 "},"Ș":{"x_min":13.75,"x_max":760.015625,"ha":794,"o":"m 401 986 b 54 708 201 986 54 877 b 348 409 54 565 133 476 b 524 263 488 366 524 334 b 371 145 524 190 466 145 b 130 241 276 145 198 180 l 13 113 b 378 -23 92 37 212 -23 b 760 280 618 -23 760 101 b 474 591 760 458 656 533 b 288 725 324 638 288 663 b 417 819 288 786 338 819 b 626 738 495 819 561 793 l 733 862 b 401 986 649 943 547 986 m 395 -94 b 285 -201 333 -94 285 -143 b 331 -291 285 -241 305 -270 l 294 -451 l 403 -451 l 467 -318 b 504 -201 493 -265 504 -237 b 395 -94 504 -140 457 -94 "},"Ġ":{"x_min":45.625,"x_max":833,"ha":896,"o":"m 487 1301 b 358 1176 410 1301 358 1247 b 487 1051 358 1105 410 1051 b 617 1176 563 1051 617 1105 b 487 1301 617 1247 563 1301 m 505 986 b 45 481 249 986 45 808 b 483 -23 45 152 192 -23 b 833 77 609 -23 734 13 l 833 554 l 465 554 l 487 393 l 612 393 l 612 175 b 481 143 571 152 528 143 b 281 481 348 143 281 229 b 516 820 281 720 381 820 b 709 744 594 820 646 797 l 827 868 b 505 986 748 937 644 986 "},"6":{"x_min":52.3125,"x_max":748.140625,"ha":783,"o":"m 478 632 b 280 546 407 632 338 605 b 466 801 292 710 360 801 b 593 765 514 801 555 787 l 674 896 b 460 958 620 932 549 958 b 52 429 206 958 52 747 b 407 -23 52 160 159 -23 b 748 321 617 -23 748 129 b 478 632 748 519 632 632 m 410 133 b 280 407 316 133 282 211 b 417 480 320 454 367 480 b 528 318 489 480 528 439 b 410 133 528 207 489 133 "},"n":{"x_min":86.109375,"x_max":722.21875,"ha":801,"o":"m 518 761 b 293 649 426 761 355 723 l 277 737 l 86 737 l 86 0 l 305 0 l 305 504 b 433 599 344 565 384 599 b 502 501 476 599 502 579 l 502 0 l 722 0 l 722 538 b 518 761 722 679 645 761 "},"ά":{"x_min":47.21875,"x_max":798.609375,"ha":835,"o":"m 588 1133 l 373 1176 l 320 838 l 466 815 l 588 1133 m 350 761 b 47 362 158 761 47 594 b 327 -24 47 109 158 -24 b 556 156 441 -24 511 39 l 566 106 b 727 -24 584 26 643 -12 l 798 139 b 720 215 756 148 733 167 l 684 360 l 780 737 l 593 737 l 569 569 b 350 761 543 694 472 761 m 377 601 b 515 377 447 601 484 548 b 375 135 481 184 433 135 b 268 362 313 135 268 196 b 377 601 268 526 313 601 "},"ϊ":{"x_min":-85.234375,"x_max":462,"ha":383,"o":"m 27 1109 b -85 1000 -35 1109 -85 1061 b 27 890 -85 938 -35 890 b 139 1000 91 890 139 938 b 27 1109 139 1061 91 1109 m 349 1109 b 237 1000 287 1109 237 1061 b 349 890 237 938 287 890 b 462 1000 413 890 462 938 b 349 1109 462 1061 413 1109 m 298 737 l 78 737 l 78 220 b 293 -24 78 69 152 0 l 357 134 b 298 248 313 155 298 181 l 298 737 "},"﻿":{"x_min":0,"x_max":0,"ha":0},"ὸ":{"x_min":44.171875,"x_max":766.859375,"ha":811,"o":"m 614 976 l 310 1159 l 224 995 l 552 863 l 614 976 m 405 761 b 44 369 180 761 44 605 b 405 -23 44 120 181 -23 b 766 368 630 -23 766 131 b 405 761 766 616 630 761 m 405 600 b 538 368 494 600 538 531 b 405 137 538 208 494 137 b 272 369 316 137 272 205 b 405 600 272 529 316 600 "},"ģ":{"x_min":7.234375,"x_max":763.828125,"ha":765,"o":"m 379 832 b 489 939 441 832 489 880 b 443 1029 489 979 469 1008 l 480 1189 l 371 1189 l 307 1055 b 269 939 280 1003 269 975 b 379 832 269 878 316 832 m 712 857 b 365 761 623 804 529 757 b 41 491 172 761 41 658 b 173 280 41 396 79 330 b 86 139 121 247 86 193 b 312 -6 86 59 151 -6 l 419 -6 b 525 -78 493 -6 525 -35 b 365 -162 525 -126 494 -162 b 204 -70 232 -162 204 -134 l 7 -70 b 359 -308 7 -216 80 -308 b 745 -63 612 -308 745 -215 b 464 150 745 59 636 150 l 352 150 b 272 194 282 150 272 172 b 296 236 272 211 280 228 b 380 228 322 230 350 228 b 690 475 572 228 690 332 b 551 665 690 571 644 625 b 763 694 644 665 712 673 l 712 857 m 371 616 b 482 497 444 616 482 579 b 371 369 482 412 443 369 b 259 494 304 369 259 414 b 371 616 259 571 303 616 "},"∂":{"x_min":24.8125,"x_max":708.375,"ha":751,"o":"m 113 835 b 484 523 329 781 444 701 b 291 617 440 583 380 617 b 24 305 142 617 24 492 b 362 -23 24 101 167 -23 b 708 363 590 -23 708 148 b 162 985 708 717 554 903 l 113 835 m 363 131 b 244 298 287 131 244 198 b 356 458 244 422 298 458 b 481 376 409 458 448 431 b 363 131 481 219 456 131 "},"κ":{"x_min":62.5,"x_max":779.171875,"ha":771,"o":"m 755 679 l 561 760 l 318 390 l 501 109 b 705 -24 551 27 613 -11 l 779 140 b 698 205 738 156 723 173 l 551 397 l 755 679 m 62 729 b 93 530 77 680 93 609 l 93 0 l 312 0 l 312 479 b 265 757 312 633 291 704 l 62 729 "},"‡":{"x_min":34.71875,"x_max":698.609375,"ha":735,"o":"m 469 566 l 698 566 l 698 744 l 469 744 l 469 938 l 263 938 l 263 744 l 34 744 l 34 566 l 263 566 l 263 379 l 34 379 l 34 201 l 263 201 l 263 0 l 469 0 l 469 201 l 698 201 l 698 379 l 469 379 l 469 566 "},"ň":{"x_min":86,"x_max":722.109375,"ha":801,"o":"m 341 848 l 474 848 l 670 1038 l 592 1129 l 408 1002 l 223 1129 l 144 1038 l 341 848 m 517 761 b 292 649 426 761 355 723 l 277 737 l 86 737 l 86 0 l 305 0 l 305 504 b 433 599 344 565 384 599 b 502 501 476 599 502 579 l 502 0 l 722 0 l 722 538 b 517 761 722 679 645 761 "},"Ӯ":{"x_min":-16.015625,"x_max":825.65625,"ha":801,"o":"m 188 1081 l 611 1081 l 611 1234 l 188 1234 l 188 1081 m 825 962 l 595 962 l 418 383 l 218 962 l -16 962 l 278 253 l 350 253 b 128 128 306 173 249 144 l 158 -24 b 568 287 375 -4 483 60 l 825 962 "},"√":{"x_min":18,"x_max":1058.28125,"ha":778,"o":"m 1058 1056 l 1058 1223 l 633 1223 l 368 197 l 219 701 l 18 640 l 251 0 l 501 0 l 795 1056 l 1058 1056 "},"⁴":{"x_min":34.828125,"x_max":519.5625,"ha":556,"o":"m 519 562 l 519 681 l 455 681 l 455 813 l 330 813 l 302 681 l 201 681 l 340 994 l 202 1044 l 34 670 l 34 562 l 300 562 l 300 445 l 455 445 l 455 562 l 519 562 "},"ę":{"x_min":44.390625,"x_max":729.03125,"ha":769,"o":"m 729 383 b 389 761 729 622 599 761 b 44 365 165 761 44 586 b 361 -20 44 152 151 1 b 266 -166 302 -54 266 -102 b 470 -329 266 -266 352 -329 b 568 -318 508 -329 538 -325 l 583 -181 b 498 -193 551 -188 526 -193 b 425 -129 448 -193 425 -170 b 551 -2 425 -94 447 -48 b 702 79 609 15 659 44 l 612 201 b 436 136 548 156 495 136 b 268 304 345 136 283 172 l 724 304 b 729 383 727 326 729 359 m 513 436 l 268 436 b 394 615 277 568 322 615 b 513 445 482 615 512 545 l 513 436 "},"⅖":{"x_min":49.78125,"x_max":1300.09375,"ha":1346,"o":"m 1021 991 l 894 1054 l 323 -55 l 451 -118 l 1021 991 m 269 980 b 49 873 173 980 98 935 l 144 799 b 252 858 178 840 209 858 b 322 791 294 858 322 833 b 73 495 322 730 274 679 l 73 381 l 487 381 l 503 505 l 258 505 b 490 805 446 658 490 722 b 269 980 490 897 416 980 m 1251 473 l 1269 584 l 876 584 l 876 260 l 985 260 b 1053 281 1007 274 1030 281 b 1130 197 1099 281 1130 260 b 1039 105 1130 135 1096 105 b 927 162 992 105 956 127 l 835 79 b 1049 -16 881 24 948 -16 b 1300 197 1201 -16 1300 67 b 1122 390 1300 320 1222 390 b 1026 369 1088 390 1059 383 l 1026 473 l 1251 473 "},"į":{"x_min":-51.453125,"x_max":324.9375,"ha":392,"o":"m 194 876 b 324 1001 270 876 324 930 b 194 1126 324 1072 270 1126 b 65 1001 118 1126 65 1072 b 194 876 65 930 118 876 m 86 737 l 86 13 b -51 -179 0 -31 -51 -93 b 152 -341 -51 -279 34 -341 b 249 -330 190 -341 220 -337 l 265 -194 b 180 -205 233 -201 208 -205 b 106 -141 130 -205 106 -183 b 270 0 106 -102 134 -51 l 305 0 l 305 737 l 86 737 "},"Ὶ":{"x_min":0,"x_max":388.890625,"ha":408,"o":"m 388 1154 l 83 1327 l 0 1163 l 333 1043 l 388 1154 m 318 0 l 318 962 l 90 962 l 90 0 l 318 0 "},"Τ":{"x_min":12.5,"x_max":748.609375,"ha":750,"o":"m 726 787 l 748 962 l 12 962 l 12 787 l 261 787 l 261 0 l 488 0 l 488 787 l 726 787 "},"≈":{"x_min":22,"x_max":691,"ha":714,"o":"m 245 715 b 22 539 128 715 65 625 l 142 477 b 235 553 164 517 185 553 b 468 469 302 553 344 469 b 691 642 585 469 647 556 l 570 706 b 478 632 548 664 527 632 b 245 715 410 632 369 715 m 245 427 b 22 251 128 427 65 337 l 142 187 b 235 265 164 229 185 265 b 468 181 302 265 344 181 b 691 353 585 181 647 268 l 570 418 b 478 344 548 376 527 344 b 245 427 410 344 369 427 "},"ΐ":{"x_min":-106.203125,"x_max":484.90625,"ha":383,"o":"m 348 1287 l 164 1319 l 124 1043 l 247 1022 l 348 1287 m 4 1061 b -106 954 -56 1061 -106 1013 b 4 847 -106 894 -56 847 b 114 954 66 847 114 894 b 4 1061 114 1013 66 1061 m 373 1061 b 264 954 314 1061 264 1013 b 373 847 264 894 314 847 b 484 954 437 847 484 894 b 373 1061 484 1013 437 1061 m 298 737 l 79 737 l 79 220 b 294 -24 79 69 153 0 l 358 134 b 298 248 314 155 298 181 l 298 737 "},"Ᾱ":{"x_min":-18.28125,"x_max":838.859375,"ha":819,"o":"m 606 1081 l 606 1234 l 183 1234 l 183 1081 l 606 1081 m 547 206 l 597 0 l 838 0 l 548 962 l 272 962 l -18 0 l 217 0 l 266 206 l 547 206 m 508 372 l 305 372 l 406 797 l 508 372 "},"ĸ":{"x_min":86.109375,"x_max":777.78125,"ha":765,"o":"m 305 0 l 305 737 l 86 737 l 86 0 l 305 0 m 536 400 l 759 737 l 536 737 l 311 388 l 530 0 l 777 0 l 536 400 "},"g":{"x_min":7.234375,"x_max":764.828125,"ha":765,"o":"m 713 857 b 365 761 624 804 529 757 b 41 491 172 761 41 658 b 173 280 41 396 79 330 b 86 139 121 247 86 193 b 313 -6 86 59 151 -6 l 420 -6 b 525 -78 493 -6 525 -35 b 365 -162 525 -126 495 -162 b 204 -70 232 -162 204 -134 l 7 -70 b 360 -308 7 -216 80 -308 b 746 -63 613 -308 746 -215 b 464 150 746 59 636 150 l 353 150 b 272 194 282 150 272 172 b 296 236 272 211 281 228 b 381 228 322 230 350 228 b 691 475 573 228 691 332 b 552 665 691 571 645 625 b 764 694 645 665 713 673 l 713 857 m 371 616 b 482 497 445 616 482 579 b 371 369 482 412 443 369 b 260 494 304 369 260 414 b 371 616 260 571 303 616 "},"ǿ":{"x_min":43.78125,"x_max":766.203125,"ha":811,"o":"m 259 863 l 587 995 l 500 1159 l 197 976 l 259 863 m 666 879 l 505 926 l 450 758 b 405 761 435 759 420 761 b 43 369 179 761 43 605 b 200 28 43 209 100 92 l 146 -140 l 306 -187 l 357 -21 b 405 -24 373 -22 388 -24 b 766 367 630 -24 766 131 b 608 708 766 528 709 645 l 666 879 m 428 598 l 292 192 b 263 369 272 227 263 281 b 405 599 263 528 316 599 l 428 598 m 382 138 l 516 538 l 517 542 b 546 367 535 508 546 453 b 405 137 546 208 494 137 l 382 138 "},"²":{"x_min":50,"x_max":504.171875,"ha":556,"o":"m 269 1044 b 50 937 173 1044 98 1000 l 144 863 b 252 922 179 904 209 922 b 322 855 294 922 322 897 b 73 559 322 794 275 743 l 73 445 l 487 445 l 504 569 l 258 569 b 490 869 447 722 490 786 b 269 1044 490 961 416 1044 "},"́":{"x_min":54,"x_max":443,"ha":0,"o":"m 443 989 l 358 1153 l 54 979 l 109 868 l 443 989 "},"Ã":{"x_min":-18,"x_max":839,"ha":819,"o":"m 333 1119 b 495 1057 379 1119 407 1057 b 672 1220 573 1057 636 1126 l 562 1274 b 490 1213 540 1234 520 1213 b 329 1276 444 1213 415 1276 b 150 1111 245 1276 184 1200 l 259 1058 b 333 1119 282 1097 300 1119 m 547 206 l 597 0 l 839 0 l 548 962 l 272 962 l -18 0 l 218 0 l 266 206 l 547 206 m 508 372 l 305 372 l 407 797 l 508 372 "},"̄":{"x_min":54.171875,"x_max":477.78125,"ha":0,"o":"m 54 909 l 477 909 l 477 1062 l 54 1062 l 54 909 "},"Ј":{"x_min":-15.28125,"x_max":355.5625,"ha":440,"o":"m 355 962 l 127 962 l 127 154 b -15 -73 127 40 109 -25 l 45 -234 b 355 145 208 -181 355 -97 l 355 962 "},"Ұ":{"x_min":-9.71875,"x_max":834.71875,"ha":825,"o":"m 565 437 l 834 962 l 594 962 l 416 538 l 238 962 l -9 962 l 258 437 l 141 437 l 141 308 l 298 308 l 298 0 l 526 0 l 526 308 l 683 308 l 683 437 l 565 437 "},"Ӵ":{"x_min":29.171875,"x_max":766.671875,"ha":856,"o":"m 236 1065 b 348 1175 300 1065 348 1113 b 236 1284 348 1236 300 1284 b 123 1175 173 1284 123 1236 b 236 1065 123 1113 173 1065 m 558 1065 b 670 1175 622 1065 670 1113 b 558 1284 670 1236 622 1284 b 445 1175 495 1284 445 1236 b 558 1065 445 1113 495 1065 m 766 962 l 541 962 l 541 505 b 393 451 506 472 462 451 b 254 615 297 451 254 501 l 254 962 l 29 962 l 29 612 b 327 281 29 409 140 281 b 541 355 413 281 477 305 l 541 0 l 766 0 l 766 962 "},"©":{"x_min":93.0625,"x_max":1031.953125,"ha":1125,"o":"m 563 1063 b 93 600 302 1063 93 859 b 563 137 93 341 302 137 b 1031 600 825 137 1031 341 b 563 1063 1031 859 825 1063 m 563 954 b 905 600 759 954 905 797 b 563 248 905 404 759 248 b 220 600 366 248 220 404 b 563 954 220 797 366 954 m 566 875 b 320 601 425 875 320 772 b 568 327 320 425 418 327 b 752 401 643 327 705 356 l 691 490 b 580 450 656 463 623 450 b 479 601 519 450 479 491 b 581 754 479 713 525 754 b 680 719 618 754 645 747 l 748 804 b 566 875 700 848 636 875 "},"≥":{"x_min":47,"x_max":672,"ha":721,"o":"m 672 665 l 116 906 l 47 752 l 485 569 l 47 391 l 116 231 l 672 472 l 672 665 m 66 169 l 66 0 l 652 0 l 652 169 l 66 169 "},"Ă":{"x_min":-18,"x_max":839,"ha":819,"o":"m 409 1043 b 650 1268 555 1043 638 1150 l 529 1288 b 409 1194 511 1236 473 1194 b 291 1288 345 1194 308 1236 l 170 1268 b 409 1043 182 1150 263 1043 m 547 206 l 597 0 l 839 0 l 548 962 l 272 962 l -18 0 l 218 0 l 266 206 l 547 206 m 508 372 l 305 372 l 407 797 l 508 372 "},"ґ":{"x_min":86.109375,"x_max":608.328125,"ha":601,"o":"m 608 948 l 408 948 l 408 737 l 86 737 l 86 0 l 305 0 l 305 570 l 581 570 l 608 737 l 608 948 "}}}
